<svg xmlns="http://www.w3.org/2000/svg" xmlns:xlink="http://www.w3.org/1999/xlink" width="2000" zoomAndPan="magnify" viewBox="0 0 1500 1499.999933" height="2000" preserveAspectRatio="xMidYMid meet" version="1.0"><defs><clipPath id="c9357b7f54"><path d="M 23.175781 629 L 733 629 L 733 1326.683594 L 23.175781 1326.683594 Z M 23.175781 629 " clip-rule="nonzero"/></clipPath><clipPath id="6dd252782b"><path d="M 23.175781 492 L 598 492 L 598 1172 L 23.175781 1172 Z M 23.175781 492 " clip-rule="nonzero"/></clipPath><clipPath id="82064edd19"><path d="M 23.175781 574 L 627 574 L 627 1326.683594 L 23.175781 1326.683594 Z M 23.175781 574 " clip-rule="nonzero"/></clipPath><clipPath id="4ff58bc340"><path d="M 23.175781 418 L 584 418 L 584 1090 L 23.175781 1090 Z M 23.175781 418 " clip-rule="nonzero"/></clipPath><clipPath id="ddc46bf95b"><path d="M 23.175781 332 L 573 332 L 573 1016 L 23.175781 1016 Z M 23.175781 332 " clip-rule="nonzero"/></clipPath><clipPath id="053b234498"><path d="M 42 752 L 642 752 L 642 1326.683594 L 42 1326.683594 Z M 42 752 " clip-rule="nonzero"/></clipPath><clipPath id="95aca2cfb8"><path d="M 23.175781 268 L 561 268 L 561 929 L 23.175781 929 Z M 23.175781 268 " clip-rule="nonzero"/></clipPath><clipPath id="1c70a8be12"><path d="M 904 415 L 1476.675781 415 L 1476.675781 1119 L 904 1119 Z M 904 415 " clip-rule="nonzero"/></clipPath><clipPath id="b5118da9cd"><path d="M 902 521 L 1476.675781 521 L 1476.675781 1132 L 902 1132 Z M 902 521 " clip-rule="nonzero"/></clipPath><clipPath id="f7c6597bd8"><path d="M 858 677 L 1475 677 L 1475 1326.683594 L 858 1326.683594 Z M 858 677 " clip-rule="nonzero"/></clipPath><clipPath id="72946472c5"><path d="M 877 534 L 1476.675781 534 L 1476.675781 1275 L 877 1275 Z M 877 534 " clip-rule="nonzero"/></clipPath><clipPath id="aa18542519"><path d="M 836 836 L 1445 836 L 1445 1326.683594 L 836 1326.683594 Z M 836 836 " clip-rule="nonzero"/></clipPath><clipPath id="4d1b0d3b82"><path d="M 921 327 L 1476.675781 327 L 1476.675781 1012 L 921 1012 Z M 921 327 " clip-rule="nonzero"/></clipPath><clipPath id="fc7c1ed912"><path d="M 848 780 L 1456 780 L 1456 1326.683594 L 848 1326.683594 Z M 848 780 " clip-rule="nonzero"/></clipPath><clipPath id="42805245c7"><path d="M 933 269 L 1476.675781 269 L 1476.675781 925 L 933 925 Z M 933 269 " clip-rule="nonzero"/></clipPath><clipPath id="a6dd54d345"><path d="M 23.175781 177 L 818 177 L 818 1061 L 23.175781 1061 Z M 23.175781 177 " clip-rule="nonzero"/></clipPath><clipPath id="f7e4ad88a9"><path d="M 23.175781 254 L 739 254 L 739 1120 L 23.175781 1120 Z M 23.175781 254 " clip-rule="nonzero"/></clipPath><clipPath id="9dc79898af"><path d="M 23.175781 435 L 737 435 L 737 1276 L 23.175781 1276 Z M 23.175781 435 " clip-rule="nonzero"/></clipPath><clipPath id="a61c8ff856"><path d="M 23.175781 265 L 906 265 L 906 1151 L 23.175781 1151 Z M 23.175781 265 " clip-rule="nonzero"/></clipPath><clipPath id="ceaf952c8b"><path d="M 23.175781 344 L 827 344 L 827 1242 L 23.175781 1242 Z M 23.175781 344 " clip-rule="nonzero"/></clipPath><clipPath id="891bb66a83"><path d="M 23.175781 633 L 736 633 L 736 1326.683594 L 23.175781 1326.683594 Z M 23.175781 633 " clip-rule="nonzero"/></clipPath><clipPath id="7d22312235"><path d="M 23.175781 532 L 833 532 L 833 1326.683594 L 23.175781 1326.683594 Z M 23.175781 532 " clip-rule="nonzero"/></clipPath><clipPath id="ed0dbf0b21"><path d="M 26 439 L 921 439 L 921 1326.683594 L 26 1326.683594 Z M 26 439 " clip-rule="nonzero"/></clipPath><clipPath id="0609355816"><path d="M 30 627 L 927 627 L 927 1326.683594 L 30 1326.683594 Z M 30 627 " clip-rule="nonzero"/></clipPath><clipPath id="42e19fd129"><path d="M 23.175781 726 L 837 726 L 837 1326.683594 L 23.175781 1326.683594 Z M 23.175781 726 " clip-rule="nonzero"/></clipPath><clipPath id="69ba22bb73"><path d="M 120 533 L 1013 533 L 1013 1326.683594 L 120 1326.683594 Z M 120 533 " clip-rule="nonzero"/></clipPath><clipPath id="0ee8d87dbb"><path d="M 207 450 L 1090 450 L 1090 1326.683594 L 207 1326.683594 Z M 207 450 " clip-rule="nonzero"/></clipPath><clipPath id="5d28d8edd3"><path d="M 302 543 L 1182 543 L 1182 1326.683594 L 302 1326.683594 Z M 302 543 " clip-rule="nonzero"/></clipPath><clipPath id="6a7724ea68"><path d="M 376 447 L 1264 447 L 1264 1326.683594 L 376 1326.683594 Z M 376 447 " clip-rule="nonzero"/></clipPath><clipPath id="088d9c78b1"><path d="M 618 177 L 1476.675781 177 L 1476.675781 1065 L 618 1065 Z M 618 177 " clip-rule="nonzero"/></clipPath><clipPath id="c527b02800"><path d="M 219 629 L 1109 629 L 1109 1326.683594 L 219 1326.683594 Z M 219 629 " clip-rule="nonzero"/></clipPath><clipPath id="b65856706c"><path d="M 155 726 L 1026 726 L 1026 1326.683594 L 155 1326.683594 Z M 155 726 " clip-rule="nonzero"/></clipPath><clipPath id="b49210d74d"><path d="M 699 256 L 1476.675781 256 L 1476.675781 1142 L 699 1142 Z M 699 256 " clip-rule="nonzero"/></clipPath><clipPath id="cbe988f38d"><path d="M 765 177 L 1476.675781 177 L 1476.675781 1063 L 765 1063 Z M 765 177 " clip-rule="nonzero"/></clipPath><clipPath id="7eaf48c73c"><path d="M 623 336 L 1476.675781 336 L 1476.675781 1235 L 623 1235 Z M 623 336 " clip-rule="nonzero"/></clipPath><clipPath id="a10e940cf1"><path d="M 539 428 L 1430 428 L 1430 1326.683594 L 539 1326.683594 Z M 539 428 " clip-rule="nonzero"/></clipPath><clipPath id="ef46c27eaa"><path d="M 459 529 L 1346 529 L 1346 1326.683594 L 459 1326.683594 Z M 459 529 " clip-rule="nonzero"/></clipPath><clipPath id="19b348f00a"><path d="M 386 627 L 1266 627 L 1266 1326.683594 L 386 1326.683594 Z M 386 627 " clip-rule="nonzero"/></clipPath><clipPath id="e30c0576ed"><path d="M 326 714 L 1193 714 L 1193 1326.683594 L 326 1326.683594 Z M 326 714 " clip-rule="nonzero"/></clipPath><clipPath id="12b76fcad1"><path d="M 462 796 L 1273 796 L 1273 1326.683594 L 462 1326.683594 Z M 462 796 " clip-rule="nonzero"/></clipPath><clipPath id="8b176a499f"><path d="M 713 425 L 1476.675781 425 L 1476.675781 1322 L 713 1322 Z M 713 425 " clip-rule="nonzero"/></clipPath><clipPath id="905056147c"><path d="M 466 710 L 1349 710 L 1349 1326.683594 L 466 1326.683594 Z M 466 710 " clip-rule="nonzero"/></clipPath><clipPath id="6b3f209e8c"><path d="M 626 515 L 1476.675781 515 L 1476.675781 1326.683594 L 626 1326.683594 Z M 626 515 " clip-rule="nonzero"/></clipPath><clipPath id="e0407f1da2"><path d="M 793 417 L 1476.675781 417 L 1476.675781 1232 L 793 1232 Z M 793 417 " clip-rule="nonzero"/></clipPath><clipPath id="2a19d8a288"><path d="M 542 615 L 1432 615 L 1432 1326.683594 L 542 1326.683594 Z M 542 615 " clip-rule="nonzero"/></clipPath><clipPath id="06bf5ea11b"><path d="M 376 543 L 1266 543 L 1266 1326.683594 L 376 1326.683594 Z M 376 543 " clip-rule="nonzero"/></clipPath><clipPath id="3a4aa0b97d"><path d="M 459 627 L 1349 627 L 1349 1326.683594 L 459 1326.683594 Z M 459 627 " clip-rule="nonzero"/></clipPath><clipPath id="ecbf5031a2"><path d="M 283 450 L 1182 450 L 1182 1326.683594 L 283 1326.683594 Z M 283 450 " clip-rule="nonzero"/></clipPath><clipPath id="0f9bc3f911"><path d="M 23.175781 177 L 906 177 L 906 1072 L 23.175781 1072 Z M 23.175781 177 " clip-rule="nonzero"/></clipPath><clipPath id="0f89892f5f"><path d="M 542 710 L 1439 710 L 1439 1326.683594 L 542 1326.683594 Z M 542 710 " clip-rule="nonzero"/></clipPath><clipPath id="aca6ed3914"><path d="M 722 710 L 1476.675781 710 L 1476.675781 1326.683594 L 722 1326.683594 Z M 722 710 " clip-rule="nonzero"/></clipPath><clipPath id="0ffd19b33b"><path d="M 539 529 L 1432 529 L 1432 1326.683594 L 539 1326.683594 Z M 539 529 " clip-rule="nonzero"/></clipPath><clipPath id="ed5a9c3494"><path d="M 626 615 L 1476.675781 615 L 1476.675781 1326.683594 L 626 1326.683594 Z M 626 615 " clip-rule="nonzero"/></clipPath><clipPath id="c9dc144729"><path d="M 457 447 L 1346 447 L 1346 1326.683594 L 457 1326.683594 Z M 457 447 " clip-rule="nonzero"/></clipPath><clipPath id="384558b2d5"><path d="M 713 515 L 1476.675781 515 L 1476.675781 1326.683594 L 713 1326.683594 Z M 713 515 " clip-rule="nonzero"/></clipPath><clipPath id="bc97013e70"><path d="M 623 428 L 1476.675781 428 L 1476.675781 1322 L 623 1322 Z M 623 428 " clip-rule="nonzero"/></clipPath><clipPath id="99935b40ad"><path d="M 618 258 L 1476.675781 258 L 1476.675781 1142 L 618 1142 Z M 618 258 " clip-rule="nonzero"/></clipPath><clipPath id="4c797810b9"><path d="M 699 336 L 1476.675781 336 L 1476.675781 1232 L 699 1232 Z M 699 336 " clip-rule="nonzero"/></clipPath><clipPath id="c452653120"><path d="M 793 425 L 1476.675781 425 L 1476.675781 1236 L 793 1236 Z M 793 425 " clip-rule="nonzero"/></clipPath><clipPath id="c06e4d81c4"><path d="M 687 177 L 1476.675781 177 L 1476.675781 1063 L 687 1063 Z M 687 177 " clip-rule="nonzero"/></clipPath><clipPath id="82d0016168"><path d="M 765 256 L 1476.675781 256 L 1476.675781 1116 L 765 1116 Z M 765 256 " clip-rule="nonzero"/></clipPath><clipPath id="448897bbe7"><path d="M 466 796 L 1278 796 L 1278 1326.683594 L 466 1326.683594 Z M 466 796 " clip-rule="nonzero"/></clipPath><clipPath id="adc90462e4"><path d="M 302 629 L 1193 629 L 1193 1326.683594 L 302 1326.683594 Z M 302 629 " clip-rule="nonzero"/></clipPath><clipPath id="2df6b74305"><path d="M 207 533 L 1109 533 L 1109 1326.683594 L 207 1326.683594 Z M 207 533 " clip-rule="nonzero"/></clipPath><clipPath id="ecf6395d46"><path d="M 23.175781 254 L 827 254 L 827 1151 L 23.175781 1151 Z M 23.175781 254 " clip-rule="nonzero"/></clipPath><clipPath id="ff7006d0a9"><path d="M 386 714 L 1273 714 L 1273 1326.683594 L 386 1326.683594 Z M 386 714 " clip-rule="nonzero"/></clipPath><clipPath id="76e61fa3e9"><path d="M 23.175781 344 L 921 344 L 921 1246 L 23.175781 1246 Z M 23.175781 344 " clip-rule="nonzero"/></clipPath><clipPath id="89db178e2d"><path d="M 23.175781 177 L 739 177 L 739 1061 L 23.175781 1061 Z M 23.175781 177 " clip-rule="nonzero"/></clipPath><clipPath id="521797e19d"><path d="M 114 439 L 1013 439 L 1013 1326.683594 L 114 1326.683594 Z M 114 439 " clip-rule="nonzero"/></clipPath><clipPath id="bc8f8d5bde"><path d="M 23.175781 388 L 737 388 L 737 1242 L 23.175781 1242 Z M 23.175781 388 " clip-rule="nonzero"/></clipPath><clipPath id="393546425e"><path d="M 26 532 L 927 532 L 927 1326.683594 L 26 1326.683594 Z M 26 532 " clip-rule="nonzero"/></clipPath><clipPath id="780d170a98"><path d="M 219 726 L 1101 726 L 1101 1326.683594 L 219 1326.683594 Z M 219 726 " clip-rule="nonzero"/></clipPath><clipPath id="ed88335d72"><path d="M 120 627 L 1026 627 L 1026 1326.683594 L 120 1326.683594 Z M 120 627 " clip-rule="nonzero"/></clipPath><clipPath id="ba17adb7fc"><path d="M 23.175781 435 L 833 435 L 833 1326.683594 L 23.175781 1326.683594 Z M 23.175781 435 " clip-rule="nonzero"/></clipPath><clipPath id="a0eedc0bd2"><path d="M 30 726 L 920 726 L 920 1326.683594 L 30 1326.683594 Z M 30 726 " clip-rule="nonzero"/></clipPath><clipPath id="ff15faed91"><path d="M 23.175781 629 L 736 629 L 736 1326.683594 L 23.175781 1326.683594 Z M 23.175781 629 " clip-rule="nonzero"/></clipPath><clipPath id="5165a1e93c"><path d="M 23.175781 633 L 837 633 L 837 1326.683594 L 23.175781 1326.683594 Z M 23.175781 633 " clip-rule="nonzero"/></clipPath><clipPath id="8c87e53744"><path d="M 644 710 L 1476.675781 710 L 1476.675781 1326.683594 L 644 1326.683594 Z M 644 710 " clip-rule="nonzero"/></clipPath><clipPath id="9559d38a17"><path d="M 736 686 L 1476.675781 686 L 1476.675781 1326.683594 L 736 1326.683594 Z M 736 686 " clip-rule="nonzero"/></clipPath></defs><path fill="#9b2828" d="M 1146.640625 1190.074219 C 1146.640625 1190.074219 1147.382812 1201.238281 1130.265625 1215.378906 C 1113.148438 1229.519531 772.292969 1221.332031 772.292969 1221.332031 C 772.292969 1221.332031 378.597656 1228.773438 361.480469 1215.378906 C 344.363281 1201.238281 345.109375 1190.074219 345.109375 1190.074219 C 345.109375 1190.074219 344.363281 1187.84375 343.621094 1184.121094 " fill-opacity="1" fill-rule="nonzero"/><path fill="#9b2828" d="M 1135.476562 1190.074219 L 357.015625 1184.121094 " fill-opacity="1" fill-rule="nonzero"/><path stroke-linecap="butt" transform="matrix(7.44225, 0, 0, 7.442247, -2219.490255, -5332.310681)" fill="none" stroke-linejoin="miter" d="M 332.599831 792.599922 C 332.599831 792.700174 332.599831 792.7999 332.599831 792.900151 " stroke="#131e8a" stroke-width="0.325" stroke-opacity="1" stroke-miterlimit="10"/><path stroke-linecap="butt" transform="matrix(7.44225, 0, 0, 7.442247, -2219.490255, -5332.310681)" fill="none" stroke-linejoin="miter" d="M 332.599831 792.599922 C 332.599831 792.700174 332.599831 792.7999 332.599831 792.900151 " stroke="#131e8a" stroke-width="0.325" stroke-opacity="1" stroke-miterlimit="10"/><path stroke-linecap="butt" transform="matrix(7.44225, 0, 0, 7.442247, -2219.490255, -5332.310681)" fill="none" stroke-linejoin="miter" d="M 432.299814 792.7999 L 464.499839 792.7999 " stroke="#131e8a" stroke-width="0.921" stroke-opacity="1" stroke-miterlimit="10"/><path stroke-linecap="butt" transform="matrix(7.44225, 0, 0, 7.442247, -2219.490255, -5332.310681)" fill="none" stroke-linejoin="miter" d="M 464.499839 792.599922 C 464.499839 792.700174 464.499839 792.7999 464.499839 792.900151 " stroke="#131e8a" stroke-width="0.325" stroke-opacity="1" stroke-miterlimit="10"/><path stroke-linecap="butt" transform="matrix(7.44225, 0, 0, 7.442247, -2219.490255, -5332.310681)" fill="none" stroke-linejoin="miter" d="M 464.499839 792.599922 C 464.499839 792.700174 464.499839 792.7999 464.499839 792.900151 " stroke="#131e8a" stroke-width="0.325" stroke-opacity="1" stroke-miterlimit="10"/><path stroke-linecap="butt" transform="matrix(7.44225, 0, 0, 7.442247, -2219.490255, -5332.310681)" fill="none" stroke-linejoin="miter" d="M 369.99979 792.7999 L 425.599787 792.7999 " stroke="#131e8a" stroke-width="0.921" stroke-opacity="1" stroke-miterlimit="10"/><path stroke-linecap="butt" transform="matrix(7.44225, 0, 0, 7.442247, -2219.490255, -5332.310681)" fill="none" stroke-linejoin="miter" d="M 369.99979 792.7999 L 363.700242 792.7999 " stroke="#131e8a" stroke-width="0.921" stroke-opacity="1" stroke-miterlimit="10"/><path stroke-linecap="butt" transform="matrix(7.44225, 0, 0, 7.442247, -2219.490255, -5332.310681)" fill="none" stroke-linejoin="miter" d="M 425.599787 792.7999 L 432.299814 792.7999 " stroke="#131e8a" stroke-width="0.921" stroke-opacity="1" stroke-miterlimit="10"/><path fill="#9b2828" d="M 1241.898438 580.554688 L 251.335938 580.554688 C 246.871094 580.554688 243.894531 576.832031 243.894531 573.113281 L 243.894531 568.648438 C 243.894531 549.296875 259.523438 533.667969 278.875 533.667969 L 1209.898438 533.667969 C 1231.480469 533.667969 1249.34375 551.53125 1249.34375 573.113281 C 1249.34375 577.578125 1245.621094 580.554688 1241.898438 580.554688 Z M 1241.898438 580.554688 " fill-opacity="1" fill-rule="nonzero"/><path fill="#9b2828" d="M 741.035156 526.226562 C 825.878906 526.226562 895.835938 484.550781 900.300781 431.710938 C 900.300781 431.710938 900.300781 430.964844 900.300781 430.964844 C 900.300781 427.988281 900.300781 425.757812 900.300781 422.78125 C 897.324219 369.195312 827.367188 326.03125 741.035156 326.03125 C 652.472656 326.03125 581.027344 370.683594 581.027344 425.757812 C 581.027344 427.988281 581.027344 429.476562 581.027344 431.710938 C 586.238281 484.550781 656.195312 526.226562 741.035156 526.226562 Z M 741.035156 348.355469 C 809.503906 348.355469 865.324219 383.335938 865.324219 426.5 C 865.324219 428.734375 865.324219 430.222656 864.578125 432.453125 C 860.113281 472.640625 806.527344 504.644531 741.035156 504.644531 C 675.546875 504.644531 621.960938 472.640625 617.496094 432.453125 C 617.496094 430.222656 616.75 428.734375 616.75 426.5 C 616.75 383.335938 672.566406 348.355469 741.035156 348.355469 Z M 741.035156 348.355469 " fill-opacity="1" fill-rule="nonzero"/><path fill="#9b2828" d="M 989.609375 534.414062 C 985.144531 534.414062 981.421875 534.414062 977.699219 534.414062 C 950.90625 532.925781 926.347656 518.785156 912.207031 496.457031 C 894.347656 468.175781 901.789062 437.664062 901.789062 431.710938 C 897.324219 484.550781 827.367188 526.226562 742.527344 526.226562 C 657.683594 526.226562 587.726562 484.550781 583.261719 431.710938 C 583.261719 437.664062 591.449219 468.175781 572.84375 496.457031 C 556.46875 521.761719 526.699219 536.644531 494.699219 534.414062 L 447.8125 534.414062 L 447.8125 557.484375 L 1064.773438 557.484375 L 1064.773438 534.414062 Z M 989.609375 534.414062 " fill-opacity="1" fill-rule="nonzero"/><g clip-path="url(#c9357b7f54)"><path stroke-linecap="butt" transform="matrix(7.44225, 0, 0, 7.442247, -2219.490255, -5332.310681)" fill="none" stroke-linejoin="miter" d="M 342.300043 855.200195 C 342.39977 855.499899 342.39977 855.899854 342.500021 856.200082 " stroke="#9b2828" stroke-width="3.828" stroke-opacity="1" stroke-miterlimit="10"/></g><g clip-path="url(#6dd252782b)"><path stroke-linecap="butt" transform="matrix(7.44225, 0, 0, 7.442247, -2219.490255, -5332.310681)" fill="none" stroke-linejoin="miter" d="M 338.400223 833.79999 C 337.799766 830.100145 337.100108 826.500027 336.599902 822.800183 " stroke="#9b2828" stroke-width="2.835" stroke-opacity="1" stroke-miterlimit="10"/></g><g clip-path="url(#82064edd19)"><path stroke-linecap="butt" transform="matrix(7.44225, 0, 0, 7.442247, -2219.490255, -5332.310681)" fill="none" stroke-linejoin="miter" d="M 338.400223 833.79999 C 339.699813 841.299929 341.100179 848.799869 342.300043 855.299921 " stroke="#9b2828" stroke-width="2.835" stroke-opacity="1" stroke-miterlimit="10"/></g><g clip-path="url(#4ff58bc340)"><path stroke-linecap="butt" transform="matrix(7.44225, 0, 0, 7.442247, -2219.490255, -5332.310681)" fill="none" stroke-linejoin="miter" d="M 335.000084 812.799739 C 335.499764 815.999902 335.99997 819.400043 336.599902 822.800183 " stroke="#9b2828" stroke-width="2.835" stroke-opacity="1" stroke-miterlimit="10"/></g><g clip-path="url(#ddc46bf95b)"><path stroke-linecap="butt" transform="matrix(7.44225, 0, 0, 7.442247, -2219.490255, -5332.310681)" fill="none" stroke-linejoin="miter" d="M 333.39974 801.2 C 333.80022 804.699867 334.400152 808.600214 335.000084 812.799739 " stroke="#9b2828" stroke-width="2.835" stroke-opacity="1" stroke-miterlimit="10"/></g><g clip-path="url(#053b234498)"><path stroke-linecap="butt" transform="matrix(7.44225, 0, 0, 7.442247, -2219.490255, -5332.310681)" fill="none" stroke-linejoin="miter" d="M 345.90016 875.999944 C 345.500206 873.600215 344.20009 866.000024 342.500021 856.200082 " stroke="#9b2828" stroke-width="2.728" stroke-opacity="1" stroke-miterlimit="10"/></g><g clip-path="url(#95aca2cfb8)"><path stroke-linecap="butt" transform="matrix(7.44225, 0, 0, 7.442247, -2219.490255, -5332.310681)" fill="none" stroke-linejoin="miter" d="M 333.39974 801.2 C 332.999785 797.900111 332.700082 794.899925 332.599831 792.599922 " stroke="#9b2828" stroke-width="2.835" stroke-opacity="1" stroke-miterlimit="10"/></g><g clip-path="url(#1c70a8be12)"><path stroke-linecap="butt" transform="matrix(7.44225, 0, 0, 7.442247, -2219.490255, -5332.310681)" fill="none" stroke-linejoin="miter" d="M 459.899835 826.700005 C 460.699744 821.799771 461.500179 816.900063 462.199837 812.399784 " stroke="#9b2828" stroke-width="2.835" stroke-opacity="1" stroke-miterlimit="10"/></g><g clip-path="url(#b5118da9cd)"><path stroke-linecap="butt" transform="matrix(7.44225, 0, 0, 7.442247, -2219.490255, -5332.310681)" fill="none" stroke-linejoin="miter" d="M 459.600132 828.400075 C 459.699858 827.800143 459.800109 827.200211 459.899835 826.600278 " stroke="#9b2828" stroke-width="2.835" stroke-opacity="1" stroke-miterlimit="10"/></g><g clip-path="url(#f7c6597bd8)"><path stroke-linecap="butt" transform="matrix(7.44225, 0, 0, 7.442247, -2219.490255, -5332.310681)" fill="none" stroke-linejoin="miter" d="M 453.700013 861.499745 C 454.499922 857.399946 455.400083 852.700215 456.300243 847.600004 " stroke="#9b2828" stroke-width="2.835" stroke-opacity="1" stroke-miterlimit="10"/></g><g clip-path="url(#72946472c5)"><path stroke-linecap="butt" transform="matrix(7.44225, 0, 0, 7.442247, -2219.490255, -5332.310681)" fill="none" stroke-linejoin="miter" d="M 459.600132 828.400075 C 458.499994 834.900128 457.30013 841.499907 456.199992 847.600004 " stroke="#9b2828" stroke-width="2.835" stroke-opacity="1" stroke-miterlimit="10"/></g><g clip-path="url(#aa18542519)"><path stroke-linecap="butt" transform="matrix(7.44225, 0, 0, 7.442247, -2219.490255, -5332.310681)" fill="none" stroke-linejoin="miter" d="M 452.199921 869.00021 C 451.29976 873.600215 450.699828 876.50015 450.699828 876.50015 " stroke="#9b2828" stroke-width="2.835" stroke-opacity="1" stroke-miterlimit="10"/></g><g clip-path="url(#4d1b0d3b82)"><path stroke-linecap="butt" transform="matrix(7.44225, 0, 0, 7.442247, -2219.490255, -5332.310681)" fill="none" stroke-linejoin="miter" d="M 463.80018 800.600068 C 463.400226 804.099935 462.799769 807.999756 462.199837 812.300058 " stroke="#9b2828" stroke-width="2.835" stroke-opacity="1" stroke-miterlimit="10"/></g><g clip-path="url(#fc7c1ed912)"><path stroke-linecap="butt" transform="matrix(7.44225, 0, 0, 7.442247, -2219.490255, -5332.310681)" fill="none" stroke-linejoin="miter" d="M 453.700013 861.499745 C 453.199807 864.299954 452.700126 866.799934 452.300172 869.00021 " stroke="#9b2828" stroke-width="2.835" stroke-opacity="1" stroke-miterlimit="10"/></g><g clip-path="url(#42805245c7)"><path stroke-linecap="butt" transform="matrix(7.44225, 0, 0, 7.442247, -2219.490255, -5332.310681)" fill="none" stroke-linejoin="miter" d="M 464.499839 792.7999 C 464.400112 795.000176 464.099884 797.599882 463.80018 800.600068 " stroke="#9b2828" stroke-width="2.835" stroke-opacity="1" stroke-miterlimit="10"/></g><g clip-path="url(#a6dd54d345)"><path stroke-linecap="butt" transform="matrix(7.44225, 0, 0, 7.442247, -2219.490255, -5332.310681)" fill="none" stroke-linejoin="miter" d="M 353.899778 794.49997 L 343.29993 804.800118 " stroke="#9b2828" stroke-width="3.828" stroke-opacity="1" stroke-miterlimit="10"/></g><g clip-path="url(#f7e4ad88a9)"><path stroke-linecap="butt" transform="matrix(7.44225, 0, 0, 7.442247, -2219.490255, -5332.310681)" fill="none" stroke-linejoin="miter" d="M 343.29993 804.800118 L 335.000084 812.799739 " stroke="#9b2828" stroke-width="3.828" stroke-opacity="1" stroke-miterlimit="10"/></g><path stroke-linecap="butt" transform="matrix(7.44225, 0, 0, 7.442247, -2219.490255, -5332.310681)" fill="none" stroke-linejoin="miter" d="M 377.400001 794.49997 L 365.700015 806.300211 " stroke="#9b2828" stroke-width="3.828" stroke-opacity="1" stroke-miterlimit="10"/><g clip-path="url(#9dc79898af)"><path stroke-linecap="butt" transform="matrix(7.44225, 0, 0, 7.442247, -2219.490255, -5332.310681)" fill="none" stroke-linejoin="miter" d="M 338.400223 833.79999 L 343.000227 829.199985 " stroke="#9b2828" stroke-width="3.828" stroke-opacity="1" stroke-miterlimit="10"/></g><g clip-path="url(#a61c8ff856)"><path stroke-linecap="butt" transform="matrix(7.44225, 0, 0, 7.442247, -2219.490255, -5332.310681)" fill="none" stroke-linejoin="miter" d="M 365.700015 806.300211 L 355.199893 816.900063 " stroke="#9b2828" stroke-width="3.828" stroke-opacity="1" stroke-miterlimit="10"/></g><g clip-path="url(#ceaf952c8b)"><path stroke-linecap="butt" transform="matrix(7.44225, 0, 0, 7.442247, -2219.490255, -5332.310681)" fill="none" stroke-linejoin="miter" d="M 355.199893 816.900063 L 343.000227 829.199985 " stroke="#9b2828" stroke-width="3.828" stroke-opacity="1" stroke-miterlimit="10"/></g><g clip-path="url(#891bb66a83)"><path stroke-linecap="butt" transform="matrix(7.44225, 0, 0, 7.442247, -2219.490255, -5332.310681)" fill="none" stroke-linejoin="miter" d="M 342.500021 856.200082 L 342.899975 855.800127 " stroke="#9b2828" stroke-width="3.828" stroke-opacity="1" stroke-miterlimit="10"/></g><path stroke-linecap="butt" transform="matrix(7.44225, 0, 0, 7.442247, -2219.490255, -5332.310681)" fill="none" stroke-linejoin="miter" d="M 378.199911 818.80011 L 367.80004 829.700191 " stroke="#9b2828" stroke-width="3.828" stroke-opacity="1" stroke-miterlimit="10"/><path stroke-linecap="butt" transform="matrix(7.44225, 0, 0, 7.442247, -2219.490255, -5332.310681)" fill="none" stroke-linejoin="miter" d="M 389.699919 806.700166 L 378.199911 818.80011 " stroke="#9b2828" stroke-width="3.828" stroke-opacity="1" stroke-miterlimit="10"/><g clip-path="url(#7d22312235)"><path stroke-linecap="butt" transform="matrix(7.44225, 0, 0, 7.442247, -2219.490255, -5332.310681)" fill="none" stroke-linejoin="miter" d="M 342.899975 855.800127 L 355.900076 842.20009 " stroke="#9b2828" stroke-width="3.828" stroke-opacity="1" stroke-miterlimit="10"/></g><g clip-path="url(#ed0dbf0b21)"><path stroke-linecap="butt" transform="matrix(7.44225, 0, 0, 7.442247, -2219.490255, -5332.310681)" fill="none" stroke-linejoin="miter" d="M 355.900076 842.20009 L 367.80004 829.700191 " stroke="#9b2828" stroke-width="3.828" stroke-opacity="1" stroke-miterlimit="10"/></g><path stroke-linecap="butt" transform="matrix(7.44225, 0, 0, 7.442247, -2219.490255, -5332.310681)" fill="none" stroke-linejoin="miter" d="M 401.399905 794.49997 L 389.699919 806.700166 " stroke="#9b2828" stroke-width="3.828" stroke-opacity="1" stroke-miterlimit="10"/><g clip-path="url(#0609355816)"><path stroke-linecap="butt" transform="matrix(7.44225, 0, 0, 7.442247, -2219.490255, -5332.310681)" fill="none" stroke-linejoin="miter" d="M 356.500008 868.199775 L 368.599949 854.899967 " stroke="#9b2828" stroke-width="3.828" stroke-opacity="1" stroke-miterlimit="10"/></g><g clip-path="url(#42e19fd129)"><path stroke-linecap="butt" transform="matrix(7.44225, 0, 0, 7.442247, -2219.490255, -5332.310681)" fill="none" stroke-linejoin="miter" d="M 347.800207 877.700014 L 356.500008 868.199775 " stroke="#9b2828" stroke-width="3.828" stroke-opacity="1" stroke-miterlimit="10"/></g><g clip-path="url(#69ba22bb73)"><path stroke-linecap="butt" transform="matrix(7.44225, 0, 0, 7.442247, -2219.490255, -5332.310681)" fill="none" stroke-linejoin="miter" d="M 368.599949 854.899967 L 380.200209 842.299816 " stroke="#9b2828" stroke-width="3.828" stroke-opacity="1" stroke-miterlimit="10"/></g><g clip-path="url(#0ee8d87dbb)"><path stroke-linecap="butt" transform="matrix(7.44225, 0, 0, 7.442247, -2219.490255, -5332.310681)" fill="none" stroke-linejoin="miter" d="M 380.200209 842.299816 L 390.499829 831.100032 " stroke="#9b2828" stroke-width="3.828" stroke-opacity="1" stroke-miterlimit="10"/></g><path stroke-linecap="butt" transform="matrix(7.44225, 0, 0, 7.442247, -2219.490255, -5332.310681)" fill="none" stroke-linejoin="miter" d="M 401.79986 818.80011 L 390.499829 831.100032 " stroke="#9b2828" stroke-width="3.828" stroke-opacity="1" stroke-miterlimit="10"/><path stroke-linecap="butt" transform="matrix(7.44225, 0, 0, 7.442247, -2219.490255, -5332.310681)" fill="none" stroke-linejoin="miter" d="M 424.100219 794.49997 L 413.40012 806.100234 " stroke="#9b2828" stroke-width="3.828" stroke-opacity="1" stroke-miterlimit="10"/><path stroke-linecap="butt" transform="matrix(7.44225, 0, 0, 7.442247, -2219.490255, -5332.310681)" fill="none" stroke-linejoin="miter" d="M 413.40012 806.100234 L 401.79986 818.80011 " stroke="#9b2828" stroke-width="3.828" stroke-opacity="1" stroke-miterlimit="10"/><g clip-path="url(#5d28d8edd3)"><path stroke-linecap="butt" transform="matrix(7.44225, 0, 0, 7.442247, -2219.490255, -5332.310681)" fill="none" stroke-linejoin="miter" d="M 392.999808 855.200195 L 402.899998 843.599932 " stroke="#9b2828" stroke-width="3.828" stroke-opacity="1" stroke-miterlimit="10"/></g><path stroke-linecap="butt" transform="matrix(7.44225, 0, 0, 7.442247, -2219.490255, -5332.310681)" fill="none" stroke-linejoin="miter" d="M 435.499977 805.40005 L 425.199832 817.499995 " stroke="#9b2828" stroke-width="3.828" stroke-opacity="1" stroke-miterlimit="10"/><g clip-path="url(#6a7724ea68)"><path stroke-linecap="butt" transform="matrix(7.44225, 0, 0, 7.442247, -2219.490255, -5332.310681)" fill="none" stroke-linejoin="miter" d="M 413.800074 830.799804 L 402.899998 843.599932 " stroke="#9b2828" stroke-width="3.828" stroke-opacity="1" stroke-miterlimit="10"/></g><path stroke-linecap="butt" transform="matrix(7.44225, 0, 0, 7.442247, -2219.490255, -5332.310681)" fill="none" stroke-linejoin="miter" d="M 425.199832 817.499995 L 413.800074 830.799804 " stroke="#9b2828" stroke-width="3.828" stroke-opacity="1" stroke-miterlimit="10"/><g clip-path="url(#088d9c78b1)"><path stroke-linecap="butt" transform="matrix(7.44225, 0, 0, 7.442247, -2219.490255, -5332.310681)" fill="none" stroke-linejoin="miter" d="M 444.800235 794.49997 L 435.499977 805.40005 " stroke="#9b2828" stroke-width="3.828" stroke-opacity="1" stroke-miterlimit="10"/></g><g clip-path="url(#c527b02800)"><path stroke-linecap="butt" transform="matrix(7.44225, 0, 0, 7.442247, -2219.490255, -5332.310681)" fill="none" stroke-linejoin="miter" d="M 381.899754 868.199775 L 392.999808 855.200195 " stroke="#9b2828" stroke-width="3.828" stroke-opacity="1" stroke-miterlimit="10"/></g><g clip-path="url(#b65856706c)"><path stroke-linecap="butt" transform="matrix(7.44225, 0, 0, 7.442247, -2219.490255, -5332.310681)" fill="none" stroke-linejoin="miter" d="M 373.300204 878.299946 L 381.899754 868.199775 " stroke="#9b2828" stroke-width="3.828" stroke-opacity="1" stroke-miterlimit="10"/></g><g clip-path="url(#b49210d74d)"><path stroke-linecap="butt" transform="matrix(7.44225, 0, 0, 7.442247, -2219.490255, -5332.310681)" fill="none" stroke-linejoin="miter" d="M 455.200105 805.099822 L 446.400053 815.799925 " stroke="#9b2828" stroke-width="3.828" stroke-opacity="1" stroke-miterlimit="10"/></g><g clip-path="url(#cbe988f38d)"><path stroke-linecap="butt" transform="matrix(7.44225, 0, 0, 7.442247, -2219.490255, -5332.310681)" fill="none" stroke-linejoin="miter" d="M 464.099884 794.49997 L 455.200105 805.099822 " stroke="#9b2828" stroke-width="3.828" stroke-opacity="1" stroke-miterlimit="10"/></g><g clip-path="url(#7eaf48c73c)"><path stroke-linecap="butt" transform="matrix(7.44225, 0, 0, 7.442247, -2219.490255, -5332.310681)" fill="none" stroke-linejoin="miter" d="M 446.400053 815.799925 L 436.20016 828.200098 " stroke="#9b2828" stroke-width="3.828" stroke-opacity="1" stroke-miterlimit="10"/></g><g clip-path="url(#a10e940cf1)"><path stroke-linecap="butt" transform="matrix(7.44225, 0, 0, 7.442247, -2219.490255, -5332.310681)" fill="none" stroke-linejoin="miter" d="M 424.900128 841.800135 L 436.20016 828.200098 " stroke="#9b2828" stroke-width="3.828" stroke-opacity="1" stroke-miterlimit="10"/></g><g clip-path="url(#ef46c27eaa)"><path stroke-linecap="butt" transform="matrix(7.44225, 0, 0, 7.442247, -2219.490255, -5332.310681)" fill="none" stroke-linejoin="miter" d="M 414.099778 854.899967 L 424.900128 841.800135 " stroke="#9b2828" stroke-width="3.828" stroke-opacity="1" stroke-miterlimit="10"/></g><g clip-path="url(#19b348f00a)"><path stroke-linecap="butt" transform="matrix(7.44225, 0, 0, 7.442247, -2219.490255, -5332.310681)" fill="none" stroke-linejoin="miter" d="M 404.299839 866.700207 L 414.099778 854.899967 " stroke="#9b2828" stroke-width="3.828" stroke-opacity="1" stroke-miterlimit="10"/></g><g clip-path="url(#e30c0576ed)"><path stroke-linecap="butt" transform="matrix(7.44225, 0, 0, 7.442247, -2219.490255, -5332.310681)" fill="none" stroke-linejoin="miter" d="M 396.300221 876.399898 L 404.299839 866.700207 " stroke="#9b2828" stroke-width="3.828" stroke-opacity="1" stroke-miterlimit="10"/></g><g clip-path="url(#12b76fcad1)"><path stroke-linecap="butt" transform="matrix(7.44225, 0, 0, 7.442247, -2219.490255, -5332.310681)" fill="none" stroke-linejoin="miter" d="M 414.500257 878.299946 L 415.100189 877.700014 " stroke="#9b2828" stroke-width="3.828" stroke-opacity="1" stroke-miterlimit="10"/></g><g clip-path="url(#8b176a499f)"><path stroke-linecap="butt" transform="matrix(7.44225, 0, 0, 7.442247, -2219.490255, -5332.310681)" fill="none" stroke-linejoin="miter" d="M 448.3001 839.900087 L 459.0002 827.800143 " stroke="#9b2828" stroke-width="3.828" stroke-opacity="1" stroke-miterlimit="10"/></g><g clip-path="url(#905056147c)"><path stroke-linecap="butt" transform="matrix(7.44225, 0, 0, 7.442247, -2219.490255, -5332.310681)" fill="none" stroke-linejoin="miter" d="M 415.100189 877.700014 L 425.300083 866.09975 " stroke="#9b2828" stroke-width="3.828" stroke-opacity="1" stroke-miterlimit="10"/></g><g clip-path="url(#6b3f209e8c)"><path stroke-linecap="butt" transform="matrix(7.44225, 0, 0, 7.442247, -2219.490255, -5332.310681)" fill="none" stroke-linejoin="miter" d="M 436.499863 853.300147 L 448.3001 839.900087 " stroke="#9b2828" stroke-width="3.828" stroke-opacity="1" stroke-miterlimit="10"/></g><g clip-path="url(#e0407f1da2)"><path stroke-linecap="butt" transform="matrix(7.44225, 0, 0, 7.442247, -2219.490255, -5332.310681)" fill="none" stroke-linejoin="miter" d="M 459.899835 826.700005 L 459.0002 827.800143 " stroke="#9b2828" stroke-width="3.828" stroke-opacity="1" stroke-miterlimit="10"/></g><g clip-path="url(#2a19d8a288)"><path stroke-linecap="butt" transform="matrix(7.44225, 0, 0, 7.442247, -2219.490255, -5332.310681)" fill="none" stroke-linejoin="miter" d="M 436.499863 853.300147 L 425.300083 866.09975 " stroke="#9b2828" stroke-width="3.828" stroke-opacity="1" stroke-miterlimit="10"/></g><g clip-path="url(#06bf5ea11b)"><path stroke-linecap="butt" transform="matrix(7.44225, 0, 0, 7.442247, -2219.490255, -5332.310681)" fill="none" stroke-linejoin="miter" d="M 402.899998 843.599932 L 414.099778 854.899967 " stroke="#9b2828" stroke-width="3.828" stroke-opacity="1" stroke-miterlimit="10"/></g><g clip-path="url(#3a4aa0b97d)"><path stroke-linecap="butt" transform="matrix(7.44225, 0, 0, 7.442247, -2219.490255, -5332.310681)" fill="none" stroke-linejoin="miter" d="M 425.300083 866.09975 L 414.099778 854.899967 " stroke="#9b2828" stroke-width="3.828" stroke-opacity="1" stroke-miterlimit="10"/></g><g clip-path="url(#ecbf5031a2)"><path stroke-linecap="butt" transform="matrix(7.44225, 0, 0, 7.442247, -2219.490255, -5332.310681)" fill="none" stroke-linejoin="miter" d="M 390.499829 831.100032 L 402.899998 843.599932 " stroke="#9b2828" stroke-width="3.828" stroke-opacity="1" stroke-miterlimit="10"/></g><g clip-path="url(#0f9bc3f911)"><path stroke-linecap="butt" transform="matrix(7.44225, 0, 0, 7.442247, -2219.490255, -5332.310681)" fill="none" stroke-linejoin="miter" d="M 365.700015 806.300211 L 353.899778 794.49997 " stroke="#9b2828" stroke-width="3.828" stroke-opacity="1" stroke-miterlimit="10"/></g><g clip-path="url(#0f89892f5f)"><path stroke-linecap="butt" transform="matrix(7.44225, 0, 0, 7.442247, -2219.490255, -5332.310681)" fill="none" stroke-linejoin="miter" d="M 425.300083 866.09975 L 437.400024 878.299946 " stroke="#9b2828" stroke-width="3.828" stroke-opacity="1" stroke-miterlimit="10"/></g><path stroke-linecap="butt" transform="matrix(7.44225, 0, 0, 7.442247, -2219.490255, -5332.310681)" fill="none" stroke-linejoin="miter" d="M 365.700015 806.300211 L 378.199911 818.80011 " stroke="#9b2828" stroke-width="3.828" stroke-opacity="1" stroke-miterlimit="10"/><path stroke-linecap="butt" transform="matrix(7.44225, 0, 0, 7.442247, -2219.490255, -5332.310681)" fill="none" stroke-linejoin="miter" d="M 390.499829 831.100032 L 378.199911 818.80011 " stroke="#9b2828" stroke-width="3.828" stroke-opacity="1" stroke-miterlimit="10"/><g clip-path="url(#aca6ed3914)"><path stroke-linecap="butt" transform="matrix(7.44225, 0, 0, 7.442247, -2219.490255, -5332.310681)" fill="none" stroke-linejoin="miter" d="M 452.199921 869.00021 L 449.400238 866.09975 " stroke="#9b2828" stroke-width="3.828" stroke-opacity="1" stroke-miterlimit="10"/></g><path stroke-linecap="butt" transform="matrix(7.44225, 0, 0, 7.442247, -2219.490255, -5332.310681)" fill="none" stroke-linejoin="miter" d="M 389.699919 806.700166 L 377.400001 794.49997 " stroke="#9b2828" stroke-width="3.828" stroke-opacity="1" stroke-miterlimit="10"/><g clip-path="url(#0ffd19b33b)"><path stroke-linecap="butt" transform="matrix(7.44225, 0, 0, 7.442247, -2219.490255, -5332.310681)" fill="none" stroke-linejoin="miter" d="M 436.499863 853.300147 L 424.900128 841.800135 " stroke="#9b2828" stroke-width="3.828" stroke-opacity="1" stroke-miterlimit="10"/></g><g clip-path="url(#ed5a9c3494)"><path stroke-linecap="butt" transform="matrix(7.44225, 0, 0, 7.442247, -2219.490255, -5332.310681)" fill="none" stroke-linejoin="miter" d="M 449.400238 866.09975 L 436.499863 853.300147 " stroke="#9b2828" stroke-width="3.828" stroke-opacity="1" stroke-miterlimit="10"/></g><g clip-path="url(#c9dc144729)"><path stroke-linecap="butt" transform="matrix(7.44225, 0, 0, 7.442247, -2219.490255, -5332.310681)" fill="none" stroke-linejoin="miter" d="M 413.800074 830.799804 L 424.900128 841.800135 " stroke="#9b2828" stroke-width="3.828" stroke-opacity="1" stroke-miterlimit="10"/></g><path stroke-linecap="butt" transform="matrix(7.44225, 0, 0, 7.442247, -2219.490255, -5332.310681)" fill="none" stroke-linejoin="miter" d="M 413.800074 830.799804 L 401.79986 818.80011 " stroke="#9b2828" stroke-width="3.828" stroke-opacity="1" stroke-miterlimit="10"/><path stroke-linecap="butt" transform="matrix(7.44225, 0, 0, 7.442247, -2219.490255, -5332.310681)" fill="none" stroke-linejoin="miter" d="M 389.699919 806.700166 L 401.79986 818.80011 " stroke="#9b2828" stroke-width="3.828" stroke-opacity="1" stroke-miterlimit="10"/><g clip-path="url(#384558b2d5)"><path stroke-linecap="butt" transform="matrix(7.44225, 0, 0, 7.442247, -2219.490255, -5332.310681)" fill="none" stroke-linejoin="miter" d="M 448.3001 839.900087 L 456.199992 847.600004 " stroke="#9b2828" stroke-width="3.828" stroke-opacity="1" stroke-miterlimit="10"/></g><path stroke-linecap="butt" transform="matrix(7.44225, 0, 0, 7.442247, -2219.490255, -5332.310681)" fill="none" stroke-linejoin="miter" d="M 436.20016 828.200098 L 425.199832 817.499995 " stroke="#9b2828" stroke-width="3.828" stroke-opacity="1" stroke-miterlimit="10"/><path stroke-linecap="butt" transform="matrix(7.44225, 0, 0, 7.442247, -2219.490255, -5332.310681)" fill="none" stroke-linejoin="miter" d="M 413.40012 806.100234 L 425.199832 817.499995 " stroke="#9b2828" stroke-width="3.828" stroke-opacity="1" stroke-miterlimit="10"/><path stroke-linecap="butt" transform="matrix(7.44225, 0, 0, 7.442247, -2219.490255, -5332.310681)" fill="none" stroke-linejoin="miter" d="M 413.40012 806.100234 L 401.399905 794.49997 " stroke="#9b2828" stroke-width="3.828" stroke-opacity="1" stroke-miterlimit="10"/><g clip-path="url(#bc97013e70)"><path stroke-linecap="butt" transform="matrix(7.44225, 0, 0, 7.442247, -2219.490255, -5332.310681)" fill="none" stroke-linejoin="miter" d="M 448.3001 839.900087 L 436.20016 828.200098 " stroke="#9b2828" stroke-width="3.828" stroke-opacity="1" stroke-miterlimit="10"/></g><path stroke-linecap="butt" transform="matrix(7.44225, 0, 0, 7.442247, -2219.490255, -5332.310681)" fill="none" stroke-linejoin="miter" d="M 435.499977 805.40005 L 424.100219 794.49997 " stroke="#9b2828" stroke-width="3.828" stroke-opacity="1" stroke-miterlimit="10"/><g clip-path="url(#99935b40ad)"><path stroke-linecap="butt" transform="matrix(7.44225, 0, 0, 7.442247, -2219.490255, -5332.310681)" fill="none" stroke-linejoin="miter" d="M 435.499977 805.40005 L 446.400053 815.799925 " stroke="#9b2828" stroke-width="3.828" stroke-opacity="1" stroke-miterlimit="10"/></g><g clip-path="url(#4c797810b9)"><path stroke-linecap="butt" transform="matrix(7.44225, 0, 0, 7.442247, -2219.490255, -5332.310681)" fill="none" stroke-linejoin="miter" d="M 459.0002 827.800143 L 446.400053 815.799925 " stroke="#9b2828" stroke-width="3.828" stroke-opacity="1" stroke-miterlimit="10"/></g><g clip-path="url(#c452653120)"><path stroke-linecap="butt" transform="matrix(7.44225, 0, 0, 7.442247, -2219.490255, -5332.310681)" fill="none" stroke-linejoin="miter" d="M 459.600132 828.400075 L 459.0002 827.800143 " stroke="#9b2828" stroke-width="3.828" stroke-opacity="1" stroke-miterlimit="10"/></g><g clip-path="url(#c06e4d81c4)"><path stroke-linecap="butt" transform="matrix(7.44225, 0, 0, 7.442247, -2219.490255, -5332.310681)" fill="none" stroke-linejoin="miter" d="M 455.200105 805.099822 L 444.800235 794.49997 " stroke="#9b2828" stroke-width="3.828" stroke-opacity="1" stroke-miterlimit="10"/></g><g clip-path="url(#82d0016168)"><path stroke-linecap="butt" transform="matrix(7.44225, 0, 0, 7.442247, -2219.490255, -5332.310681)" fill="none" stroke-linejoin="miter" d="M 455.200105 805.099822 L 462.199837 812.300058 " stroke="#9b2828" stroke-width="3.828" stroke-opacity="1" stroke-miterlimit="10"/></g><g clip-path="url(#448897bbe7)"><path stroke-linecap="butt" transform="matrix(7.44225, 0, 0, 7.442247, -2219.490255, -5332.310681)" fill="none" stroke-linejoin="miter" d="M 415.700121 878.299946 L 415.100189 877.700014 " stroke="#9b2828" stroke-width="3.828" stroke-opacity="1" stroke-miterlimit="10"/></g><g clip-path="url(#adc90462e4)"><path stroke-linecap="butt" transform="matrix(7.44225, 0, 0, 7.442247, -2219.490255, -5332.310681)" fill="none" stroke-linejoin="miter" d="M 392.999808 855.200195 L 404.299839 866.700207 " stroke="#9b2828" stroke-width="3.828" stroke-opacity="1" stroke-miterlimit="10"/></g><g clip-path="url(#2df6b74305)"><path stroke-linecap="butt" transform="matrix(7.44225, 0, 0, 7.442247, -2219.490255, -5332.310681)" fill="none" stroke-linejoin="miter" d="M 392.999808 855.200195 L 380.200209 842.299816 " stroke="#9b2828" stroke-width="3.828" stroke-opacity="1" stroke-miterlimit="10"/></g><g clip-path="url(#ecf6395d46)"><path stroke-linecap="butt" transform="matrix(7.44225, 0, 0, 7.442247, -2219.490255, -5332.310681)" fill="none" stroke-linejoin="miter" d="M 343.29993 804.800118 L 355.199893 816.900063 " stroke="#9b2828" stroke-width="3.828" stroke-opacity="1" stroke-miterlimit="10"/></g><g clip-path="url(#ff7006d0a9)"><path stroke-linecap="butt" transform="matrix(7.44225, 0, 0, 7.442247, -2219.490255, -5332.310681)" fill="none" stroke-linejoin="miter" d="M 404.299839 866.700207 L 415.100189 877.700014 " stroke="#9b2828" stroke-width="3.828" stroke-opacity="1" stroke-miterlimit="10"/></g><g clip-path="url(#76e61fa3e9)"><path stroke-linecap="butt" transform="matrix(7.44225, 0, 0, 7.442247, -2219.490255, -5332.310681)" fill="none" stroke-linejoin="miter" d="M 367.80004 829.700191 L 355.199893 816.900063 " stroke="#9b2828" stroke-width="3.828" stroke-opacity="1" stroke-miterlimit="10"/></g><g clip-path="url(#89db178e2d)"><path stroke-linecap="butt" transform="matrix(7.44225, 0, 0, 7.442247, -2219.490255, -5332.310681)" fill="none" stroke-linejoin="miter" d="M 333.199763 794.49997 L 343.29993 804.800118 " stroke="#9b2828" stroke-width="3.828" stroke-opacity="1" stroke-miterlimit="10"/></g><g clip-path="url(#521797e19d)"><path stroke-linecap="butt" transform="matrix(7.44225, 0, 0, 7.442247, -2219.490255, -5332.310681)" fill="none" stroke-linejoin="miter" d="M 367.80004 829.700191 L 380.200209 842.299816 " stroke="#9b2828" stroke-width="3.828" stroke-opacity="1" stroke-miterlimit="10"/></g><g clip-path="url(#bc8f8d5bde)"><path stroke-linecap="butt" transform="matrix(7.44225, 0, 0, 7.442247, -2219.490255, -5332.310681)" fill="none" stroke-linejoin="miter" d="M 343.000227 829.199985 L 336.599902 822.800183 " stroke="#9b2828" stroke-width="3.828" stroke-opacity="1" stroke-miterlimit="10"/></g><g clip-path="url(#393546425e)"><path stroke-linecap="butt" transform="matrix(7.44225, 0, 0, 7.442247, -2219.490255, -5332.310681)" fill="none" stroke-linejoin="miter" d="M 368.599949 854.899967 L 355.900076 842.20009 " stroke="#9b2828" stroke-width="3.828" stroke-opacity="1" stroke-miterlimit="10"/></g><g clip-path="url(#780d170a98)"><path stroke-linecap="butt" transform="matrix(7.44225, 0, 0, 7.442247, -2219.490255, -5332.310681)" fill="none" stroke-linejoin="miter" d="M 391.999921 878.299946 L 381.899754 868.199775 " stroke="#9b2828" stroke-width="3.828" stroke-opacity="1" stroke-miterlimit="10"/></g><g clip-path="url(#ed88335d72)"><path stroke-linecap="butt" transform="matrix(7.44225, 0, 0, 7.442247, -2219.490255, -5332.310681)" fill="none" stroke-linejoin="miter" d="M 368.599949 854.899967 L 381.899754 868.199775 " stroke="#9b2828" stroke-width="3.828" stroke-opacity="1" stroke-miterlimit="10"/></g><g clip-path="url(#ba17adb7fc)"><path stroke-linecap="butt" transform="matrix(7.44225, 0, 0, 7.442247, -2219.490255, -5332.310681)" fill="none" stroke-linejoin="miter" d="M 343.000227 829.199985 L 355.900076 842.20009 " stroke="#9b2828" stroke-width="3.828" stroke-opacity="1" stroke-miterlimit="10"/></g><g clip-path="url(#a0eedc0bd2)"><path stroke-linecap="butt" transform="matrix(7.44225, 0, 0, 7.442247, -2219.490255, -5332.310681)" fill="none" stroke-linejoin="miter" d="M 367.600062 878.299946 L 356.500008 868.199775 " stroke="#9b2828" stroke-width="3.828" stroke-opacity="1" stroke-miterlimit="10"/></g><g clip-path="url(#ff15faed91)"><path stroke-linecap="butt" transform="matrix(7.44225, 0, 0, 7.442247, -2219.490255, -5332.310681)" fill="none" stroke-linejoin="miter" d="M 342.899975 855.800127 L 342.300043 855.200195 " stroke="#9b2828" stroke-width="3.828" stroke-opacity="1" stroke-miterlimit="10"/></g><g clip-path="url(#5165a1e93c)"><path stroke-linecap="butt" transform="matrix(7.44225, 0, 0, 7.442247, -2219.490255, -5332.310681)" fill="none" stroke-linejoin="miter" d="M 342.899975 855.800127 L 356.500008 868.199775 " stroke="#9b2828" stroke-width="3.828" stroke-opacity="1" stroke-miterlimit="10"/></g><g clip-path="url(#8c87e53744)"><path stroke-linecap="butt" transform="matrix(7.44225, 0, 0, 7.442247, -2219.490255, -5332.310681)" fill="none" stroke-linejoin="miter" d="M 449.400238 866.09975 L 438.900116 877.500037 " stroke="#9b2828" stroke-width="3.828" stroke-opacity="1" stroke-miterlimit="10"/></g><g clip-path="url(#9559d38a17)"><path stroke-linecap="butt" transform="matrix(7.44225, 0, 0, 7.442247, -2219.490255, -5332.310681)" fill="none" stroke-linejoin="miter" d="M 452.900104 861.000064 L 449.400238 866.09975 " stroke="#9b2828" stroke-width="3.691" stroke-opacity="1" stroke-miterlimit="10"/></g></svg>