<svg xmlns="http://www.w3.org/2000/svg" xmlns:xlink="http://www.w3.org/1999/xlink" width="2000" zoomAndPan="magnify" viewBox="0 0 1500 1499.999933" height="2000" preserveAspectRatio="xMidYMid meet" version="1.0"><defs><clipPath id="b3350d91f8"><path d="M 80.347656 465 L 729 465 L 729 1281.304688 L 80.347656 1281.304688 Z M 80.347656 465 " clip-rule="nonzero"/></clipPath><clipPath id="07228601c1"><path d="M 80.347656 497 L 729 497 L 729 1215 L 80.347656 1215 Z M 80.347656 497 " clip-rule="nonzero"/></clipPath><clipPath id="3f04c229ae"><path d="M 616 465 L 1419.847656 465 L 1419.847656 1281.304688 L 616 1281.304688 Z M 616 465 " clip-rule="nonzero"/></clipPath><clipPath id="9d1bfa6d73"><path d="M 361 218.554688 L 1111 218.554688 L 1111 821 L 361 821 Z M 361 218.554688 " clip-rule="nonzero"/></clipPath><clipPath id="22e85b1e53"><path d="M 449 218.554688 L 1419.847656 218.554688 L 1419.847656 1212 L 449 1212 Z M 449 218.554688 " clip-rule="nonzero"/></clipPath><clipPath id="57a7885b5e"><path d="M 997 545 L 1419.847656 545 L 1419.847656 1212 L 997 1212 Z M 997 545 " clip-rule="nonzero"/></clipPath><clipPath id="554b6c05c0"><path d="M 884 559 L 1419.847656 559 L 1419.847656 1212 L 884 1212 Z M 884 559 " clip-rule="nonzero"/></clipPath><clipPath id="98e5a9f5d3"><path d="M 574 232 L 1419.847656 232 L 1419.847656 922 L 574 922 Z M 574 232 " clip-rule="nonzero"/></clipPath></defs><path stroke-linecap="butt" transform="matrix(6.856499, 0, 0, 6.856499, -3386.597723, -4884.747679)" fill="none" stroke-linejoin="miter" d="M 607.30016 842.09984 C 607.30016 842.381849 607.286487 842.662718 607.258571 842.943018 C 607.231225 843.223318 607.189636 843.501338 607.134943 843.77765 C 607.079681 844.053962 607.011315 844.326855 606.929846 844.596331 C 606.847807 844.865806 606.753234 845.130723 606.645558 845.391083 C 606.537312 845.651443 606.417102 845.905535 606.284359 846.153931 C 606.151615 846.402327 606.006908 846.643886 605.850806 846.878039 C 605.694134 847.112192 605.526638 847.337799 605.347747 847.556 C 605.169427 847.773631 604.980281 847.982146 604.780881 848.180977 C 604.582051 848.380377 604.373535 848.568953 604.155904 848.747843 C 603.938273 848.926734 603.712096 849.09423 603.477943 849.250332 C 603.24379 849.407003 603.002231 849.551711 602.753835 849.684455 C 602.50544 849.817198 602.251347 849.937408 601.990987 850.045084 C 601.730627 850.15333 601.46628 850.247903 601.196235 850.329372 C 600.92676 850.411411 600.653866 850.479777 600.377555 850.534469 C 600.101812 850.589732 599.823222 850.630751 599.542922 850.658667 C 599.262622 850.686013 598.981753 850.700256 598.700314 850.700256 C 598.418305 850.700256 598.137435 850.686013 597.857136 850.658667 C 597.576836 850.630751 597.298245 850.589732 597.022503 850.534469 C 596.746192 850.479777 596.473298 850.411411 596.203823 850.329942 C 595.933778 850.247903 595.668861 850.15333 595.409071 850.045084 C 595.148711 849.937408 594.894618 849.817198 594.646222 849.684455 C 594.397827 849.551711 594.156268 849.407003 593.922115 849.250332 C 593.687962 849.09423 593.461785 848.926734 593.244154 848.747843 C 593.026523 848.569522 592.818007 848.380377 592.619177 848.180977 C 592.419777 847.982146 592.230631 847.773631 592.05231 847.556 C 591.87342 847.337799 591.705924 847.112192 591.549252 846.877469 C 591.39315 846.643316 591.248443 846.402327 591.115699 846.153931 C 590.982386 845.905535 590.862176 845.650873 590.7545 845.391083 C 590.646824 845.130723 590.552251 844.865806 590.470212 844.596331 C 590.388743 844.326855 590.320377 844.053962 590.265115 843.77765 C 590.210422 843.501338 590.168833 843.223318 590.141487 842.943018 C 590.11414 842.662718 590.099897 842.381849 590.099897 842.09984 C 590.099897 841.818401 590.11414 841.537531 590.141487 841.257231 C 590.168833 840.976932 590.210422 840.698341 590.265115 840.422029 C 590.320377 840.145718 590.388743 839.872824 590.470212 839.603349 C 590.552251 839.333874 590.646824 839.068956 590.7545 838.808597 C 590.862176 838.548807 590.982386 838.294144 591.115699 838.045748 C 591.248443 837.797353 591.39315 837.556363 591.549252 837.32221 C 591.705924 837.088058 591.87342 836.861881 592.05231 836.64425 C 592.230631 836.426619 592.419777 836.218103 592.619177 836.018703 C 592.818007 835.819872 593.026523 835.630727 593.244154 835.451836 C 593.461785 835.273516 593.687962 835.106019 593.922115 834.949348 C 594.156268 834.792676 594.397827 834.647969 594.646222 834.515225 C 594.894618 834.382482 595.148711 834.262272 595.409071 834.154596 C 595.668861 834.046919 595.933778 833.951777 596.203823 833.870308 C 596.473298 833.788269 596.746192 833.719903 597.022503 833.66521 C 597.298245 833.610518 597.576836 833.568929 597.857136 833.541582 C 598.137435 833.513666 598.418305 833.499993 598.700314 833.499993 C 598.981753 833.499993 599.262622 833.513666 599.542922 833.541582 C 599.823222 833.568929 600.101812 833.610518 600.377555 833.66521 C 600.653866 833.719903 600.92676 833.788269 601.196235 833.870308 C 601.46628 833.951777 601.730627 834.046919 601.990987 834.154596 C 602.251347 834.262272 602.50544 834.382482 602.753835 834.515225 C 603.002231 834.647969 603.24379 834.792676 603.477943 834.949348 C 603.712096 835.106019 603.938273 835.273516 604.155904 835.451836 C 604.373535 835.630727 604.582051 835.819872 604.780881 836.018703 C 604.980281 836.218103 605.169427 836.426619 605.347747 836.64425 C 605.526638 836.861881 605.694134 837.088058 605.850806 837.32221 C 606.006908 837.556363 606.151615 837.797353 606.284359 838.045748 C 606.417102 838.294144 606.537312 838.548807 606.645558 838.808597 C 606.753234 839.068956 606.847807 839.333874 606.929846 839.603349 C 607.011315 839.872824 607.079681 840.145718 607.134943 840.422029 C 607.189636 840.698341 607.231225 840.976932 607.258571 841.257231 C 607.286487 841.537531 607.30016 841.818401 607.30016 842.09984 Z M 607.30016 842.09984 " stroke="#9b2828" stroke-width="3.36" stroke-opacity="1" stroke-miterlimit="10"/><path stroke-linecap="butt" transform="matrix(6.856499, 0, 0, 6.856499, -3386.597723, -4884.747679)" fill="none" stroke-linejoin="miter" d="M 568.400026 812.799971 C 564.299788 816.90021 560.200119 820.999878 556.200151 825.100116 " stroke="#9b2828" stroke-width="3.36" stroke-opacity="1" stroke-miterlimit="10"/><path fill="#9b2828" d="M 402.988281 889.109375 C 402.988281 943.277344 359.109375 987.15625 304.941406 987.15625 C 250.773438 987.15625 206.894531 943.277344 206.894531 889.109375 C 206.894531 834.945312 250.777344 791.0625 304.941406 791.0625 C 333.738281 791.0625 359.792969 803.402344 377.621094 823.289062 C 394.078125 806.832031 410.53125 789.691406 427.671875 773.234375 C 411.21875 789.691406 394.761719 806.832031 377.621094 823.289062 C 393.390625 840.429688 402.988281 863.742188 402.988281 889.109375 L 474.984375 889.109375 C 474.984375 795.175781 398.875 719.070312 304.941406 719.070312 C 211.007812 719.070312 134.902344 795.175781 134.902344 889.109375 C 134.902344 983.042969 211.007812 1059.152344 304.941406 1059.152344 C 398.875 1059.152344 474.984375 983.042969 474.984375 889.109375 Z M 402.988281 889.109375 " fill-opacity="1" fill-rule="nonzero"/><g clip-path="url(#b3350d91f8)"><path stroke-linecap="butt" transform="matrix(6.856499, 0, 0, 6.856499, -3386.597723, -4884.747679)" fill="none" stroke-linejoin="miter" d="M 548.899824 832.500143 C 546.300214 829.599725 542.500216 827.799995 538.300278 827.799995 C 530.400041 827.799995 523.999863 834.200173 523.999863 842.09984 C 523.999863 850.000077 530.400041 856.399684 538.300278 856.399684 C 546.199945 856.399684 552.600122 850.000077 552.600122 842.09984 L 539.300127 842.09984 C 542.599916 838.899751 545.800005 835.700232 548.899824 832.500143 Z M 548.899824 832.500143 " stroke="#9b2828" stroke-width="3.36" stroke-opacity="1" stroke-miterlimit="10"/></g><g clip-path="url(#07228601c1)"><path stroke-linecap="butt" transform="matrix(6.856499, 0, 0, 6.856499, -3386.597723, -4884.747679)" fill="none" stroke-linejoin="miter" d="M 539.399827 842.09984 L 552.699822 842.09984 C 552.699822 838.400111 551.300033 835.000052 549.000093 832.500143 C 545.800005 835.700232 542.599916 838.899751 539.399827 842.09984 Z M 539.399827 842.09984 " stroke="#9b2828" stroke-width="3.36" stroke-opacity="1" stroke-miterlimit="10"/></g><path stroke-linecap="butt" transform="matrix(6.856499, 0, 0, 6.856499, -3386.597723, -4884.747679)" fill="none" stroke-linejoin="miter" d="M 563.200238 842.09984 L 590.099897 842.09984 " stroke="#9b2828" stroke-width="3.36" stroke-opacity="1" stroke-miterlimit="10"/><path stroke-linecap="butt" transform="matrix(6.856499, 0, 0, 6.856499, -3386.597723, -4884.747679)" fill="none" stroke-linejoin="miter" d="M 607.30016 842.09984 L 620.800125 842.09984 " stroke="#9b2828" stroke-width="3.36" stroke-opacity="1" stroke-miterlimit="10"/><path fill="#9b2828" d="M 962.480469 829.460938 L 905.570312 785.578125 C 883.628906 814.375 869.917969 850.027344 869.917969 889.109375 L 941.910156 889.109375 C 941.910156 866.484375 949.453125 845.914062 962.480469 829.460938 Z M 962.480469 829.460938 " fill-opacity="1" fill-rule="nonzero"/><path fill="#9b2828" d="M 1039.957031 719.070312 C 985.105469 719.070312 936.425781 745.125 905.570312 785.578125 L 962.480469 829.460938 C 980.304688 806.148438 1008.417969 791.0625 1039.957031 791.0625 C 1094.125 791.0625 1138.007812 834.945312 1138.007812 889.109375 C 1138.007812 943.277344 1094.125 987.160156 1039.957031 987.160156 C 985.792969 987.160156 941.910156 943.277344 941.910156 889.109375 L 869.917969 889.109375 C 869.917969 983.042969 946.023438 1059.152344 1039.957031 1059.152344 C 1133.890625 1059.152344 1210 983.042969 1210 889.109375 C 1210 795.175781 1133.890625 719.070312 1039.957031 719.070312 Z M 1039.957031 719.070312 " fill-opacity="1" fill-rule="nonzero"/><path stroke-linecap="butt" transform="matrix(6.856499, 0, 0, 6.856499, -3386.597723, -4884.747679)" fill="none" stroke-linejoin="miter" d="M 645.599816 842.09984 L 634.30009 833.399723 C 632.400091 835.799932 631.299971 838.800051 631.299971 842.09984 Z M 645.599816 842.09984 " stroke="#9b2828" stroke-width="3.36" stroke-opacity="1" stroke-miterlimit="10"/><g clip-path="url(#3f04c229ae)"><path stroke-linecap="butt" transform="matrix(6.856499, 0, 0, 6.856499, -3386.597723, -4884.747679)" fill="none" stroke-linejoin="miter" d="M 631.299971 842.09984 C 631.299971 850.000077 637.700149 856.399684 645.599816 856.399684 C 653.500052 856.399684 659.90023 850.000077 659.90023 842.09984 C 659.90023 834.200173 653.500052 827.799995 645.599816 827.799995 C 640.999937 827.799995 636.899699 830.000234 634.30009 833.399723 L 645.599816 842.09984 Z M 631.299971 842.09984 " stroke="#9b2828" stroke-width="3.36" stroke-opacity="1" stroke-miterlimit="10"/></g><path stroke-linecap="butt" transform="matrix(6.856499, 0, 0, 6.856499, -3386.597723, -4884.747679)" fill="none" stroke-linejoin="miter" d="M 593.100016 835.599962 L 568.400026 812.799971 " stroke="#9b2828" stroke-width="3.36" stroke-opacity="1" stroke-miterlimit="10"/><path stroke-linecap="butt" transform="matrix(6.856499, 0, 0, 6.856499, -3386.597723, -4884.747679)" fill="none" stroke-linejoin="miter" d="M 568.400026 798.500127 L 568.400026 812.799971 " stroke="#9b2828" stroke-width="3.36" stroke-opacity="1" stroke-miterlimit="10"/><path fill="#9b2828" d="M 448.242188 524.34375 C 461.957031 520.230469 476.355469 522.972656 490.753906 526.402344 C 504.464844 529.828125 518.179688 534.628906 532.578125 535.316406 C 543.546875 536 554.519531 533.945312 564.804688 533.257812 C 575.773438 532.574219 586.742188 533.945312 596.34375 540.113281 C 605.257812 546.285156 611.425781 557.941406 608 568.226562 C 605.257812 575.082031 599.085938 580.566406 592.230469 583.3125 C 585.371094 586.054688 577.832031 586.738281 570.289062 586.738281 C 538.0625 588.796875 505.152344 591.539062 472.925781 593.59375 C 461.957031 594.28125 449.613281 594.964844 440.015625 588.796875 C 413.273438 572.339844 418.757812 532.574219 448.242188 524.34375 Z M 448.242188 524.34375 " fill-opacity="1" fill-rule="nonzero"/><g clip-path="url(#9d1bfa6d73)"><path stroke-linecap="butt" transform="matrix(6.856499, 0, 0, 6.856499, -3386.597723, -4884.747679)" fill="none" stroke-linejoin="miter" d="M 594.200136 778.999925 C 596.500075 777.600135 601.600163 778.200045 603.399892 779.399864 C 605.400161 780.699954 607.100191 782.500253 608.30001 784.600222 " stroke="#9b2828" stroke-width="3.36" stroke-opacity="1" stroke-miterlimit="10"/></g><g clip-path="url(#22e85b1e53)"><path stroke-linecap="butt" transform="matrix(6.856499, 0, 0, 6.856499, -3386.597723, -4884.747679)" fill="none" stroke-linejoin="miter" d="M 686.999859 841.6002 C 685.20013 841.40023 683.500101 840.30011 682.399981 838.899751 C 681.299861 837.499962 680.499982 835.799932 679.799802 834.099903 C 678.000073 829.699995 676.399743 825.199816 674.099804 821.100148 C 671.799865 816.99991 668.399807 813.599851 664.399838 811.200212 C 658.89981 807.899853 652.300233 806.399794 645.999755 807.099974 C 643.200176 807.400213 640.400028 808.000123 637.599879 808.099823 C 634.79973 808.200093 631.800181 807.499913 629.799912 805.500214 C 627.899912 803.600215 627.100033 800.899766 626.500123 798.199887 C 624.099914 788.600191 621.700275 779.100194 619.399766 769.499928 C 618.799856 767.099719 618.199946 764.70008 616.600187 762.800081 C 614.999858 760.900082 612.299979 759.799962 610.100309 760.799812 C 608.60025 761.499991 607.7001 763.000051 607.30016 764.59981 C 606.900221 766.20014 606.999921 767.799899 607.100191 769.499928 C 607.7001 778.799955 608.30001 788.200251 610.300279 797.400007 C 612.299979 806.500064 615.800307 815.49985 621.700275 822.800177 C 622.999794 824.500207 624.299884 825.800296 626.100183 827.099816 " stroke="#9b2828" stroke-width="3.36" stroke-opacity="1" stroke-miterlimit="10"/></g><g clip-path="url(#57a7885b5e)"><path stroke-linecap="butt" transform="matrix(6.856499, 0, 0, 6.856499, -3386.597723, -4884.747679)" fill="none" stroke-linejoin="miter" d="M 697.200035 839.500231 C 696.299886 842.00014 692.899827 841.6002 690.199948 841.6002 C 689.099828 841.6002 688.000279 841.6002 686.900159 841.6002 " stroke="#9b2828" stroke-width="3.36" stroke-opacity="1" stroke-miterlimit="10"/></g><g clip-path="url(#554b6c05c0)"><path stroke-linecap="butt" transform="matrix(6.856499, 0, 0, 6.856499, -3386.597723, -4884.747679)" fill="none" stroke-linejoin="miter" d="M 686.999859 841.6002 C 685.4001 841.6002 683.799771 841.6002 682.099741 841.6002 C 678.200043 841.6002 674.299774 841.6002 670.400076 841.6002 " stroke="#9b2828" stroke-width="3.36" stroke-opacity="1" stroke-miterlimit="10"/></g><path stroke-linecap="butt" transform="matrix(6.856499, 0, 0, 6.856499, -3386.597723, -4884.747679)" fill="none" stroke-linejoin="miter" d="M 637.900118 808.400063 L 637.900118 818.899909 " stroke="#9b2828" stroke-width="3.36" stroke-opacity="1" stroke-miterlimit="10"/><g clip-path="url(#98e5a9f5d3)"><path stroke-linecap="butt" transform="matrix(6.856499, 0, 0, 6.856499, -3386.597723, -4884.747679)" fill="none" stroke-linejoin="miter" d="M 625.200033 793.799979 L 659.90023 793.799979 C 664.300138 793.799979 668.500076 795.599708 670.900285 799.300007 " stroke="#9b2828" stroke-width="3.36" stroke-opacity="1" stroke-miterlimit="10"/></g><path stroke-linecap="butt" transform="matrix(6.856499, 0, 0, 6.856499, -3386.597723, -4884.747679)" fill="none" stroke-linejoin="miter" d="M 658.80011 794.300188 L 658.80011 808.600033 " stroke="#9b2828" stroke-width="3.36" stroke-opacity="1" stroke-miterlimit="10"/></svg>