<svg xmlns="http://www.w3.org/2000/svg" xmlns:xlink="http://www.w3.org/1999/xlink" width="2000" zoomAndPan="magnify" viewBox="0 0 1500 1499.999933" height="2000" preserveAspectRatio="xMidYMid meet" version="1.0"><path fill="#9b2828" d="M 709.992188 312.140625 C 481.722656 312.140625 296.71875 497.148438 296.71875 725.417969 C 296.71875 872.566406 373.566406 1001.503906 489.40625 1074.9375 C 496.238281 1079.207031 503.070312 1083.476562 510.1875 1087.175781 C 513.316406 1088.882812 516.449219 1090.589844 519.578125 1092.296875 C 590.734375 1132.429688 638.550781 1208.710938 638.550781 1296.375 C 638.550781 1297.796875 638.550781 1299.21875 638.550781 1300.359375 C 638.835938 1300.359375 638.835938 1300.359375 639.121094 1300.359375 C 639.40625 1300.359375 639.691406 1300.359375 640.257812 1300.359375 C 644.527344 1242.582031 659.898438 1187.648438 684.089844 1137.839844 C 691.777344 1121.898438 700.597656 1106.53125 710.277344 1091.730469 C 725.363281 1068.675781 742.441406 1046.757812 761.226562 1026.835938 C 744.714844 1029.679688 727.640625 1031.105469 710.277344 1031.105469 C 541.496094 1031.105469 404.589844 894.199219 404.589844 725.417969 C 404.589844 556.632812 541.496094 419.730469 710.277344 419.730469 C 879.058594 419.730469 1015.964844 556.632812 1015.964844 725.417969 C 1015.964844 793.15625 994.046875 855.773438 956.761719 906.4375 C 938.261719 931.484375 916.34375 953.402344 891.296875 971.902344 C 881.621094 977.878906 871.945312 984.140625 862.550781 990.6875 C 808.1875 1029.394531 762.648438 1079.773438 729.917969 1138.121094 C 722.800781 1150.929688 716.253906 1164.023438 710.277344 1177.402344 C 690.921875 1221.519531 678.398438 1269.050781 674.128906 1319.144531 C 672.992188 1332.238281 672.421875 1345.328125 672.421875 1358.707031 C 672.421875 1364.96875 672.707031 1370.945312 672.707031 1377.207031 C 685.230469 1376.636719 697.753906 1376.070312 710.277344 1376.070312 C 732.476562 1376.070312 754.394531 1377.207031 776.023438 1379.199219 C 780.292969 1251.972656 844.050781 1139.832031 939.96875 1069.527344 L 937.976562 1070.097656 C 998.316406 1030.25 1047.558594 974.746094 1080.289062 909.570312 C 1083.988281 902.453125 1087.40625 895.054688 1090.535156 887.652344 C 1111.882812 837.84375 1123.550781 782.910156 1123.550781 725.417969 C 1123.269531 497.148438 938.261719 312.140625 709.992188 312.140625 Z M 709.992188 312.140625 " fill-opacity="1" fill-rule="nonzero"/><path fill="#9b2828" d="M 519.863281 1092.011719 C 516.730469 1090.304688 513.601562 1088.597656 510.46875 1086.890625 " fill-opacity="1" fill-rule="nonzero"/><path fill="#110b79" d="M 880.765625 490.316406 C 850.027344 473.523438 820.996094 455.59375 793.671875 436.808594 C 823.273438 456.445312 854.296875 475.515625 887.027344 493.730469 C 885.035156 492.59375 883.042969 491.453125 880.765625 490.316406 Z M 880.765625 490.316406 " fill-opacity="1" fill-rule="nonzero"/><path fill="#ffffff" d="M 887.3125 493.730469 C 1034.464844 573.425781 1181.617188 609.289062 1283.226562 597.621094 L 1301.441406 634.335938 C 1190.4375 626.652344 1043.289062 579.402344 894.714844 497.714844 C 892.152344 496.578125 889.589844 495.15625 887.3125 493.730469 Z M 887.3125 493.730469 " fill-opacity="1" fill-rule="nonzero"/><path fill="#ffffff" d="M 1228.011719 487.183594 C 1130.097656 472.386719 1018.242188 434.246094 907.808594 373.335938 C 903.253906 370.773438 898.984375 368.496094 894.429688 365.933594 C 1009.417969 427.128906 1124.691406 460.429688 1216.339844 463.5625 Z M 1228.011719 487.183594 " fill-opacity="1" fill-rule="nonzero"/><path fill="#9b2828" d="M 793.671875 436.808594 C 823.273438 456.445312 854.296875 475.515625 887.027344 493.730469 C 885.035156 492.59375 882.757812 491.453125 880.765625 490.316406 C 850.027344 473.523438 820.996094 455.59375 793.671875 436.808594 Z M 793.671875 436.808594 " fill-opacity="1" fill-rule="nonzero"/><path fill="#9b2828" d="M 528.6875 175.238281 C 571.09375 256.640625 666.160156 351.703125 793.671875 436.808594 C 820.996094 455.59375 850.027344 473.523438 880.765625 490.316406 C 882.757812 491.453125 885.035156 492.59375 887.027344 493.730469 C 889.589844 495.15625 891.867188 496.578125 894.429688 497.714844 C 1043.003906 579.402344 1190.15625 626.652344 1301.15625 634.335938 L 1382.277344 797.140625 C 1218.046875 777.503906 1005.71875 704.921875 790.539062 586.234375 C 575.363281 467.832031 400.320312 327.226562 295.863281 199.144531 Z M 528.6875 175.238281 " fill-opacity="1" fill-rule="nonzero"/><path fill="#9b2828" d="M 793.671875 436.808594 C 665.875 351.703125 570.8125 256.640625 528.6875 175.238281 L 560.5625 171.820312 C 585.609375 254.363281 671 352.84375 793.671875 436.808594 Z M 793.671875 436.808594 " fill-opacity="1" fill-rule="nonzero"/><path fill="#9b2828" d="M 560.5625 172.105469 L 638.265625 164.136719 C 693.769531 233.015625 778.585938 302.75 881.90625 359.671875 C 885.890625 361.949219 890.160156 364.226562 894.144531 366.21875 C 898.414062 368.78125 902.96875 371.34375 907.523438 373.621094 C 1018.242188 434.53125 1129.8125 472.667969 1227.726562 487.46875 L 1282.65625 597.90625 C 1181.332031 609.574219 1033.894531 573.425781 886.746094 494.015625 C 854.011719 475.800781 822.703125 456.730469 793.386719 437.089844 C 671 352.84375 585.609375 254.363281 560.5625 172.105469 Z M 560.5625 172.105469 " fill-opacity="1" fill-rule="nonzero"/><path fill="#9b2828" d="M 638.265625 164.136719 L 640.257812 163.851562 C 702.308594 235.578125 789.6875 306.734375 894.429688 366.21875 C 890.445312 363.941406 886.175781 361.949219 882.191406 359.671875 C 778.585938 302.464844 694.054688 232.730469 638.265625 164.136719 Z M 638.265625 164.136719 " fill-opacity="1" fill-rule="nonzero"/><path fill="#9b2828" d="M 1046.132812 122.011719 L 1216.339844 463.847656 C 1124.691406 460.714844 1009.417969 427.414062 894.429688 366.21875 C 789.6875 306.734375 702.59375 235.863281 640.257812 163.851562 Z M 1046.132812 122.011719 " fill-opacity="1" fill-rule="nonzero"/><path fill="#9b2828" d="M 566.824219 677.882812 C 566.824219 679.542969 566.769531 681.199219 566.65625 682.851562 C 566.542969 684.5 566.375 686.140625 566.148438 687.769531 C 565.921875 689.394531 565.640625 691.003906 565.304688 692.589844 C 564.972656 694.179688 564.582031 695.738281 564.140625 697.273438 C 563.695312 698.804688 563.203125 700.304688 562.660156 701.765625 C 562.113281 703.230469 561.519531 704.652344 560.878906 706.03125 C 560.234375 707.410156 559.546875 708.742188 558.816406 710.023438 C 558.082031 711.308594 557.304688 712.535156 556.488281 713.707031 C 555.671875 714.882812 554.816406 715.996094 553.921875 717.046875 C 553.027344 718.101562 552.101562 719.085938 551.140625 720.007812 C 550.179688 720.929688 549.1875 721.78125 548.167969 722.566406 C 547.148438 723.347656 546.105469 724.054688 545.039062 724.691406 C 543.96875 725.324219 542.882812 725.882812 541.777344 726.367188 C 540.671875 726.847656 539.550781 727.25 538.417969 727.574219 C 537.285156 727.898438 536.140625 728.140625 534.992188 728.304688 C 533.839844 728.464844 532.6875 728.546875 531.53125 728.546875 C 530.375 728.546875 529.222656 728.464844 528.074219 728.304688 C 526.921875 728.140625 525.78125 727.898438 524.648438 727.574219 C 523.511719 727.25 522.394531 726.847656 521.289062 726.367188 C 520.179688 725.882812 519.09375 725.324219 518.027344 724.691406 C 516.957031 724.054688 515.914062 723.347656 514.894531 722.566406 C 513.875 721.78125 512.886719 720.929688 511.925781 720.007812 C 510.964844 719.085938 510.035156 718.101562 509.140625 717.046875 C 508.25 715.996094 507.394531 714.882812 506.574219 713.707031 C 505.757812 712.535156 504.984375 711.308594 504.25 710.023438 C 503.515625 708.742188 502.828125 707.410156 502.1875 706.03125 C 501.542969 704.652344 500.949219 703.230469 500.40625 701.765625 C 499.863281 700.304688 499.367188 698.804688 498.925781 697.273438 C 498.484375 695.738281 498.09375 694.179688 497.757812 692.589844 C 497.421875 691.003906 497.140625 689.394531 496.917969 687.769531 C 496.691406 686.140625 496.523438 684.5 496.410156 682.851562 C 496.296875 681.199219 496.238281 679.542969 496.238281 677.882812 C 496.238281 676.226562 496.296875 674.570312 496.410156 672.917969 C 496.523438 671.265625 496.691406 669.628906 496.917969 668 C 497.144531 666.371094 497.421875 664.765625 497.757812 663.175781 C 498.09375 661.589844 498.484375 660.027344 498.925781 658.496094 C 499.367188 656.964844 499.863281 655.464844 500.40625 654 C 500.953125 652.539062 501.542969 651.117188 502.1875 649.738281 C 502.828125 648.359375 503.515625 647.027344 504.25 645.742188 C 504.984375 644.460938 505.757812 643.234375 506.574219 642.058594 C 507.394531 640.886719 508.25 639.773438 509.140625 638.722656 C 510.035156 637.667969 510.964844 636.679688 511.925781 635.757812 C 512.886719 634.835938 513.875 633.984375 514.894531 633.203125 C 515.914062 632.421875 516.957031 631.710938 518.027344 631.078125 C 519.09375 630.441406 520.179688 629.882812 521.289062 629.402344 C 522.394531 628.921875 523.511719 628.519531 524.648438 628.195312 C 525.78125 627.871094 526.921875 627.628906 528.074219 627.464844 C 529.222656 627.300781 530.375 627.222656 531.53125 627.222656 C 532.6875 627.222656 533.839844 627.300781 534.992188 627.464844 C 536.140625 627.628906 537.285156 627.871094 538.417969 628.195312 C 539.550781 628.519531 540.671875 628.921875 541.777344 629.402344 C 542.882812 629.882812 543.96875 630.441406 545.039062 631.078125 C 546.105469 631.710938 547.148438 632.421875 548.167969 633.203125 C 549.1875 633.984375 550.179688 634.835938 551.140625 635.757812 C 552.101562 636.679688 553.027344 637.667969 553.921875 638.722656 C 554.816406 639.773438 555.671875 640.886719 556.488281 642.058594 C 557.304688 643.234375 558.082031 644.460938 558.816406 645.742188 C 559.546875 647.027344 560.234375 648.359375 560.878906 649.738281 C 561.519531 651.117188 562.113281 652.539062 562.660156 654 C 563.203125 655.464844 563.695312 656.964844 564.140625 658.496094 C 564.582031 660.027344 564.972656 661.589844 565.304688 663.175781 C 565.640625 664.765625 565.921875 666.371094 566.148438 668 C 566.375 669.628906 566.542969 671.265625 566.65625 672.917969 C 566.769531 674.570312 566.824219 676.226562 566.824219 677.882812 Z M 566.824219 677.882812 " fill-opacity="1" fill-rule="nonzero"/><path fill="#ffffff" d="M 552.878906 651.984375 C 552.878906 652.863281 552.792969 653.730469 552.621094 654.59375 C 552.449219 655.453125 552.195312 656.289062 551.859375 657.101562 C 551.523438 657.914062 551.113281 658.683594 550.625 659.414062 C 550.136719 660.144531 549.582031 660.820312 548.960938 661.441406 C 548.339844 662.0625 547.664062 662.617188 546.933594 663.105469 C 546.203125 663.59375 545.433594 664.007812 544.621094 664.34375 C 543.808594 664.679688 542.972656 664.933594 542.113281 665.101562 C 541.25 665.273438 540.378906 665.359375 539.5 665.359375 C 538.625 665.359375 537.753906 665.273438 536.890625 665.101562 C 536.03125 664.933594 535.195312 664.679688 534.382812 664.34375 C 533.570312 664.007812 532.800781 663.59375 532.070312 663.105469 C 531.339844 662.617188 530.664062 662.0625 530.042969 661.441406 C 529.421875 660.820312 528.867188 660.144531 528.378906 659.414062 C 527.890625 658.683594 527.480469 657.914062 527.144531 657.101562 C 526.808594 656.289062 526.554688 655.453125 526.382812 654.59375 C 526.210938 653.730469 526.125 652.863281 526.125 651.984375 C 526.125 651.105469 526.210938 650.234375 526.382812 649.375 C 526.554688 648.511719 526.804688 647.675781 527.144531 646.863281 C 527.480469 646.050781 527.890625 645.28125 528.378906 644.550781 C 528.867188 643.820312 529.421875 643.144531 530.042969 642.523438 C 530.664062 641.902344 531.339844 641.347656 532.070312 640.859375 C 532.800781 640.371094 533.570312 639.960938 534.382812 639.625 C 535.195312 639.289062 536.03125 639.035156 536.890625 638.863281 C 537.753906 638.691406 538.625 638.605469 539.5 638.605469 C 540.378906 638.605469 541.25 638.691406 542.113281 638.863281 C 542.972656 639.035156 543.808594 639.289062 544.621094 639.625 C 545.433594 639.960938 546.203125 640.371094 546.933594 640.859375 C 547.664062 641.347656 548.339844 641.902344 548.960938 642.523438 C 549.582031 643.144531 550.136719 643.820312 550.625 644.550781 C 551.113281 645.28125 551.523438 646.050781 551.859375 646.863281 C 552.195312 647.675781 552.449219 648.511719 552.621094 649.375 C 552.792969 650.234375 552.878906 651.105469 552.878906 651.984375 Z M 552.878906 651.984375 " fill-opacity="1" fill-rule="nonzero"/><path fill="#9b2828" d="M 799.933594 690.40625 C 799.933594 692.066406 799.878906 693.722656 799.765625 695.375 C 799.652344 697.023438 799.480469 698.664062 799.253906 700.292969 C 799.03125 701.917969 798.75 703.527344 798.414062 705.113281 C 798.078125 706.703125 797.6875 708.261719 797.246094 709.796875 C 796.804688 711.328125 796.3125 712.828125 795.765625 714.289062 C 795.222656 715.753906 794.628906 717.175781 793.984375 718.554688 C 793.34375 719.933594 792.65625 721.265625 791.921875 722.546875 C 791.1875 723.832031 790.414062 725.058594 789.597656 726.230469 C 788.777344 727.40625 787.921875 728.519531 787.03125 729.570312 C 786.136719 730.625 785.210938 731.609375 784.25 732.53125 C 783.289062 733.453125 782.296875 734.304688 781.277344 735.089844 C 780.257812 735.871094 779.214844 736.578125 778.148438 737.214844 C 777.078125 737.847656 775.992188 738.40625 774.886719 738.890625 C 773.78125 739.371094 772.660156 739.773438 771.527344 740.097656 C 770.390625 740.421875 769.25 740.664062 768.101562 740.828125 C 766.949219 740.988281 765.796875 741.070312 764.640625 741.070312 C 763.484375 741.070312 762.332031 740.988281 761.179688 740.828125 C 760.03125 740.664062 758.886719 740.421875 757.753906 740.097656 C 756.621094 739.773438 755.5 739.371094 754.394531 738.890625 C 753.289062 738.40625 752.203125 737.847656 751.132812 737.214844 C 750.066406 736.578125 749.023438 735.871094 748.003906 735.089844 C 746.984375 734.304688 745.992188 733.453125 745.03125 732.53125 C 744.070312 731.609375 743.144531 730.625 742.25 729.570312 C 741.355469 728.519531 740.5 727.40625 739.683594 726.230469 C 738.867188 725.058594 738.089844 723.832031 737.359375 722.546875 C 736.625 721.265625 735.9375 719.933594 735.292969 718.554688 C 734.652344 717.175781 734.058594 715.753906 733.515625 714.289062 C 732.96875 712.828125 732.476562 711.328125 732.035156 709.796875 C 731.589844 708.261719 731.203125 706.703125 730.867188 705.113281 C 730.53125 703.527344 730.25 701.917969 730.023438 700.292969 C 729.800781 698.664062 729.628906 697.023438 729.515625 695.375 C 729.402344 693.722656 729.347656 692.066406 729.347656 690.40625 C 729.347656 688.75 729.402344 687.09375 729.515625 685.441406 C 729.628906 683.789062 729.800781 682.152344 730.023438 680.523438 C 730.25 678.894531 730.53125 677.289062 730.867188 675.699219 C 731.203125 674.113281 731.589844 672.550781 732.035156 671.019531 C 732.476562 669.488281 732.96875 667.988281 733.515625 666.523438 C 734.058594 665.0625 734.652344 663.640625 735.292969 662.261719 C 735.9375 660.882812 736.625 659.550781 737.359375 658.265625 C 738.089844 656.984375 738.867188 655.757812 739.683594 654.582031 C 740.5 653.410156 741.355469 652.296875 742.25 651.246094 C 743.144531 650.191406 744.070312 649.203125 745.03125 648.28125 C 745.992188 647.359375 746.984375 646.507812 748.003906 645.726562 C 749.023438 644.945312 750.066406 644.234375 751.132812 643.601562 C 752.203125 642.964844 753.289062 642.40625 754.394531 641.925781 C 755.5 641.445312 756.621094 641.042969 757.753906 640.71875 C 758.886719 640.394531 760.03125 640.152344 761.179688 639.988281 C 762.332031 639.824219 763.484375 639.746094 764.640625 639.746094 C 765.796875 639.746094 766.949219 639.824219 768.101562 639.988281 C 769.25 640.152344 770.390625 640.394531 771.527344 640.71875 C 772.660156 641.042969 773.78125 641.445312 774.886719 641.925781 C 775.992188 642.40625 777.078125 642.964844 778.148438 643.601562 C 779.214844 644.234375 780.257812 644.945312 781.277344 645.726562 C 782.296875 646.507812 783.289062 647.359375 784.25 648.28125 C 785.210938 649.203125 786.136719 650.191406 787.03125 651.246094 C 787.921875 652.296875 788.777344 653.410156 789.597656 654.582031 C 790.414062 655.757812 791.1875 656.984375 791.921875 658.265625 C 792.65625 659.550781 793.34375 660.882812 793.984375 662.261719 C 794.628906 663.640625 795.222656 665.0625 795.765625 666.523438 C 796.3125 667.988281 796.804688 669.488281 797.246094 671.019531 C 797.691406 672.550781 798.078125 674.113281 798.414062 675.699219 C 798.75 677.289062 799.03125 678.894531 799.253906 680.523438 C 799.480469 682.152344 799.652344 683.789062 799.765625 685.441406 C 799.878906 687.09375 799.933594 688.75 799.933594 690.40625 Z M 799.933594 690.40625 " fill-opacity="1" fill-rule="nonzero"/><path fill="#ffffff" d="M 785.988281 664.507812 C 785.988281 665.386719 785.902344 666.253906 785.730469 667.117188 C 785.558594 667.976562 785.304688 668.8125 784.96875 669.625 C 784.632812 670.4375 784.21875 671.207031 783.734375 671.9375 C 783.246094 672.667969 782.691406 673.34375 782.070312 673.964844 C 781.449219 674.585938 780.773438 675.140625 780.042969 675.628906 C 779.3125 676.117188 778.539062 676.53125 777.730469 676.867188 C 776.917969 677.203125 776.082031 677.457031 775.21875 677.628906 C 774.359375 677.796875 773.488281 677.882812 772.609375 677.882812 C 771.730469 677.882812 770.863281 677.796875 770 677.628906 C 769.136719 677.457031 768.300781 677.203125 767.492188 676.867188 C 766.679688 676.53125 765.90625 676.117188 765.175781 675.628906 C 764.445312 675.140625 763.773438 674.585938 763.152344 673.964844 C 762.53125 673.34375 761.976562 672.667969 761.488281 671.9375 C 761 671.207031 760.585938 670.4375 760.25 669.625 C 759.914062 668.8125 759.660156 667.976562 759.488281 667.117188 C 759.316406 666.253906 759.230469 665.386719 759.234375 664.507812 C 759.230469 663.628906 759.316406 662.757812 759.488281 661.898438 C 759.660156 661.035156 759.914062 660.199219 760.25 659.386719 C 760.585938 658.574219 761 657.804688 761.488281 657.074219 C 761.976562 656.34375 762.53125 655.667969 763.152344 655.046875 C 763.769531 654.425781 764.445312 653.871094 765.175781 653.382812 C 765.90625 652.894531 766.679688 652.484375 767.492188 652.148438 C 768.300781 651.8125 769.136719 651.558594 770 651.386719 C 770.863281 651.214844 771.730469 651.128906 772.609375 651.128906 C 773.488281 651.128906 774.359375 651.214844 775.21875 651.386719 C 776.082031 651.558594 776.917969 651.8125 777.730469 652.148438 C 778.539062 652.484375 779.3125 652.894531 780.042969 653.382812 C 780.773438 653.871094 781.449219 654.425781 782.070312 655.046875 C 782.691406 655.667969 783.246094 656.34375 783.730469 657.074219 C 784.21875 657.804688 784.632812 658.574219 784.96875 659.386719 C 785.304688 660.199219 785.558594 661.035156 785.730469 661.898438 C 785.902344 662.757812 785.988281 663.628906 785.988281 664.507812 Z M 785.988281 664.507812 " fill-opacity="1" fill-rule="nonzero"/><path stroke-linecap="butt" transform="matrix(2.84625, 0, 0, 2.84625, -764.934285, -151.797648)" fill="none" stroke-linejoin="miter" d="M 490.300022 304.500462 C 490.300022 304.500462 475.299471 315.799596 490.300022 326.099608 " stroke="#9b2828" stroke-width="3.481" stroke-opacity="1" stroke-miterlimit="10"/></svg>