<svg xmlns="http://www.w3.org/2000/svg" xmlns:xlink="http://www.w3.org/1999/xlink" width="2000" zoomAndPan="magnify" viewBox="0 0 1500 1499.999933" height="2000" preserveAspectRatio="xMidYMid meet" version="1.0"><path fill="#110b79" d="M 1192.828125 1291.71875 C 1195.367188 1290.9375 1198.105469 1289.957031 1200.644531 1288.980469 C 1200.644531 1288.785156 1200.449219 1288.589844 1200.449219 1288.394531 C 1197.910156 1289.566406 1195.367188 1290.546875 1192.828125 1291.71875 Z M 1192.828125 1291.71875 " fill-opacity="1" fill-rule="nonzero"/><path fill="#efebe0" d="M 292.390625 1287.222656 C 293.367188 1286.246094 294.34375 1284.289062 294.929688 1281.75 C 295.515625 1279.210938 296.101562 1276.277344 296.492188 1272.953125 C 296.882812 1269.632812 297.078125 1266.113281 297.273438 1262.203125 C 297.46875 1258.296875 297.46875 1254.582031 297.667969 1251.0625 C 297.667969 1247.546875 297.667969 1244.222656 297.667969 1241.097656 C 297.667969 1238.164062 297.46875 1235.820312 297.46875 1234.058594 L 297.46875 1135.945312 C 297.46875 1134.183594 297.46875 1131.839844 297.667969 1128.90625 C 297.667969 1125.976562 297.667969 1122.652344 297.667969 1118.941406 C 297.667969 1115.421875 297.46875 1111.707031 297.273438 1107.800781 C 297.078125 1103.890625 296.882812 1100.371094 296.492188 1097.050781 C 296.101562 1093.726562 295.515625 1090.796875 294.929688 1088.253906 C 294.34375 1085.714844 293.367188 1083.953125 292.390625 1082.78125 L 335.582031 1082.78125 C 334.605469 1083.757812 333.628906 1085.714844 333.042969 1088.253906 C 332.457031 1090.796875 331.871094 1093.726562 331.480469 1097.050781 C 331.089844 1100.371094 330.894531 1103.890625 330.699219 1107.800781 C 330.5 1111.707031 330.5 1115.421875 330.304688 1118.941406 C 330.304688 1122.457031 330.304688 1125.78125 330.304688 1128.90625 C 330.304688 1131.839844 330.5 1134.183594 330.5 1135.945312 L 330.5 1258.882812 L 335.777344 1258.882812 C 340.273438 1258.882812 344.378906 1258.882812 347.898438 1258.882812 C 351.414062 1258.882812 354.542969 1258.6875 357.667969 1258.296875 C 360.796875 1257.90625 363.925781 1257.320312 367.050781 1256.339844 C 370.179688 1255.363281 373.695312 1254.191406 377.605469 1252.433594 L 377.605469 1287.027344 L 292.390625 1287.027344 Z M 292.390625 1287.222656 " fill-opacity="1" fill-rule="nonzero"/><path fill="#efebe0" d="M 554.097656 1150.601562 C 554.097656 1144.152344 554.292969 1138.679688 554.488281 1133.792969 C 554.683594 1129.101562 555.074219 1124.804688 555.660156 1121.089844 C 556.246094 1117.375 557.027344 1114.054688 558.199219 1110.925781 C 559.375 1107.800781 560.742188 1104.867188 562.695312 1101.742188 C 566.214844 1095.679688 571.296875 1090.796875 577.746094 1086.886719 C 584.195312 1082.976562 592.210938 1081.023438 601.589844 1081.023438 C 610.972656 1081.023438 618.984375 1082.976562 625.4375 1086.886719 C 631.886719 1090.796875 636.96875 1095.679688 640.484375 1101.742188 C 642.246094 1104.671875 643.808594 1107.800781 644.980469 1110.925781 C 646.152344 1114.054688 646.933594 1117.375 647.523438 1121.089844 C 648.109375 1124.804688 648.5 1129.101562 648.695312 1133.792969 C 648.890625 1138.484375 649.085938 1144.152344 649.085938 1150.601562 L 649.085938 1154.316406 L 615.664062 1154.316406 L 615.664062 1140.441406 C 615.664062 1137.3125 615.46875 1133.988281 615.273438 1130.472656 C 615.078125 1126.953125 614.492188 1123.632812 613.511719 1120.503906 C 612.535156 1117.375 611.167969 1114.835938 609.214844 1112.882812 C 607.257812 1110.925781 604.523438 1109.949219 601.003906 1109.949219 C 597.488281 1109.949219 594.75 1110.925781 592.796875 1112.882812 C 590.839844 1114.835938 589.472656 1117.375 588.496094 1120.503906 C 587.519531 1123.632812 587.128906 1126.953125 586.933594 1130.472656 C 586.738281 1133.988281 586.738281 1137.3125 586.738281 1140.441406 L 586.738281 1227.804688 C 586.738281 1230.933594 586.738281 1234.253906 586.933594 1237.773438 C 587.128906 1241.292969 587.519531 1244.613281 588.496094 1247.742188 C 589.472656 1250.867188 590.839844 1253.410156 592.796875 1255.363281 C 594.75 1257.320312 597.488281 1258.296875 601.003906 1258.296875 C 604.523438 1258.296875 607.257812 1257.320312 609.214844 1255.363281 C 611.167969 1253.410156 612.535156 1250.867188 613.511719 1247.742188 C 614.492188 1244.613281 615.078125 1241.292969 615.273438 1237.773438 C 615.46875 1234.253906 615.664062 1230.933594 615.664062 1227.804688 L 615.664062 1211.972656 L 648.695312 1211.972656 L 648.695312 1217.640625 C 648.695312 1224.09375 648.695312 1229.566406 648.304688 1234.449219 C 648.109375 1239.140625 647.71875 1243.441406 647.128906 1247.351562 C 646.542969 1251.0625 645.761719 1254.582031 644.589844 1257.710938 C 643.417969 1260.835938 642.050781 1263.769531 640.09375 1266.894531 C 636.578125 1272.757812 631.496094 1277.644531 625.042969 1281.554688 C 618.59375 1285.464844 610.582031 1287.417969 601.199219 1287.417969 C 591.820312 1287.417969 583.804688 1285.464844 577.355469 1281.554688 C 570.90625 1277.644531 565.824219 1272.757812 562.304688 1266.894531 C 560.546875 1263.964844 558.984375 1260.835938 557.808594 1257.710938 C 556.636719 1254.582031 555.855469 1251.257812 555.269531 1247.351562 C 554.683594 1243.636719 554.292969 1239.335938 554.097656 1234.449219 C 553.902344 1229.761719 553.707031 1224.09375 553.707031 1217.640625 L 553.707031 1150.601562 Z M 554.097656 1150.601562 " fill-opacity="1" fill-rule="nonzero"/><path fill="#efebe0" d="M 664.332031 1150.992188 C 664.332031 1144.542969 664.527344 1138.875 664.722656 1133.988281 C 664.917969 1129.300781 665.308594 1125 665.894531 1121.089844 C 666.480469 1117.375 667.261719 1113.859375 668.433594 1110.730469 C 669.609375 1107.605469 670.976562 1104.671875 672.929688 1101.546875 C 676.644531 1095.484375 681.726562 1090.601562 688.175781 1086.691406 C 694.625 1082.78125 702.636719 1080.828125 712.214844 1080.828125 C 721.792969 1080.828125 730 1082.78125 736.453125 1086.691406 C 742.902344 1090.601562 747.984375 1095.484375 751.5 1101.546875 C 753.261719 1104.476562 754.824219 1107.605469 755.996094 1110.730469 C 757.167969 1113.859375 757.949219 1117.179688 758.539062 1121.089844 C 759.125 1124.804688 759.515625 1129.101562 759.710938 1133.988281 C 759.90625 1138.679688 760.101562 1144.347656 760.101562 1150.992188 L 760.101562 1219.207031 C 760.101562 1225.65625 759.90625 1231.324219 759.710938 1236.015625 C 759.515625 1240.902344 759.125 1245.199219 758.539062 1248.914062 C 757.949219 1252.628906 757.167969 1255.949219 755.996094 1259.078125 C 754.824219 1262.203125 753.457031 1265.332031 751.5 1268.460938 C 747.789062 1274.519531 742.902344 1279.40625 736.453125 1283.3125 C 730 1287.222656 721.988281 1289.175781 712.410156 1289.175781 C 702.832031 1289.175781 694.820312 1287.222656 688.371094 1283.3125 C 681.921875 1279.40625 676.839844 1274.519531 673.125 1268.460938 C 671.367188 1265.332031 669.804688 1262.203125 668.628906 1259.078125 C 667.457031 1255.949219 666.675781 1252.628906 666.089844 1248.914062 C 665.503906 1245.199219 665.113281 1240.902344 664.917969 1236.015625 C 664.722656 1231.128906 664.527344 1225.460938 664.527344 1219.207031 L 664.527344 1150.992188 Z M 696.96875 1229.371094 C 696.96875 1232.496094 696.96875 1235.820312 697.363281 1239.53125 C 697.558594 1243.050781 698.144531 1246.375 699.121094 1249.5 C 700.097656 1252.433594 701.660156 1254.972656 703.617188 1257.125 C 705.570312 1259.078125 708.304688 1260.25 711.824219 1260.25 C 715.34375 1260.25 718.078125 1259.273438 720.230469 1257.125 C 722.183594 1255.167969 723.746094 1252.628906 724.722656 1249.5 C 725.703125 1246.570312 726.289062 1243.246094 726.679688 1239.53125 C 726.875 1236.015625 727.070312 1232.496094 727.070312 1229.371094 L 727.070312 1140.636719 C 727.070312 1137.507812 726.875 1134.183594 726.679688 1130.472656 C 726.484375 1126.953125 725.703125 1123.628906 724.722656 1120.503906 C 723.746094 1117.570312 722.183594 1115.03125 720.230469 1112.882812 C 718.273438 1110.925781 715.34375 1109.753906 711.824219 1109.753906 C 708.304688 1109.753906 705.570312 1110.730469 703.617188 1112.882812 C 701.660156 1114.835938 700.097656 1117.375 699.121094 1120.503906 C 698.144531 1123.433594 697.558594 1126.757812 697.363281 1130.472656 C 697.164062 1133.988281 696.96875 1137.507812 696.96875 1140.636719 Z M 696.96875 1229.371094 " fill-opacity="1" fill-rule="nonzero"/><path fill="#efebe0" d="M 775.542969 1287.222656 C 776.519531 1286.246094 777.496094 1284.289062 778.082031 1281.75 C 778.667969 1279.210938 779.253906 1276.277344 779.644531 1272.953125 C 780.035156 1269.632812 780.230469 1266.113281 780.425781 1262.203125 C 780.621094 1258.296875 780.621094 1254.582031 780.820312 1251.0625 C 780.820312 1247.546875 780.820312 1244.222656 780.820312 1241.097656 C 780.820312 1238.164062 780.625 1235.820312 780.625 1234.058594 L 780.625 1135.945312 C 780.625 1134.183594 780.625 1131.839844 780.820312 1128.90625 C 780.820312 1125.976562 780.820312 1122.652344 780.820312 1118.941406 C 780.820312 1115.421875 780.625 1111.707031 780.425781 1107.800781 C 780.230469 1103.890625 780.035156 1100.371094 779.644531 1097.050781 C 779.253906 1093.726562 778.667969 1090.796875 778.082031 1088.253906 C 777.496094 1085.714844 776.519531 1083.953125 775.542969 1082.78125 L 818.34375 1082.78125 L 842.191406 1218.035156 L 865.839844 1082.78125 L 908.644531 1082.78125 C 907.664062 1083.757812 906.6875 1085.714844 906.101562 1088.253906 C 905.515625 1090.796875 904.929688 1093.726562 904.539062 1097.050781 C 904.148438 1100.371094 903.953125 1103.890625 903.757812 1107.800781 C 903.5625 1111.707031 903.367188 1115.421875 903.367188 1118.941406 C 903.367188 1122.457031 903.367188 1125.78125 903.367188 1128.90625 C 903.367188 1131.839844 903.367188 1134.183594 903.367188 1135.945312 L 903.367188 1234.058594 C 903.367188 1235.820312 903.367188 1238.164062 903.367188 1241.097656 C 903.367188 1244.027344 903.367188 1247.351562 903.367188 1251.0625 C 903.367188 1254.582031 903.5625 1258.296875 903.757812 1262.203125 C 903.953125 1266.113281 904.148438 1269.632812 904.539062 1272.953125 C 904.929688 1276.277344 905.320312 1279.210938 906.101562 1281.75 C 906.6875 1284.289062 907.664062 1286.050781 908.644531 1287.222656 L 865.644531 1287.417969 C 866.621094 1286.441406 867.597656 1284.484375 868.183594 1281.945312 C 868.769531 1279.40625 869.355469 1276.472656 869.75 1273.148438 C 870.140625 1269.828125 870.335938 1266.308594 870.53125 1262.398438 C 870.726562 1258.492188 870.726562 1254.777344 870.921875 1251.257812 C 870.921875 1247.742188 870.921875 1244.417969 870.921875 1241.292969 C 870.921875 1238.359375 870.921875 1236.015625 870.921875 1234.253906 L 870.921875 1159.398438 L 852.546875 1270.21875 L 832.222656 1270.21875 L 813.652344 1159.398438 L 813.652344 1234.253906 C 813.652344 1236.015625 813.652344 1238.359375 813.652344 1241.292969 C 813.652344 1244.222656 813.652344 1247.546875 813.652344 1251.257812 C 813.652344 1254.777344 813.652344 1258.492188 814.046875 1262.398438 C 814.242188 1266.308594 814.4375 1269.828125 814.828125 1273.148438 C 815.21875 1276.472656 815.609375 1279.40625 816.390625 1281.945312 C 816.976562 1284.484375 817.953125 1286.246094 818.929688 1287.417969 Z M 775.542969 1287.222656 " fill-opacity="1" fill-rule="nonzero"/><path fill="#efebe0" d="M 917.632812 1287.222656 C 919.195312 1284.289062 920.566406 1280.773438 921.933594 1276.472656 C 923.300781 1272.171875 924.472656 1267.675781 925.648438 1262.988281 C 926.820312 1258.296875 927.796875 1253.605469 928.578125 1248.914062 C 929.359375 1244.222656 930.140625 1239.921875 930.925781 1236.210938 C 933.464844 1221.355469 936.007812 1207.675781 938.15625 1195.164062 C 940.304688 1182.65625 942.652344 1170.539062 944.800781 1158.617188 C 946.949219 1146.695312 949.101562 1134.769531 951.445312 1122.457031 C 953.597656 1110.339844 955.941406 1097.050781 958.484375 1082.78125 L 999.332031 1082.78125 C 1001.871094 1097.050781 1004.21875 1110.144531 1006.367188 1122.457031 C 1008.519531 1134.574219 1010.667969 1146.695312 1012.816406 1158.617188 C 1014.96875 1170.539062 1017.117188 1182.65625 1019.464844 1195.164062 C 1021.613281 1207.675781 1024.152344 1221.355469 1026.890625 1236.210938 C 1027.476562 1239.921875 1028.257812 1244.222656 1029.234375 1248.914062 C 1030.214844 1253.605469 1031.191406 1258.296875 1032.167969 1262.988281 C 1033.144531 1267.675781 1034.316406 1272.171875 1035.683594 1276.472656 C 1037.054688 1280.773438 1038.421875 1284.289062 1039.984375 1287.222656 L 992.296875 1287.222656 C 993.664062 1283.898438 994.640625 1280.1875 995.03125 1276.472656 C 995.421875 1272.757812 995.617188 1269.046875 995.421875 1265.136719 C 995.226562 1261.226562 995.03125 1257.320312 994.445312 1253.410156 C 993.859375 1249.5 993.46875 1245.789062 993.078125 1242.269531 L 964.933594 1242.269531 C 964.542969 1245.789062 964.152344 1249.5 963.5625 1253.410156 C 962.976562 1257.320312 962.78125 1261.226562 962.585938 1265.136719 C 962.390625 1269.046875 962.585938 1272.757812 963.171875 1276.472656 C 963.5625 1280.1875 964.542969 1283.703125 965.910156 1287.222656 Z M 989.167969 1214.125 L 978.613281 1127.539062 L 968.058594 1214.125 Z M 989.167969 1214.125 " fill-opacity="1" fill-rule="nonzero"/><path fill="#efebe0" d="M 1130.085938 1082.78125 L 1130.085938 1115.617188 C 1127.9375 1114.25 1125.984375 1113.078125 1124.027344 1112.097656 C 1122.074219 1111.121094 1119.925781 1110.339844 1117.382812 1109.753906 C 1115.039062 1109.167969 1112.105469 1108.777344 1108.785156 1108.386719 C 1105.460938 1108.191406 1101.550781 1107.996094 1096.859375 1107.996094 L 1096.859375 1237.1875 C 1096.859375 1237.773438 1096.859375 1239.140625 1096.859375 1241.488281 C 1096.859375 1243.832031 1097.054688 1246.570312 1097.253906 1249.890625 C 1097.449219 1253.214844 1097.644531 1256.730469 1098.035156 1260.640625 C 1098.425781 1264.550781 1098.816406 1268.265625 1099.402344 1271.78125 C 1099.988281 1275.300781 1100.574219 1278.425781 1101.550781 1281.164062 C 1102.332031 1283.898438 1103.507812 1285.855469 1104.679688 1287.027344 L 1056.402344 1287.027344 C 1057.574219 1285.855469 1058.554688 1283.898438 1059.53125 1281.164062 C 1060.3125 1278.425781 1061.09375 1275.300781 1061.679688 1271.78125 C 1062.265625 1268.265625 1062.65625 1264.550781 1063.046875 1260.640625 C 1063.4375 1256.730469 1063.632812 1253.214844 1063.832031 1249.890625 C 1064.027344 1246.570312 1064.027344 1243.832031 1064.222656 1241.488281 C 1064.222656 1239.140625 1064.222656 1237.773438 1064.222656 1237.1875 L 1064.222656 1107.800781 C 1059.53125 1107.800781 1055.621094 1107.996094 1052.296875 1108.191406 C 1048.976562 1108.386719 1046.238281 1108.972656 1043.699219 1109.558594 C 1041.15625 1110.144531 1039.007812 1110.925781 1037.054688 1111.902344 C 1035.097656 1112.882812 1033.144531 1114.054688 1030.996094 1115.421875 L 1030.996094 1082.78125 Z M 1064.027344 1237.382812 C 1064.222656 1237.96875 1064.222656 1238.554688 1064.417969 1238.75 C 1064.417969 1238.945312 1064.417969 1238.75 1064.222656 1238.359375 L 1064.027344 1237.1875 Z M 1064.027344 1237.382812 " fill-opacity="1" fill-rule="nonzero"/><path fill="#efebe0" d="M 1144.941406 1135.945312 C 1144.941406 1134.183594 1144.941406 1131.839844 1145.136719 1128.90625 C 1145.136719 1125.976562 1145.136719 1122.652344 1145.136719 1118.941406 C 1145.136719 1115.421875 1144.941406 1111.707031 1144.746094 1107.800781 C 1144.550781 1103.890625 1144.355469 1100.371094 1143.964844 1097.050781 C 1143.574219 1093.726562 1142.988281 1090.796875 1142.402344 1088.253906 C 1141.816406 1085.714844 1140.835938 1083.953125 1139.859375 1082.78125 L 1227.617188 1082.78125 L 1227.617188 1117.375 C 1223.707031 1115.617188 1220.191406 1114.25 1217.257812 1113.273438 C 1214.328125 1112.492188 1211.199219 1111.707031 1208.269531 1111.316406 C 1205.335938 1110.925781 1202.207031 1110.730469 1198.886719 1110.730469 C 1195.5625 1110.730469 1191.65625 1110.730469 1186.964844 1110.730469 L 1177.777344 1110.730469 L 1177.777344 1154.902344 L 1194.585938 1154.902344 C 1197.519531 1154.902344 1200.058594 1154.902344 1202.402344 1154.511719 C 1204.75 1154.316406 1206.898438 1153.925781 1208.855469 1153.535156 C 1210.808594 1153.144531 1212.761719 1152.558594 1214.523438 1151.777344 C 1216.28125 1150.992188 1218.234375 1150.210938 1220.191406 1149.039062 L 1220.191406 1188.910156 C 1218.234375 1187.933594 1216.28125 1186.957031 1214.523438 1186.175781 C 1212.761719 1185.394531 1210.808594 1184.808594 1208.855469 1184.21875 C 1206.898438 1183.632812 1204.75 1183.242188 1202.402344 1183.046875 C 1200.058594 1182.851562 1197.519531 1182.65625 1194.585938 1182.65625 L 1177.777344 1182.65625 L 1177.777344 1258.296875 L 1186.964844 1258.296875 C 1191.65625 1258.296875 1195.5625 1258.296875 1198.886719 1258.296875 C 1202.207031 1258.296875 1205.335938 1258.101562 1208.269531 1257.710938 C 1211.199219 1257.320312 1214.132812 1256.730469 1217.257812 1255.753906 C 1220.191406 1254.777344 1223.707031 1253.605469 1227.617188 1251.847656 L 1227.617188 1286.441406 L 1139.859375 1286.441406 C 1140.835938 1285.464844 1141.816406 1283.507812 1142.402344 1280.96875 C 1142.988281 1278.425781 1143.574219 1275.496094 1143.964844 1272.171875 C 1144.355469 1268.851562 1144.550781 1265.332031 1144.746094 1261.421875 C 1144.941406 1257.515625 1144.941406 1253.800781 1145.136719 1250.28125 C 1145.136719 1246.765625 1145.136719 1243.441406 1145.136719 1240.316406 C 1145.136719 1237.382812 1144.941406 1235.039062 1144.941406 1233.277344 Z M 1144.941406 1135.945312 " fill-opacity="1" fill-rule="nonzero"/><path fill="#efebe0" d="M 707.914062 285.738281 C 551.164062 285.738281 424.121094 412.777344 424.121094 569.53125 C 424.121094 670.578125 476.894531 759.117188 556.441406 809.542969 C 561.132812 812.472656 565.824219 815.40625 570.710938 817.945312 C 572.859375 819.121094 575.007812 820.292969 577.160156 821.464844 C 626.023438 849.023438 658.859375 901.402344 658.859375 961.601562 C 658.859375 962.578125 658.859375 963.558594 658.859375 964.339844 C 659.054688 964.339844 659.054688 964.339844 659.25 964.339844 C 659.445312 964.339844 659.640625 964.339844 660.03125 964.339844 C 662.960938 924.664062 673.515625 886.941406 690.128906 852.738281 C 695.40625 841.792969 701.464844 831.238281 708.109375 821.074219 C 718.46875 805.242188 730.195312 790.191406 743.097656 776.511719 C 731.761719 778.464844 720.035156 779.445312 708.109375 779.445312 C 592.210938 779.445312 498.199219 685.433594 498.199219 569.53125 C 498.199219 453.628906 592.210938 359.617188 708.109375 359.617188 C 824.011719 359.617188 918.023438 453.628906 918.023438 569.53125 C 918.023438 616.046875 902.976562 659.046875 877.371094 693.835938 C 864.667969 711.035156 849.617188 726.085938 832.417969 738.789062 C 825.773438 742.894531 819.125 747.195312 812.675781 751.691406 C 775.347656 778.269531 744.074219 812.867188 721.597656 852.933594 C 716.710938 861.726562 712.214844 870.71875 708.109375 879.90625 C 694.820312 910.199219 686.222656 942.839844 683.289062 977.238281 C 682.507812 986.230469 682.117188 995.21875 682.117188 1004.40625 C 682.117188 1008.707031 682.3125 1012.8125 682.3125 1017.109375 C 690.910156 1016.71875 699.511719 1016.328125 708.109375 1016.328125 C 723.355469 1016.328125 738.40625 1017.109375 753.261719 1018.480469 C 756.191406 931.113281 799.972656 854.105469 865.839844 805.828125 L 864.472656 806.21875 C 905.90625 778.855469 939.71875 740.746094 962.195312 695.984375 C 964.738281 691.101562 967.082031 686.019531 969.230469 680.9375 C 983.890625 646.734375 991.90625 609.011719 991.90625 569.53125 C 991.710938 412.777344 864.667969 285.738281 707.914062 285.738281 Z M 707.914062 285.738281 " fill-opacity="1" fill-rule="nonzero"/><path fill="#efebe0" d="M 577.355469 821.269531 C 575.207031 820.097656 573.054688 818.925781 570.90625 817.75 " fill-opacity="1" fill-rule="nonzero"/><path fill="#110b79" d="M 825.1875 408.089844 C 804.078125 396.558594 784.140625 384.242188 765.378906 371.34375 C 785.703125 384.828125 807.007812 397.925781 829.484375 410.433594 C 828.117188 409.652344 826.75 408.871094 825.1875 408.089844 Z M 825.1875 408.089844 " fill-opacity="1" fill-rule="nonzero"/><path fill="#ffffff" d="M 829.679688 410.433594 C 930.730469 465.160156 1031.777344 489.785156 1101.550781 481.773438 L 1114.0625 506.984375 C 1037.835938 501.707031 936.789062 469.265625 834.761719 413.171875 C 833.003906 412.386719 831.246094 411.410156 829.679688 410.433594 Z M 829.679688 410.433594 " fill-opacity="1" fill-rule="nonzero"/><path fill="#ffffff" d="M 1063.632812 405.9375 C 996.398438 395.773438 919.589844 369.585938 843.753906 327.757812 C 840.625 326 837.695312 324.4375 834.566406 322.675781 C 913.527344 364.699219 992.6875 387.566406 1055.621094 389.714844 Z M 1063.632812 405.9375 " fill-opacity="1" fill-rule="nonzero"/><path fill="#efebe0" d="M 765.378906 371.34375 C 785.703125 384.828125 807.007812 397.925781 829.484375 410.433594 C 828.117188 409.652344 826.554688 408.871094 825.1875 408.089844 C 804.078125 396.558594 784.140625 384.242188 765.378906 371.34375 Z M 765.378906 371.34375 " fill-opacity="1" fill-rule="nonzero"/><path fill="#efebe0" d="M 583.414062 191.726562 C 612.535156 247.625 677.816406 312.90625 765.378906 371.34375 C 784.140625 384.242188 804.078125 396.558594 825.1875 408.089844 C 826.554688 408.871094 828.117188 409.652344 829.484375 410.433594 C 831.246094 411.410156 832.808594 412.386719 834.566406 413.171875 C 936.59375 469.265625 1037.640625 501.710938 1113.863281 506.984375 L 1169.570312 618.785156 C 1056.792969 605.296875 910.988281 555.457031 763.226562 473.957031 C 615.46875 392.648438 495.265625 296.09375 423.535156 208.144531 Z M 583.414062 191.726562 " fill-opacity="1" fill-rule="nonzero"/><path fill="#efebe0" d="M 765.378906 371.34375 C 677.621094 312.90625 612.339844 247.625 583.414062 191.726562 L 605.304688 189.378906 C 622.503906 246.058594 681.140625 313.6875 765.378906 371.34375 Z M 765.378906 371.34375 " fill-opacity="1" fill-rule="nonzero"/><path fill="#efebe0" d="M 605.304688 189.574219 L 658.664062 184.101562 C 696.773438 231.402344 755.019531 279.285156 825.96875 318.375 C 828.703125 319.941406 831.636719 321.503906 834.371094 322.871094 C 837.304688 324.632812 840.429688 326.390625 843.558594 327.953125 C 919.589844 369.78125 996.203125 395.96875 1063.4375 406.132812 L 1101.160156 481.96875 C 1031.582031 489.980469 930.335938 465.160156 829.289062 410.628906 C 806.8125 398.121094 785.3125 385.023438 765.183594 371.539062 C 681.140625 313.6875 622.503906 246.058594 605.304688 189.574219 Z M 605.304688 189.574219 " fill-opacity="1" fill-rule="nonzero"/><path fill="#efebe0" d="M 658.664062 184.101562 L 660.03125 183.90625 C 702.636719 233.160156 762.640625 282.023438 834.566406 322.871094 C 831.832031 321.308594 828.898438 319.941406 826.164062 318.375 C 755.019531 279.089844 696.96875 231.207031 658.664062 184.101562 Z M 658.664062 184.101562 " fill-opacity="1" fill-rule="nonzero"/><path fill="#efebe0" d="M 938.742188 155.175781 L 1055.621094 389.910156 C 992.6875 387.761719 913.527344 364.894531 834.566406 322.871094 C 762.640625 282.023438 702.832031 233.355469 660.03125 183.90625 Z M 938.742188 155.175781 " fill-opacity="1" fill-rule="nonzero"/><path fill="#efebe0" d="M 609.605469 536.890625 C 609.605469 538.03125 609.566406 539.167969 609.488281 540.300781 C 609.410156 541.433594 609.292969 542.558594 609.136719 543.675781 C 608.984375 544.792969 608.792969 545.898438 608.5625 546.988281 C 608.332031 548.078125 608.0625 549.152344 607.757812 550.203125 C 607.457031 551.257812 607.117188 552.285156 606.742188 553.289062 C 606.367188 554.292969 605.960938 555.269531 605.519531 556.21875 C 605.078125 557.164062 604.605469 558.078125 604.101562 558.960938 C 603.597656 559.839844 603.066406 560.683594 602.503906 561.492188 C 601.945312 562.296875 601.355469 563.058594 600.742188 563.78125 C 600.128906 564.507812 599.492188 565.183594 598.832031 565.816406 C 598.171875 566.449219 597.492188 567.035156 596.792969 567.570312 C 596.09375 568.109375 595.375 568.597656 594.644531 569.03125 C 593.910156 569.46875 593.164062 569.851562 592.402344 570.183594 C 591.644531 570.511719 590.875 570.789062 590.097656 571.011719 C 589.316406 571.234375 588.535156 571.402344 587.742188 571.511719 C 586.953125 571.625 586.164062 571.679688 585.367188 571.679688 C 584.574219 571.679688 583.78125 571.625 582.992188 571.511719 C 582.203125 571.402344 581.417969 571.234375 580.640625 571.011719 C 579.863281 570.789062 579.09375 570.511719 578.332031 570.183594 C 577.574219 569.851562 576.828125 569.46875 576.09375 569.03125 C 575.359375 568.597656 574.644531 568.109375 573.945312 567.570312 C 573.242188 567.035156 572.5625 566.449219 571.902344 565.816406 C 571.242188 565.183594 570.605469 564.507812 569.992188 563.78125 C 569.378906 563.058594 568.792969 562.296875 568.230469 561.492188 C 567.667969 560.683594 567.136719 559.839844 566.632812 558.960938 C 566.128906 558.078125 565.65625 557.164062 565.21875 556.21875 C 564.777344 555.269531 564.367188 554.292969 563.996094 553.289062 C 563.621094 552.285156 563.28125 551.257812 562.976562 550.203125 C 562.671875 549.152344 562.40625 548.078125 562.175781 546.988281 C 561.945312 545.898438 561.753906 544.792969 561.597656 543.675781 C 561.445312 542.558594 561.328125 541.433594 561.25 540.300781 C 561.171875 539.167969 561.132812 538.03125 561.132812 536.890625 C 561.132812 535.75 561.171875 534.613281 561.25 533.480469 C 561.328125 532.347656 561.445312 531.21875 561.597656 530.101562 C 561.753906 528.984375 561.945312 527.882812 562.175781 526.789062 C 562.40625 525.699219 562.671875 524.628906 562.976562 523.578125 C 563.28125 522.523438 563.621094 521.496094 563.996094 520.488281 C 564.367188 519.484375 564.777344 518.507812 565.21875 517.5625 C 565.65625 516.613281 566.128906 515.699219 566.632812 514.820312 C 567.136719 513.9375 567.671875 513.09375 568.230469 512.289062 C 568.792969 511.484375 569.378906 510.71875 569.992188 509.996094 C 570.605469 509.273438 571.242188 508.597656 571.902344 507.964844 C 572.5625 507.328125 573.242188 506.746094 573.945312 506.207031 C 574.644531 505.671875 575.359375 505.183594 576.09375 504.75 C 576.828125 504.3125 577.574219 503.929688 578.332031 503.597656 C 579.09375 503.265625 579.863281 502.992188 580.640625 502.769531 C 581.417969 502.546875 582.203125 502.378906 582.992188 502.265625 C 583.78125 502.15625 584.574219 502.101562 585.367188 502.101562 C 586.164062 502.101562 586.953125 502.15625 587.742188 502.265625 C 588.535156 502.378906 589.316406 502.546875 590.097656 502.769531 C 590.875 502.992188 591.644531 503.265625 592.402344 503.597656 C 593.164062 503.929688 593.910156 504.3125 594.644531 504.75 C 595.375 505.183594 596.09375 505.671875 596.792969 506.207031 C 597.492188 506.746094 598.171875 507.328125 598.832031 507.964844 C 599.492188 508.597656 600.128906 509.273438 600.742188 509.996094 C 601.355469 510.71875 601.945312 511.484375 602.503906 512.289062 C 603.066406 513.09375 603.597656 513.9375 604.101562 514.820312 C 604.605469 515.699219 605.078125 516.613281 605.519531 517.5625 C 605.960938 518.507812 606.367188 519.484375 606.742188 520.488281 C 607.117188 521.496094 607.457031 522.523438 607.757812 523.578125 C 608.0625 524.628906 608.332031 525.699219 608.5625 526.789062 C 608.792969 527.882812 608.984375 528.984375 609.136719 530.101562 C 609.292969 531.21875 609.410156 532.347656 609.488281 533.480469 C 609.566406 534.613281 609.605469 535.75 609.605469 536.890625 Z M 609.605469 536.890625 " fill-opacity="1" fill-rule="nonzero"/><path fill="#ffffff" d="M 600.027344 519.105469 C 600.027344 519.707031 599.96875 520.304688 599.851562 520.894531 C 599.734375 521.488281 599.558594 522.0625 599.328125 522.621094 C 599.097656 523.175781 598.8125 523.707031 598.480469 524.207031 C 598.144531 524.707031 597.761719 525.171875 597.335938 525.597656 C 596.910156 526.027344 596.445312 526.40625 595.945312 526.742188 C 595.441406 527.078125 594.914062 527.359375 594.355469 527.589844 C 593.800781 527.820312 593.226562 527.996094 592.632812 528.113281 C 592.042969 528.230469 591.445312 528.289062 590.839844 528.289062 C 590.238281 528.289062 589.640625 528.230469 589.050781 528.113281 C 588.457031 527.996094 587.882812 527.820312 587.324219 527.589844 C 586.769531 527.359375 586.238281 527.078125 585.738281 526.742188 C 585.234375 526.40625 584.773438 526.027344 584.34375 525.597656 C 583.917969 525.171875 583.539062 524.707031 583.203125 524.207031 C 582.867188 523.707031 582.585938 523.175781 582.355469 522.621094 C 582.125 522.0625 581.949219 521.488281 581.832031 520.894531 C 581.714844 520.304688 581.65625 519.707031 581.65625 519.105469 C 581.65625 518.5 581.714844 517.902344 581.832031 517.3125 C 581.949219 516.71875 582.125 516.144531 582.355469 515.589844 C 582.585938 515.03125 582.867188 514.5 583.203125 514 C 583.539062 513.5 583.917969 513.035156 584.34375 512.609375 C 584.773438 512.183594 585.234375 511.800781 585.738281 511.464844 C 586.238281 511.128906 586.769531 510.847656 587.324219 510.617188 C 587.882812 510.386719 588.457031 510.210938 589.050781 510.09375 C 589.640625 509.976562 590.238281 509.917969 590.839844 509.917969 C 591.445312 509.917969 592.042969 509.976562 592.632812 510.09375 C 593.226562 510.210938 593.800781 510.386719 594.355469 510.617188 C 594.914062 510.847656 595.441406 511.128906 595.945312 511.464844 C 596.445312 511.800781 596.910156 512.183594 597.335938 512.609375 C 597.761719 513.035156 598.144531 513.5 598.480469 514 C 598.8125 514.5 599.097656 515.03125 599.328125 515.589844 C 599.558594 516.144531 599.734375 516.71875 599.851562 517.3125 C 599.96875 517.902344 600.027344 518.5 600.027344 519.105469 Z M 600.027344 519.105469 " fill-opacity="1" fill-rule="nonzero"/><path fill="#efebe0" d="M 769.679688 545.488281 C 769.679688 546.628906 769.640625 547.765625 769.5625 548.898438 C 769.484375 550.035156 769.367188 551.160156 769.210938 552.277344 C 769.058594 553.394531 768.863281 554.5 768.632812 555.589844 C 768.402344 556.679688 768.136719 557.75 767.832031 558.804688 C 767.527344 559.855469 767.191406 560.886719 766.816406 561.890625 C 766.441406 562.894531 766.035156 563.871094 765.59375 564.816406 C 765.152344 565.765625 764.679688 566.679688 764.175781 567.558594 C 763.671875 568.441406 763.140625 569.285156 762.578125 570.089844 C 762.019531 570.894531 761.429688 571.660156 760.816406 572.382812 C 760.203125 573.105469 759.566406 573.785156 758.90625 574.417969 C 758.246094 575.050781 757.566406 575.636719 756.867188 576.171875 C 756.167969 576.710938 755.449219 577.195312 754.714844 577.632812 C 753.984375 578.066406 753.238281 578.449219 752.476562 578.78125 C 751.71875 579.113281 750.949219 579.390625 750.171875 579.613281 C 749.390625 579.832031 748.609375 580 747.816406 580.113281 C 747.027344 580.222656 746.234375 580.28125 745.441406 580.28125 C 744.648438 580.28125 743.855469 580.222656 743.066406 580.113281 C 742.277344 580 741.492188 579.832031 740.714844 579.613281 C 739.933594 579.390625 739.167969 579.113281 738.40625 578.78125 C 737.648438 578.449219 736.902344 578.066406 736.167969 577.632812 C 735.433594 577.195312 734.71875 576.710938 734.015625 576.171875 C 733.316406 575.636719 732.636719 575.050781 731.976562 574.417969 C 731.316406 573.785156 730.679688 573.105469 730.066406 572.382812 C 729.453125 571.660156 728.867188 570.894531 728.304688 570.089844 C 727.742188 569.285156 727.210938 568.441406 726.707031 567.558594 C 726.203125 566.679688 725.730469 565.765625 725.289062 564.816406 C 724.851562 563.871094 724.441406 562.894531 724.066406 561.890625 C 723.695312 560.886719 723.355469 559.855469 723.050781 558.804688 C 722.746094 557.75 722.480469 556.679688 722.25 555.589844 C 722.019531 554.5 721.828125 553.394531 721.671875 552.277344 C 721.515625 551.160156 721.402344 550.035156 721.324219 548.898438 C 721.246094 547.765625 721.207031 546.628906 721.207031 545.488281 C 721.207031 544.351562 721.246094 543.214844 721.324219 542.078125 C 721.402344 540.945312 721.515625 539.820312 721.671875 538.703125 C 721.828125 537.585938 722.019531 536.480469 722.25 535.390625 C 722.480469 534.300781 722.746094 533.230469 723.050781 532.175781 C 723.355469 531.125 723.695312 530.09375 724.066406 529.089844 C 724.441406 528.085938 724.851562 527.109375 725.289062 526.160156 C 725.730469 525.214844 726.203125 524.300781 726.707031 523.417969 C 727.210938 522.539062 727.742188 521.695312 728.304688 520.890625 C 728.867188 520.082031 729.453125 519.320312 730.066406 518.597656 C 730.679688 517.875 731.316406 517.195312 731.976562 516.5625 C 732.636719 515.929688 733.316406 515.34375 734.015625 514.808594 C 734.71875 514.269531 735.433594 513.785156 736.167969 513.347656 C 736.902344 512.910156 737.648438 512.527344 738.40625 512.199219 C 739.167969 511.867188 739.933594 511.589844 740.714844 511.367188 C 741.492188 511.144531 742.277344 510.980469 743.066406 510.867188 C 743.855469 510.753906 744.648438 510.699219 745.441406 510.699219 C 746.234375 510.699219 747.027344 510.753906 747.816406 510.867188 C 748.609375 510.980469 749.390625 511.144531 750.171875 511.367188 C 750.949219 511.589844 751.71875 511.867188 752.476562 512.199219 C 753.238281 512.527344 753.984375 512.910156 754.714844 513.347656 C 755.449219 513.785156 756.167969 514.269531 756.867188 514.808594 C 757.566406 515.34375 758.246094 515.929688 758.90625 516.5625 C 759.566406 517.195312 760.203125 517.875 760.816406 518.597656 C 761.429688 519.320312 762.019531 520.082031 762.578125 520.890625 C 763.140625 521.695312 763.671875 522.539062 764.175781 523.417969 C 764.679688 524.300781 765.152344 525.214844 765.59375 526.160156 C 766.035156 527.109375 766.441406 528.085938 766.816406 529.089844 C 767.191406 530.09375 767.527344 531.125 767.832031 532.175781 C 768.136719 533.230469 768.402344 534.300781 768.632812 535.390625 C 768.863281 536.480469 769.058594 537.585938 769.210938 538.703125 C 769.367188 539.820312 769.484375 540.945312 769.5625 542.078125 C 769.640625 543.214844 769.679688 544.351562 769.679688 545.488281 Z M 769.679688 545.488281 " fill-opacity="1" fill-rule="nonzero"/><path fill="#ffffff" d="M 760.101562 527.703125 C 760.101562 528.308594 760.042969 528.90625 759.925781 529.496094 C 759.804688 530.085938 759.632812 530.660156 759.402344 531.21875 C 759.171875 531.777344 758.886719 532.304688 758.550781 532.808594 C 758.21875 533.308594 757.835938 533.773438 757.410156 534.199219 C 756.984375 534.625 756.519531 535.007812 756.019531 535.339844 C 755.515625 535.675781 754.988281 535.960938 754.429688 536.191406 C 753.871094 536.421875 753.296875 536.597656 752.707031 536.714844 C 752.113281 536.832031 751.519531 536.890625 750.914062 536.890625 C 750.3125 536.890625 749.714844 536.832031 749.121094 536.714844 C 748.53125 536.597656 747.957031 536.421875 747.398438 536.191406 C 746.84375 535.960938 746.3125 535.675781 745.8125 535.339844 C 745.308594 535.007812 744.84375 534.625 744.417969 534.199219 C 743.992188 533.773438 743.613281 533.308594 743.277344 532.808594 C 742.941406 532.304688 742.660156 531.777344 742.425781 531.21875 C 742.195312 530.660156 742.023438 530.085938 741.90625 529.496094 C 741.789062 528.90625 741.726562 528.308594 741.730469 527.703125 C 741.726562 527.101562 741.789062 526.503906 741.90625 525.910156 C 742.023438 525.320312 742.195312 524.746094 742.425781 524.1875 C 742.660156 523.632812 742.941406 523.101562 743.277344 522.601562 C 743.613281 522.097656 743.992188 521.632812 744.417969 521.207031 C 744.84375 520.78125 745.308594 520.402344 745.8125 520.066406 C 746.3125 519.730469 746.84375 519.449219 747.398438 519.21875 C 747.957031 518.984375 748.53125 518.8125 749.121094 518.695312 C 749.714844 518.578125 750.3125 518.519531 750.914062 518.519531 C 751.519531 518.519531 752.113281 518.578125 752.707031 518.695312 C 753.296875 518.8125 753.871094 518.984375 754.429688 519.21875 C 754.988281 519.449219 755.515625 519.730469 756.019531 520.066406 C 756.519531 520.402344 756.984375 520.78125 757.410156 521.207031 C 757.835938 521.632812 758.21875 522.097656 758.550781 522.601562 C 758.886719 523.101562 759.171875 523.632812 759.402344 524.1875 C 759.632812 524.746094 759.804688 525.320312 759.925781 525.910156 C 760.042969 526.503906 760.101562 527.101562 760.101562 527.703125 Z M 760.101562 527.703125 " fill-opacity="1" fill-rule="nonzero"/><path stroke-linecap="butt" transform="matrix(1.9545, 0, 0, 1.9545, -304.90614, -32.846703)" fill="none" stroke-linejoin="miter" d="M 490.300802 304.499163 C 490.300802 304.499163 475.299362 315.799209 490.300802 326.099958 " stroke="#efebe0" stroke-width="3.481" stroke-opacity="1" stroke-miterlimit="10"/><path fill="#efebe0" d="M 436.4375 1111.121094 C 397.933594 1111.121094 366.660156 1142.394531 366.660156 1180.898438 C 366.660156 1205.71875 379.558594 1227.609375 399.300781 1239.921875 C 400.472656 1240.707031 401.644531 1241.292969 402.816406 1242.074219 C 403.40625 1242.269531 403.796875 1242.660156 404.382812 1242.855469 C 416.304688 1249.695312 424.511719 1262.597656 424.511719 1277.253906 C 424.511719 1277.449219 424.511719 1277.644531 424.511719 1278.035156 C 424.511719 1278.035156 424.707031 1278.035156 424.707031 1278.035156 C 425.492188 1268.265625 428.03125 1258.882812 432.136719 1250.671875 C 433.503906 1247.9375 434.871094 1245.394531 436.632812 1242.855469 C 439.171875 1238.945312 442.105469 1235.234375 445.230469 1231.910156 C 442.496094 1232.300781 439.5625 1232.691406 436.632812 1232.691406 C 408.09375 1232.691406 385.03125 1209.628906 385.03125 1181.09375 C 385.03125 1152.558594 408.09375 1129.496094 436.632812 1129.496094 C 465.167969 1129.496094 488.230469 1152.558594 488.230469 1181.09375 C 488.230469 1192.625 484.515625 1203.179688 478.261719 1211.777344 C 475.132812 1216.078125 471.421875 1219.792969 467.121094 1222.917969 C 465.558594 1223.898438 463.796875 1225.070312 462.234375 1226.046875 C 453.046875 1232.496094 445.425781 1241.097656 439.757812 1251.0625 C 438.585938 1253.214844 437.414062 1255.363281 436.433594 1257.710938 C 433.113281 1265.136719 430.960938 1273.148438 430.375 1281.75 C 430.179688 1283.898438 429.984375 1286.246094 429.984375 1288.394531 C 429.984375 1289.371094 429.984375 1290.546875 429.984375 1291.523438 C 432.136719 1291.328125 434.285156 1291.328125 436.433594 1291.328125 C 440.148438 1291.328125 443.863281 1291.523438 447.574219 1291.914062 C 448.359375 1270.414062 459.109375 1251.457031 475.328125 1239.53125 L 474.9375 1239.726562 C 485.101562 1232.886719 493.507812 1223.703125 498.980469 1212.5625 C 499.566406 1211.386719 500.152344 1210.019531 500.738281 1208.847656 C 504.257812 1200.441406 506.40625 1191.0625 506.40625 1181.484375 C 506.210938 1142.394531 474.9375 1111.121094 436.4375 1111.121094 Z M 436.4375 1111.121094 " fill-opacity="1" fill-rule="nonzero"/><path fill="#efebe0" d="M 404.1875 1242.855469 C 403.601562 1242.464844 403.210938 1242.269531 402.621094 1242.074219 " fill-opacity="1" fill-rule="nonzero"/><path fill="#110b79" d="M 465.167969 1141.222656 C 459.890625 1138.289062 455.003906 1135.359375 450.507812 1132.230469 C 455.589844 1135.554688 460.867188 1138.679688 466.339844 1141.808594 C 465.949219 1141.613281 465.558594 1141.417969 465.167969 1141.222656 Z M 465.167969 1141.222656 " fill-opacity="1" fill-rule="nonzero"/><path fill="#ffffff" d="M 466.339844 1141.808594 C 491.160156 1155.292969 516.179688 1161.351562 533.183594 1159.398438 L 536.3125 1165.652344 C 517.546875 1164.285156 492.726562 1156.464844 467.511719 1142.589844 C 467.121094 1142.199219 466.730469 1142.003906 466.339844 1141.808594 Z M 466.339844 1141.808594 " fill-opacity="1" fill-rule="nonzero"/><path fill="#ffffff" d="M 523.996094 1140.636719 C 507.382812 1138.09375 488.621094 1131.644531 469.859375 1121.480469 C 469.074219 1121.089844 468.292969 1120.699219 467.511719 1120.308594 C 487.058594 1130.667969 506.40625 1136.335938 521.847656 1136.726562 Z M 523.996094 1140.636719 " fill-opacity="1" fill-rule="nonzero"/><path fill="#efebe0" d="M 450.507812 1132.230469 C 455.589844 1135.554688 460.867188 1138.679688 466.339844 1141.808594 C 465.949219 1141.613281 465.558594 1141.417969 465.167969 1141.222656 C 460.085938 1138.289062 455.199219 1135.359375 450.507812 1132.230469 Z M 450.507812 1132.230469 " fill-opacity="1" fill-rule="nonzero"/><path fill="#efebe0" d="M 405.75 1087.863281 C 412.980469 1101.546875 429.007812 1117.765625 450.507812 1132.035156 C 455.199219 1135.164062 460.085938 1138.289062 465.167969 1141.027344 C 465.558594 1141.222656 465.949219 1141.417969 466.339844 1141.613281 C 466.730469 1141.808594 467.121094 1142.003906 467.511719 1142.394531 C 492.53125 1156.269531 517.546875 1164.089844 536.3125 1165.457031 L 549.992188 1193.015625 C 522.238281 1189.691406 486.277344 1177.378906 449.921875 1157.445312 C 413.566406 1137.507812 384.054688 1113.664062 366.269531 1091.96875 Z M 405.75 1087.863281 " fill-opacity="1" fill-rule="nonzero"/><path fill="#efebe0" d="M 450.507812 1132.230469 C 429.007812 1117.765625 412.785156 1101.742188 405.75 1088.058594 L 411.222656 1087.472656 C 415.328125 1101.347656 429.789062 1117.960938 450.507812 1132.230469 Z M 450.507812 1132.230469 " fill-opacity="1" fill-rule="nonzero"/><path fill="#efebe0" d="M 411.027344 1087.472656 L 424.121094 1086.105469 C 433.503906 1097.636719 447.773438 1109.558594 465.363281 1119.136719 C 466.144531 1119.527344 466.730469 1119.917969 467.511719 1120.308594 C 468.292969 1120.699219 469.074219 1121.089844 469.859375 1121.480469 C 488.621094 1131.839844 507.382812 1138.289062 523.996094 1140.636719 L 533.378906 1159.398438 C 516.179688 1161.351562 491.355469 1155.292969 466.535156 1141.808594 C 461.0625 1138.679688 455.785156 1135.554688 450.703125 1132.230469 C 429.789062 1117.960938 415.328125 1101.347656 411.027344 1087.472656 Z M 411.027344 1087.472656 " fill-opacity="1" fill-rule="nonzero"/><path fill="#efebe0" d="M 424.316406 1086.105469 L 424.707031 1086.105469 C 435.261719 1098.222656 449.921875 1110.339844 467.707031 1120.308594 C 466.925781 1119.917969 466.339844 1119.527344 465.558594 1119.136719 C 447.96875 1109.363281 433.699219 1097.636719 424.316406 1086.105469 Z M 424.316406 1086.105469 " fill-opacity="1" fill-rule="nonzero"/><path fill="#efebe0" d="M 493.117188 1078.871094 L 521.847656 1136.726562 C 506.40625 1136.140625 486.863281 1130.667969 467.511719 1120.308594 C 449.726562 1110.339844 435.066406 1098.222656 424.511719 1086.105469 Z M 493.117188 1078.871094 " fill-opacity="1" fill-rule="nonzero"/><path fill="#efebe0" d="M 412.003906 1172.882812 C 412.003906 1173.449219 411.96875 1174.007812 411.890625 1174.5625 C 411.816406 1175.117188 411.707031 1175.652344 411.558594 1176.175781 C 411.410156 1176.695312 411.230469 1177.191406 411.015625 1177.660156 C 410.800781 1178.132812 410.558594 1178.566406 410.285156 1178.964844 C 410.015625 1179.363281 409.71875 1179.722656 409.398438 1180.035156 C 409.078125 1180.347656 408.742188 1180.613281 408.382812 1180.828125 C 408.027344 1181.046875 407.664062 1181.207031 407.285156 1181.320312 C 406.90625 1181.429688 406.527344 1181.484375 406.140625 1181.484375 C 405.757812 1181.484375 405.375 1181.429688 404.996094 1181.320312 C 404.621094 1181.207031 404.253906 1181.046875 403.898438 1180.828125 C 403.542969 1180.613281 403.203125 1180.347656 402.882812 1180.035156 C 402.5625 1179.722656 402.265625 1179.363281 401.996094 1178.964844 C 401.722656 1178.566406 401.480469 1178.132812 401.265625 1177.660156 C 401.050781 1177.191406 400.871094 1176.695312 400.722656 1176.175781 C 400.578125 1175.652344 400.464844 1175.117188 400.390625 1174.5625 C 400.316406 1174.007812 400.277344 1173.449219 400.277344 1172.882812 C 400.277344 1172.320312 400.316406 1171.761719 400.390625 1171.207031 C 400.464844 1170.652344 400.578125 1170.113281 400.722656 1169.59375 C 400.871094 1169.070312 401.050781 1168.574219 401.265625 1168.105469 C 401.480469 1167.636719 401.722656 1167.203125 401.996094 1166.804688 C 402.265625 1166.402344 402.5625 1166.046875 402.882812 1165.734375 C 403.203125 1165.421875 403.542969 1165.15625 403.898438 1164.9375 C 404.253906 1164.722656 404.621094 1164.558594 404.996094 1164.449219 C 405.375 1164.339844 405.757812 1164.285156 406.140625 1164.285156 C 406.527344 1164.285156 406.90625 1164.339844 407.285156 1164.449219 C 407.664062 1164.558594 408.027344 1164.722656 408.382812 1164.9375 C 408.742188 1165.15625 409.078125 1165.421875 409.398438 1165.734375 C 409.71875 1166.046875 410.015625 1166.402344 410.285156 1166.804688 C 410.558594 1167.203125 410.800781 1167.636719 411.015625 1168.105469 C 411.230469 1168.574219 411.410156 1169.070312 411.558594 1169.59375 C 411.707031 1170.113281 411.816406 1170.652344 411.890625 1171.207031 C 411.96875 1171.761719 412.003906 1172.320312 412.003906 1172.882812 Z M 412.003906 1172.882812 " fill-opacity="1" fill-rule="nonzero"/><path fill="#ffffff" d="M 409.855469 1168.585938 C 409.855469 1168.894531 409.792969 1169.195312 409.675781 1169.480469 C 409.558594 1169.769531 409.386719 1170.023438 409.167969 1170.242188 C 408.949219 1170.460938 408.695312 1170.632812 408.40625 1170.75 C 408.121094 1170.871094 407.820312 1170.929688 407.507812 1170.929688 C 407.199219 1170.929688 406.898438 1170.871094 406.609375 1170.75 C 406.324219 1170.632812 406.070312 1170.460938 405.851562 1170.242188 C 405.628906 1170.023438 405.460938 1169.769531 405.34375 1169.480469 C 405.222656 1169.195312 405.164062 1168.894531 405.164062 1168.585938 C 405.164062 1168.273438 405.222656 1167.972656 405.34375 1167.6875 C 405.460938 1167.398438 405.628906 1167.144531 405.851562 1166.925781 C 406.070312 1166.707031 406.324219 1166.535156 406.613281 1166.417969 C 406.898438 1166.296875 407.199219 1166.238281 407.507812 1166.238281 C 407.820312 1166.238281 408.121094 1166.296875 408.40625 1166.417969 C 408.695312 1166.535156 408.949219 1166.707031 409.167969 1166.925781 C 409.386719 1167.144531 409.558594 1167.398438 409.675781 1167.6875 C 409.792969 1167.972656 409.855469 1168.273438 409.855469 1168.585938 Z M 409.855469 1168.585938 " fill-opacity="1" fill-rule="nonzero"/><path fill="#efebe0" d="M 451.484375 1175.035156 C 451.484375 1175.597656 451.449219 1176.15625 451.371094 1176.710938 C 451.296875 1177.265625 451.1875 1177.804688 451.039062 1178.324219 C 450.890625 1178.847656 450.710938 1179.34375 450.496094 1179.8125 C 450.28125 1180.28125 450.039062 1180.714844 449.769531 1181.113281 C 449.496094 1181.515625 449.199219 1181.871094 448.878906 1182.183594 C 448.558594 1182.5 448.222656 1182.761719 447.867188 1182.980469 C 447.511719 1183.195312 447.144531 1183.359375 446.765625 1183.46875 C 446.386719 1183.578125 446.007812 1183.632812 445.621094 1183.632812 C 445.238281 1183.632812 444.855469 1183.578125 444.476562 1183.46875 C 444.101562 1183.359375 443.734375 1183.195312 443.378906 1182.980469 C 443.023438 1182.761719 442.683594 1182.5 442.363281 1182.183594 C 442.042969 1181.871094 441.746094 1181.515625 441.476562 1181.113281 C 441.203125 1180.714844 440.960938 1180.28125 440.746094 1179.8125 C 440.53125 1179.34375 440.351562 1178.847656 440.203125 1178.324219 C 440.058594 1177.804688 439.945312 1177.265625 439.871094 1176.710938 C 439.796875 1176.15625 439.757812 1175.597656 439.757812 1175.035156 C 439.757812 1174.46875 439.796875 1173.910156 439.871094 1173.355469 C 439.945312 1172.800781 440.058594 1172.265625 440.203125 1171.742188 C 440.351562 1171.222656 440.53125 1170.726562 440.746094 1170.257812 C 440.960938 1169.785156 441.203125 1169.351562 441.476562 1168.953125 C 441.746094 1168.554688 442.042969 1168.199219 442.363281 1167.882812 C 442.683594 1167.570312 443.023438 1167.304688 443.378906 1167.089844 C 443.734375 1166.871094 444.101562 1166.710938 444.476562 1166.597656 C 444.855469 1166.488281 445.238281 1166.433594 445.621094 1166.433594 C 446.007812 1166.433594 446.386719 1166.488281 446.765625 1166.597656 C 447.144531 1166.710938 447.511719 1166.871094 447.867188 1167.089844 C 448.222656 1167.304688 448.558594 1167.570312 448.878906 1167.882812 C 449.199219 1168.199219 449.496094 1168.554688 449.769531 1168.953125 C 450.039062 1169.351562 450.28125 1169.785156 450.496094 1170.257812 C 450.710938 1170.726562 450.890625 1171.222656 451.039062 1171.742188 C 451.1875 1172.265625 451.296875 1172.800781 451.371094 1173.355469 C 451.449219 1173.910156 451.484375 1174.46875 451.484375 1175.035156 Z M 451.484375 1175.035156 " fill-opacity="1" fill-rule="nonzero"/><path fill="#ffffff" d="M 449.335938 1170.734375 C 449.335938 1171.046875 449.277344 1171.34375 449.15625 1171.632812 C 449.039062 1171.917969 448.867188 1172.171875 448.648438 1172.394531 C 448.429688 1172.613281 448.175781 1172.78125 447.886719 1172.902344 C 447.601562 1173.019531 447.300781 1173.078125 446.988281 1173.078125 C 446.679688 1173.078125 446.378906 1173.019531 446.09375 1172.902344 C 445.804688 1172.78125 445.550781 1172.613281 445.332031 1172.394531 C 445.113281 1172.171875 444.941406 1171.917969 444.824219 1171.632812 C 444.703125 1171.34375 444.644531 1171.046875 444.644531 1170.734375 C 444.644531 1170.421875 444.703125 1170.125 444.824219 1169.835938 C 444.941406 1169.550781 445.113281 1169.296875 445.332031 1169.074219 C 445.550781 1168.855469 445.804688 1168.6875 446.09375 1168.566406 C 446.378906 1168.449219 446.679688 1168.390625 446.988281 1168.390625 C 447.300781 1168.390625 447.601562 1168.449219 447.886719 1168.566406 C 448.175781 1168.6875 448.429688 1168.855469 448.648438 1169.074219 C 448.867188 1169.296875 449.039062 1169.550781 449.15625 1169.835938 C 449.277344 1170.125 449.335938 1170.421875 449.335938 1170.734375 Z M 449.335938 1170.734375 " fill-opacity="1" fill-rule="nonzero"/><path stroke-linecap="butt" transform="matrix(1.9545, 0, 0, 1.9545, -304.90614, -32.846703)" fill="none" stroke-linejoin="miter" d="M 372.399797 620.099 C 372.399797 620.099 368.700402 622.899029 372.399797 625.399269 " stroke="#efebe0" stroke-width="0.857" stroke-opacity="1" stroke-miterlimit="10"/></svg>