<svg xmlns="http://www.w3.org/2000/svg" xmlns:xlink="http://www.w3.org/1999/xlink" width="2000" zoomAndPan="magnify" viewBox="0 0 1500 1499.999933" height="2000" preserveAspectRatio="xMidYMid meet" version="1.0"><defs><g/></defs><g fill="#9b2828" fill-opacity="1"><g transform="translate(717.512324, 785.301464)"><g><path d="M 43.421875 -88.640625 L 29.1875 -86.859375 L 29.1875 -5.921875 L 47.34375 -5.921875 C 57.125 -5.921875 64.304688 -6.378906 68.890625 -7.296875 L 73.15625 -26.5 L 77.640625 -26.5 L 76.390625 0 L 4.0625 0 L 4.0625 -3.640625 L 15.90625 -5.5 L 15.90625 -86.859375 L 4.0625 -88.640625 L 4.0625 -92.296875 L 43.421875 -92.296875 Z M 43.421875 -88.640625 "/></g></g></g><path fill="#9b2828" d="M 669.800781 477.636719 C 682.824219 478.507812 696.71875 478.507812 709.742188 478.507812 C 712.347656 478.507812 714.953125 478.507812 716.691406 478.507812 C 701.925781 478.507812 687.164062 477.636719 672.402344 476.769531 C 671.535156 476.769531 670.667969 477.636719 669.800781 477.636719 Z M 669.800781 477.636719 " fill-opacity="1" fill-rule="nonzero"/><path fill="#9b2828" d="M 868.652344 732.933594 C 869.519531 734.667969 870.386719 736.40625 871.257812 738.144531 C 872.125 739.011719 873.863281 739.878906 876.464844 739.878906 C 879.070312 739.878906 880.808594 739.011719 881.675781 738.144531 C 882.542969 737.273438 884.28125 735.539062 884.28125 732.933594 C 885.148438 731.195312 885.148438 728.589844 885.148438 726.855469 C 885.148438 724.25 885.148438 722.511719 885.148438 720.777344 L 885.148438 664.332031 C 885.148438 662.597656 885.148438 659.992188 885.148438 658.253906 C 885.148438 655.648438 884.28125 653.914062 884.28125 652.175781 C 883.414062 650.4375 882.542969 648.703125 881.675781 646.964844 C 880.808594 646.097656 878.203125 645.230469 876.464844 645.230469 C 873.863281 645.230469 872.125 646.097656 871.257812 646.964844 C 870.386719 647.835938 868.652344 649.570312 868.652344 652.175781 C 867.785156 653.914062 867.785156 656.519531 867.785156 658.253906 C 867.785156 660.859375 867.785156 662.597656 867.785156 664.332031 L 867.785156 720.777344 C 867.785156 722.511719 867.785156 725.117188 867.785156 726.855469 C 867.785156 729.460938 867.785156 731.195312 868.652344 732.933594 Z M 868.652344 732.933594 " fill-opacity="1" fill-rule="nonzero"/><path fill="#9b2828" d="M 610.75 650.441406 C 609.882812 648.703125 609.015625 646.964844 608.144531 645.230469 C 607.277344 644.363281 604.671875 643.492188 602.9375 643.492188 C 600.332031 643.492188 598.59375 644.359375 597.726562 645.230469 C 596.859375 646.097656 595.121094 647.835938 595.121094 650.441406 C 594.253906 652.175781 594.253906 654.78125 594.253906 656.519531 C 594.253906 659.125 594.253906 660.859375 594.253906 662.597656 L 594.253906 719.039062 C 594.253906 720.777344 594.253906 723.382812 594.253906 725.117188 C 594.253906 727.722656 595.121094 729.460938 595.121094 731.195312 C 595.988281 732.933594 596.859375 734.671875 597.726562 736.40625 C 598.59375 737.273438 600.332031 738.144531 602.9375 738.144531 C 605.542969 738.144531 607.277344 737.273438 608.144531 736.40625 C 609.015625 735.539062 610.75 733.800781 610.75 731.195312 C 611.621094 729.460938 611.621094 726.855469 611.621094 725.117188 C 611.621094 722.511719 611.621094 720.777344 611.621094 719.039062 L 611.621094 662.597656 C 611.621094 660.859375 611.621094 658.253906 611.621094 656.519531 C 611.621094 654.78125 610.75 652.175781 610.75 650.441406 Z M 610.75 650.441406 " fill-opacity="1" fill-rule="nonzero"/><path fill="#9b2828" d="M 629.855469 644.359375 C 628.988281 642.625 628.117188 640.019531 627.25 638.28125 C 624.644531 634.808594 622.039062 631.335938 617.699219 628.730469 C 613.355469 626.125 608.148438 625.257812 602.070312 625.257812 C 595.988281 625.257812 590.78125 626.125 586.4375 628.730469 C 582.097656 631.335938 578.621094 634.808594 576.886719 638.28125 C 576.019531 640.019531 575.148438 641.757812 574.28125 644.359375 C 573.414062 646.097656 573.414062 648.703125 572.542969 651.308594 C 572.542969 653.914062 571.675781 656.519531 571.675781 659.125 C 571.675781 662.597656 571.675781 666.070312 571.675781 670.410156 L 571.675781 713.828125 C 571.675781 718.171875 571.675781 721.644531 571.675781 724.25 C 571.675781 727.722656 571.675781 730.328125 572.542969 732.066406 C 572.542969 734.667969 573.414062 736.40625 574.28125 739.011719 C 575.148438 740.75 576.019531 743.351562 576.886719 745.089844 C 579.492188 748.5625 582.097656 752.035156 586.4375 754.640625 C 590.78125 757.246094 595.988281 758.113281 602.070312 758.113281 C 608.148438 758.113281 613.355469 757.246094 617.699219 754.640625 C 622.039062 752.035156 624.644531 748.5625 627.25 745.089844 C 628.117188 743.351562 628.988281 740.75 629.855469 739.011719 C 630.722656 737.273438 630.722656 734.667969 631.59375 732.066406 C 631.59375 729.460938 632.460938 726.855469 632.460938 724.25 C 632.460938 720.777344 632.460938 717.300781 632.460938 713.828125 L 632.460938 670.410156 C 632.460938 666.070312 632.460938 662.597656 632.460938 659.125 C 632.460938 655.648438 632.460938 653.042969 631.59375 651.308594 C 631.59375 648.703125 630.722656 646.097656 629.855469 644.359375 Z M 611.621094 719.90625 C 611.621094 721.644531 611.621094 724.25 611.621094 725.984375 C 611.621094 728.589844 610.75 730.328125 610.75 732.066406 C 609.882812 733.800781 609.015625 735.539062 608.148438 737.273438 C 607.277344 738.144531 604.671875 739.011719 602.9375 739.011719 C 600.332031 739.011719 598.59375 738.144531 597.726562 737.273438 C 596.859375 736.40625 595.121094 734.667969 595.121094 732.066406 C 594.253906 730.328125 594.253906 727.722656 594.253906 725.984375 C 594.253906 723.382812 594.253906 721.644531 594.253906 719.90625 L 594.253906 663.464844 C 594.253906 661.726562 594.253906 659.125 594.253906 657.386719 C 594.253906 654.78125 595.121094 653.042969 595.121094 651.308594 C 595.992188 649.570312 596.859375 647.835938 597.726562 646.097656 C 598.59375 645.230469 600.332031 644.359375 602.9375 644.359375 C 605.542969 644.359375 607.277344 645.230469 608.148438 646.097656 C 609.015625 646.964844 610.75 648.703125 610.75 651.308594 C 611.621094 653.042969 611.621094 655.648438 611.621094 657.386719 C 611.621094 659.992188 611.621094 661.726562 611.621094 663.464844 Z M 611.621094 719.90625 " fill-opacity="1" fill-rule="nonzero"/><path fill="#9b2828" d="M 848.679688 739.011719 C 849.546875 740.75 850.417969 743.351562 851.285156 745.089844 C 853.890625 748.5625 856.496094 752.035156 860.835938 754.640625 C 865.179688 757.246094 870.386719 758.113281 876.464844 758.113281 C 882.542969 758.113281 887.753906 757.246094 892.097656 754.640625 C 896.4375 752.035156 899.042969 748.5625 901.648438 745.089844 C 902.515625 743.351562 903.386719 740.75 904.253906 739.011719 C 905.121094 737.273438 905.121094 734.667969 905.988281 732.066406 C 905.988281 729.460938 906.859375 726.855469 906.859375 724.25 C 906.859375 720.777344 906.859375 717.300781 906.859375 713.828125 L 906.859375 670.410156 C 906.859375 666.070312 906.859375 662.597656 906.859375 659.125 C 906.859375 655.648438 906.859375 653.042969 905.988281 651.308594 C 905.988281 648.703125 905.121094 646.964844 904.253906 644.359375 C 903.386719 642.625 902.515625 640.019531 901.648438 638.28125 C 899.042969 634.808594 896.4375 631.335938 892.097656 628.730469 C 887.753906 626.125 882.542969 625.257812 876.464844 625.257812 C 870.386719 625.257812 865.179688 626.125 860.835938 628.730469 C 856.496094 631.335938 853.019531 634.808594 851.285156 638.28125 C 850.417969 640.019531 849.546875 641.757812 848.679688 644.359375 C 847.8125 646.097656 847.8125 648.703125 846.941406 651.308594 C 846.941406 653.914062 846.074219 656.519531 846.074219 659.125 C 846.074219 662.597656 846.074219 666.070312 846.074219 670.410156 L 846.074219 713.828125 C 846.074219 718.171875 846.074219 721.644531 846.074219 724.25 C 846.074219 727.722656 846.074219 730.328125 846.941406 732.066406 C 847.8125 735.539062 847.8125 737.273438 848.679688 739.011719 Z M 866.914062 663.464844 C 866.914062 661.726562 866.914062 659.125 866.914062 657.386719 C 866.914062 654.78125 867.78125 653.042969 867.78125 651.308594 C 868.652344 649.570312 869.519531 647.835938 870.386719 646.097656 C 871.257812 645.230469 872.992188 644.359375 875.597656 644.359375 C 878.203125 644.359375 879.9375 645.230469 880.808594 646.097656 C 881.675781 646.964844 883.414062 648.703125 883.414062 651.308594 C 884.28125 653.042969 884.28125 655.648438 884.28125 657.386719 C 884.28125 659.992188 884.28125 661.726562 884.28125 663.464844 L 884.28125 719.90625 C 884.28125 721.644531 884.28125 724.25 884.28125 725.984375 C 884.28125 728.589844 883.414062 730.328125 883.414062 732.066406 C 882.542969 733.800781 881.675781 735.539062 880.808594 737.273438 C 879.9375 738.144531 877.332031 739.011719 875.597656 739.011719 C 872.992188 739.011719 871.257812 738.144531 870.386719 737.273438 C 869.519531 736.40625 867.78125 734.667969 867.78125 732.066406 C 866.914062 730.328125 866.914062 727.722656 866.914062 725.984375 C 866.914062 723.382812 866.914062 721.644531 866.914062 719.90625 Z M 866.914062 663.464844 " fill-opacity="1" fill-rule="nonzero"/><path fill="#9b2828" d="M 569.070312 1117.613281 C 566.464844 1115.875 562.992188 1114.136719 560.386719 1112.402344 " fill-opacity="1" fill-rule="nonzero"/><path fill="#9b2828" d="M 1291.539062 502.820312 L 1123.945312 381.25 L 1101.371094 364.753906 L 1045.796875 323.941406 L 1044.058594 323.070312 L 751.425781 110.324219 L 477.894531 309.179688 C 531.730469 337.832031 602.066406 358.675781 681.957031 367.359375 C 678.484375 368.226562 674.140625 368.226562 670.667969 369.09375 C 591.648438 362.148438 519.574219 345.648438 458.789062 322.203125 L 370.21875 386.460938 C 404.085938 411.644531 449.238281 432.484375 502.207031 448.113281 C 498.734375 450.71875 495.261719 453.324219 491.789062 456.796875 C 433.609375 444.640625 382.375 428.140625 340.695312 408.171875 L 210.441406 502.820312 C 266.015625 526.265625 332.011719 546.238281 404.953125 561 C 371.085938 620.046875 351.113281 688.648438 351.113281 761.589844 C 351.113281 904 425.792969 1029.039062 537.808594 1100.246094 C 544.757812 1104.585938 550.835938 1108.0625 557.78125 1112.402344 C 561.253906 1114.140625 563.859375 1115.875 566.464844 1117.613281 C 635.066406 1156.6875 681.957031 1230.496094 681.957031 1315.597656 C 681.957031 1317.332031 681.957031 1318.199219 681.957031 1319.9375 C 681.957031 1319.9375 682.824219 1319.9375 682.824219 1319.9375 C 687.164062 1263.496094 701.925781 1210.527344 725.375 1162.765625 C 733.1875 1147.136719 741.003906 1132.375 750.554688 1118.480469 C 765.316406 1095.902344 781.816406 1075.0625 800.050781 1055.960938 C 783.550781 1058.566406 767.054688 1060.300781 750.554688 1060.300781 C 586.4375 1060.300781 454.449219 927.445312 454.449219 764.195312 C 454.449219 695.59375 477.894531 633.074219 516.96875 582.707031 C 589.910156 592.261719 668.0625 597.472656 749.6875 597.472656 C 832.179688 597.472656 911.199219 592.261719 985.011719 582.707031 C 1024.085938 633.074219 1047.53125 696.460938 1047.53125 764.195312 C 1047.53125 830.1875 1025.824219 890.972656 990.21875 939.601562 C 971.984375 963.914062 951.144531 985.625 926.832031 1002.992188 C 917.28125 1009.070312 907.726562 1015.148438 899.042969 1021.226562 C 846.074219 1058.566406 801.789062 1107.191406 770.527344 1164.503906 C 763.582031 1176.660156 757.503906 1189.6875 751.425781 1202.710938 C 732.320312 1245.261719 720.164062 1292.152344 716.691406 1339.910156 C 715.820312 1352.933594 714.953125 1365.09375 714.953125 1378.117188 C 714.953125 1384.195312 714.953125 1390.273438 714.953125 1396.351562 C 727.109375 1395.484375 739.265625 1395.484375 751.425781 1395.484375 C 773.132812 1395.484375 793.972656 1396.351562 814.8125 1398.957031 C 819.15625 1275.652344 880.808594 1167.109375 973.722656 1098.507812 L 971.984375 1099.378906 C 1030.164062 1060.300781 1077.921875 1006.464844 1110.050781 943.941406 C 1113.527344 936.996094 1117 930.050781 1119.605469 922.234375 C 1140.445312 873.605469 1151.734375 820.636719 1151.734375 765.0625 C 1151.734375 692.121094 1131.761719 623.523438 1097.894531 564.472656 C 1171.707031 546.238281 1236.832031 526.265625 1291.539062 502.820312 Z M 709.742188 478.507812 C 695.851562 478.507812 682.824219 478.507812 669.800781 477.636719 C 670.667969 477.636719 671.535156 476.769531 672.40625 476.769531 C 687.167969 477.636719 701.929688 478.507812 716.691406 478.507812 C 714.085938 478.507812 711.480469 478.507812 709.742188 478.507812 Z M 709.742188 478.507812 " fill-opacity="1" fill-rule="nonzero"/></svg>