<svg xmlns="http://www.w3.org/2000/svg" xmlns:xlink="http://www.w3.org/1999/xlink" width="2000" zoomAndPan="magnify" viewBox="0 0 1500 1499.999933" height="2000" preserveAspectRatio="xMidYMid meet" version="1.0"><path fill="#9b2828" d="M 1250.726562 760.007812 L 251.171875 760.007812 C 246.570312 760.007812 242.886719 756.324219 242.886719 751.722656 L 242.886719 720.429688 C 242.886719 715.828125 246.570312 712.144531 251.171875 712.144531 L 1250.726562 712.144531 C 1255.328125 712.144531 1259.007812 715.828125 1259.007812 720.429688 L 1259.007812 751.722656 C 1259.007812 756.324219 1255.328125 760.007812 1250.726562 760.007812 Z M 1250.726562 760.007812 " fill-opacity="1" fill-rule="nonzero"/><path fill="#9b2828" d="M 438.933594 750.804688 L 374.503906 750.804688 L 374.503906 1060.980469 C 374.503906 1070.183594 381.867188 1076.625 390.152344 1077.546875 L 438.933594 1041.648438 Z M 438.933594 750.804688 " fill-opacity="1" fill-rule="nonzero"/><path fill="#9b2828" d="M 1069.40625 750.804688 L 1133.835938 750.804688 L 1133.835938 1060.980469 C 1133.835938 1070.183594 1126.472656 1076.625 1118.1875 1077.546875 L 1069.40625 1041.648438 Z M 1069.40625 750.804688 " fill-opacity="1" fill-rule="nonzero"/><path fill="#9b2828" d="M 1096.097656 551.078125 C 1066.644531 532.667969 1037.191406 398.289062 1037.191406 398.289062 C 1037.191406 398.289062 1039.953125 387.246094 1047.316406 364.234375 C 1054.679688 342.144531 1041.796875 336.625 1041.796875 336.625 C 981.050781 334.78125 972.765625 398.289062 972.765625 398.289062 L 530.054688 398.289062 C 530.054688 398.289062 521.769531 334.78125 461.023438 336.625 C 461.023438 336.625 448.136719 342.144531 455.5 364.234375 C 462.863281 386.324219 465.625 398.289062 465.625 398.289062 C 465.625 398.289062 436.171875 532.667969 406.71875 551.078125 C 377.265625 569.484375 248.410156 657.84375 112.191406 566.722656 C 112.191406 566.722656 119.554688 662.445312 214.355469 671.648438 C 299.03125 679.933594 669.035156 673.492188 750.949219 671.648438 C 832.863281 673.492188 1202.867188 679.933594 1287.542969 671.648438 C 1383.261719 661.527344 1389.707031 566.722656 1389.707031 566.722656 C 1254.40625 657.84375 1125.550781 569.484375 1096.097656 551.078125 Z M 1096.097656 551.078125 " fill-opacity="1" fill-rule="nonzero"/><path fill="#9b2828" d="M 750.949219 794.0625 C 750.949219 794.0625 481.273438 1144.734375 173.859375 1171.425781 C 173.859375 1171.425781 433.410156 1202.71875 750.949219 945.929688 Z M 750.949219 794.0625 " fill-opacity="1" fill-rule="nonzero"/><path fill="#9b2828" d="M 750.949219 794.0625 C 750.949219 794.0625 1020.625 1144.734375 1328.039062 1171.425781 C 1328.039062 1171.425781 1068.488281 1202.71875 750.949219 945.929688 Z M 750.949219 794.0625 " fill-opacity="1" fill-rule="nonzero"/></svg>