<svg xmlns="http://www.w3.org/2000/svg" xmlns:xlink="http://www.w3.org/1999/xlink" width="2000" zoomAndPan="magnify" viewBox="60 590 1390 350" height="2000" preserveAspectRatio="xMidYMid meet" version="1.0"><path fill="#110b79" d="M 1385.667969 913.832031 C 1389.328125 912.703125 1393.269531 911.296875 1396.929688 909.890625 C 1396.929688 909.609375 1396.648438 909.324219 1396.648438 909.042969 C 1392.988281 910.734375 1389.328125 912.140625 1385.667969 913.832031 Z M 1385.667969 913.832031 " fill-opacity="1" fill-rule="nonzero"/><path fill="#efebe0" d="M 88.566406 907.355469 C 89.976562 905.949219 91.382812 903.132812 92.226562 899.472656 C 93.070312 895.8125 93.917969 891.589844 94.480469 886.800781 C 95.042969 882.015625 95.324219 876.949219 95.605469 871.316406 C 95.886719 865.6875 95.886719 860.335938 96.167969 855.269531 C 96.167969 850.199219 96.167969 845.414062 96.167969 840.910156 C 96.167969 836.6875 95.886719 833.308594 95.886719 830.773438 L 95.886719 689.4375 C 95.886719 686.902344 95.886719 683.523438 96.167969 679.300781 C 96.167969 675.078125 96.167969 670.289062 96.167969 664.941406 C 96.167969 659.871094 95.886719 654.523438 95.605469 648.890625 C 95.324219 643.261719 95.042969 638.195312 94.480469 633.40625 C 93.917969 628.621094 93.070312 624.398438 92.226562 620.738281 C 91.382812 617.078125 89.976562 614.542969 88.566406 612.855469 L 150.789062 612.855469 C 149.382812 614.261719 147.972656 617.078125 147.128906 620.738281 C 146.285156 624.398438 145.441406 628.621094 144.878906 633.40625 C 144.3125 638.195312 144.03125 643.261719 143.75 648.890625 C 143.46875 654.523438 143.46875 659.871094 143.1875 664.941406 C 143.1875 670.007812 143.1875 674.796875 143.1875 679.300781 C 143.1875 683.523438 143.46875 686.902344 143.46875 689.4375 L 143.46875 866.53125 L 151.070312 866.53125 C 157.546875 866.53125 163.460938 866.53125 168.527344 866.53125 C 173.59375 866.53125 178.101562 866.25 182.605469 865.6875 C 187.109375 865.121094 191.613281 864.277344 196.121094 862.871094 C 200.625 861.460938 205.691406 859.773438 211.324219 857.238281 L 211.324219 907.074219 L 88.566406 907.074219 Z M 88.566406 907.355469 " fill-opacity="1" fill-rule="nonzero"/><path fill="#efebe0" d="M 465.5625 710.550781 C 465.5625 701.261719 465.84375 693.378906 466.125 686.339844 C 466.40625 679.582031 466.96875 673.386719 467.816406 668.039062 C 468.660156 662.6875 469.785156 657.902344 471.476562 653.398438 C 473.164062 648.890625 475.136719 644.667969 477.949219 640.164062 C 483.019531 631.4375 490.339844 624.398438 499.628906 618.765625 C 508.921875 613.136719 520.464844 610.320312 533.980469 610.320312 C 547.492188 610.320312 559.039062 613.136719 568.328125 618.765625 C 577.621094 624.398438 584.941406 631.4375 590.007812 640.164062 C 592.542969 644.386719 594.792969 648.890625 596.484375 653.398438 C 598.171875 657.902344 599.300781 662.6875 600.144531 668.039062 C 600.988281 673.386719 601.550781 679.582031 601.832031 686.339844 C 602.113281 693.097656 602.394531 701.261719 602.394531 710.550781 L 602.394531 715.902344 L 554.25 715.902344 L 554.25 695.910156 C 554.25 691.40625 553.96875 686.621094 553.6875 681.550781 C 553.40625 676.484375 552.5625 671.699219 551.152344 667.195312 C 549.746094 662.6875 547.773438 659.027344 544.960938 656.214844 C 542.144531 653.398438 538.203125 651.988281 533.132812 651.988281 C 528.066406 651.988281 524.125 653.398438 521.308594 656.214844 C 518.492188 659.027344 516.523438 662.6875 515.117188 667.195312 C 513.707031 671.699219 513.144531 676.484375 512.863281 681.550781 C 512.582031 686.621094 512.582031 691.40625 512.582031 695.910156 L 512.582031 821.765625 C 512.582031 826.269531 512.582031 831.054688 512.863281 836.125 C 513.144531 841.191406 513.707031 845.976562 515.117188 850.480469 C 516.523438 854.988281 518.492188 858.648438 521.308594 861.460938 C 524.125 864.277344 528.066406 865.6875 533.132812 865.6875 C 538.203125 865.6875 542.144531 864.277344 544.960938 861.460938 C 547.773438 858.648438 549.746094 854.988281 551.152344 850.480469 C 552.5625 845.976562 553.40625 841.191406 553.6875 836.125 C 553.96875 831.054688 554.25 826.269531 554.25 821.765625 L 554.25 798.957031 L 601.832031 798.957031 L 601.832031 807.125 C 601.832031 816.414062 601.832031 824.296875 601.269531 831.335938 C 600.988281 838.09375 600.425781 844.289062 599.582031 849.917969 C 598.734375 855.269531 597.609375 860.335938 595.921875 864.839844 C 594.230469 869.347656 592.261719 873.570312 589.445312 878.074219 C 584.375 886.519531 577.054688 893.558594 567.765625 899.191406 C 558.472656 904.820312 546.929688 907.636719 533.417969 907.636719 C 519.902344 907.636719 508.359375 904.820312 499.066406 899.191406 C 489.777344 893.558594 482.457031 886.519531 477.386719 878.074219 C 474.855469 873.851562 472.601562 869.347656 470.910156 864.839844 C 469.222656 860.335938 468.097656 855.550781 467.25 849.917969 C 466.40625 844.570312 465.84375 838.375 465.5625 831.335938 C 465.28125 824.578125 465 816.414062 465 807.125 L 465 710.550781 Z M 465.5625 710.550781 " fill-opacity="1" fill-rule="nonzero"/><path fill="#efebe0" d="M 624.355469 711.113281 C 624.355469 701.824219 624.636719 693.660156 624.921875 686.621094 C 625.203125 679.863281 625.765625 673.667969 626.609375 668.039062 C 627.453125 662.6875 628.582031 657.621094 630.269531 653.117188 C 631.957031 648.609375 633.929688 644.386719 636.746094 639.882812 C 642.09375 631.15625 649.414062 624.117188 658.707031 618.484375 C 667.996094 612.855469 679.539062 610.039062 693.335938 610.039062 C 707.132812 610.039062 718.957031 612.855469 728.25 618.484375 C 737.539062 624.117188 744.859375 631.15625 749.929688 639.882812 C 752.460938 644.105469 754.714844 648.609375 756.402344 653.117188 C 758.09375 657.621094 759.21875 662.40625 760.0625 668.039062 C 760.910156 673.386719 761.472656 679.582031 761.753906 686.621094 C 762.035156 693.378906 762.316406 701.542969 762.316406 711.113281 L 762.316406 809.375 C 762.316406 818.667969 762.035156 826.832031 761.753906 833.589844 C 761.472656 840.628906 760.910156 846.820312 760.0625 852.171875 C 759.21875 857.519531 758.09375 862.308594 756.402344 866.8125 C 754.714844 871.316406 752.742188 875.820312 749.929688 880.328125 C 744.578125 889.054688 737.539062 896.09375 728.25 901.722656 C 718.957031 907.355469 707.414062 910.171875 693.617188 910.171875 C 679.820312 910.171875 668.277344 907.355469 658.988281 901.722656 C 649.695312 896.09375 642.375 889.054688 637.027344 880.328125 C 634.492188 875.820312 632.242188 871.316406 630.550781 866.8125 C 628.863281 862.308594 627.734375 857.519531 626.890625 852.171875 C 626.046875 846.820312 625.484375 840.628906 625.203125 833.589844 C 624.921875 826.550781 624.636719 818.386719 624.636719 809.375 L 624.636719 711.113281 Z M 671.375 824.015625 C 671.375 828.519531 671.375 833.308594 671.9375 838.65625 C 672.21875 843.726562 673.066406 848.511719 674.472656 853.015625 C 675.878906 857.238281 678.132812 860.898438 680.949219 863.996094 C 683.765625 866.8125 687.707031 868.5 692.773438 868.5 C 697.839844 868.5 701.78125 867.09375 704.878906 863.996094 C 707.695312 861.179688 709.949219 857.519531 711.355469 853.015625 C 712.761719 848.792969 713.609375 844.007812 714.171875 838.65625 C 714.453125 833.589844 714.734375 828.519531 714.734375 824.015625 L 714.734375 696.191406 C 714.734375 691.6875 714.453125 686.902344 714.171875 681.550781 C 713.890625 676.484375 712.761719 671.699219 711.355469 667.191406 C 709.949219 662.96875 707.695312 659.308594 704.878906 656.210938 C 702.066406 653.398438 697.839844 651.707031 692.773438 651.707031 C 687.707031 651.707031 683.765625 653.117188 680.949219 656.210938 C 678.132812 659.027344 675.878906 662.6875 674.472656 667.191406 C 673.066406 671.417969 672.21875 676.203125 671.9375 681.550781 C 671.65625 686.621094 671.375 691.6875 671.375 696.191406 Z M 671.375 824.015625 " fill-opacity="1" fill-rule="nonzero"/><path fill="#efebe0" d="M 784.558594 907.355469 C 785.964844 905.949219 787.375 903.132812 788.21875 899.472656 C 789.0625 895.8125 789.90625 891.589844 790.472656 886.800781 C 791.035156 882.015625 791.316406 876.949219 791.597656 871.316406 C 791.878906 865.6875 791.878906 860.335938 792.160156 855.269531 C 792.160156 850.199219 792.160156 845.414062 792.160156 840.910156 C 792.160156 836.6875 791.878906 833.308594 791.878906 830.773438 L 791.878906 689.4375 C 791.878906 686.902344 791.878906 683.523438 792.160156 679.300781 C 792.160156 675.078125 792.160156 670.289062 792.160156 664.941406 C 792.160156 659.871094 791.878906 654.523438 791.597656 648.890625 C 791.316406 643.261719 791.035156 638.195312 790.472656 633.40625 C 789.90625 628.621094 789.0625 624.398438 788.21875 620.738281 C 787.375 617.078125 785.964844 614.542969 784.558594 612.855469 L 846.21875 612.855469 L 880.566406 807.6875 L 914.636719 612.855469 L 976.292969 612.855469 C 974.886719 614.261719 973.480469 617.078125 972.632812 620.738281 C 971.789062 624.398438 970.945312 628.621094 970.382812 633.40625 C 969.820312 638.195312 969.539062 643.261719 969.253906 648.890625 C 968.972656 654.523438 968.691406 659.871094 968.691406 664.941406 C 968.691406 670.007812 968.691406 674.796875 968.691406 679.300781 C 968.691406 683.523438 968.691406 686.902344 968.691406 689.4375 L 968.691406 830.773438 C 968.691406 833.308594 968.691406 836.6875 968.691406 840.910156 C 968.691406 845.132812 968.691406 849.917969 968.691406 855.269531 C 968.691406 860.335938 968.972656 865.6875 969.253906 871.316406 C 969.539062 876.949219 969.820312 882.015625 970.382812 886.800781 C 970.945312 891.589844 971.507812 895.8125 972.632812 899.472656 C 973.480469 903.132812 974.886719 905.664062 976.292969 907.355469 L 914.351562 907.636719 C 915.761719 906.230469 917.167969 903.414062 918.011719 899.753906 C 918.859375 896.09375 919.703125 891.871094 920.265625 887.082031 C 920.828125 882.296875 921.109375 877.230469 921.390625 871.597656 C 921.671875 865.96875 921.671875 860.617188 921.957031 855.550781 C 921.957031 850.480469 921.957031 845.695312 921.957031 841.191406 C 921.957031 836.96875 921.957031 833.589844 921.957031 831.054688 L 921.957031 723.222656 L 895.488281 882.859375 L 866.207031 882.859375 L 839.460938 723.222656 L 839.460938 831.054688 C 839.460938 833.589844 839.460938 836.96875 839.460938 841.191406 C 839.460938 845.414062 839.460938 850.199219 839.460938 855.550781 C 839.460938 860.617188 839.460938 865.96875 840.023438 871.597656 C 840.304688 877.230469 840.585938 882.296875 841.152344 887.082031 C 841.714844 891.871094 842.277344 896.09375 843.402344 899.753906 C 844.246094 903.414062 845.65625 905.949219 847.0625 907.636719 Z M 784.558594 907.355469 " fill-opacity="1" fill-rule="nonzero"/><path fill="#efebe0" d="M 989.246094 907.355469 C 991.496094 903.132812 993.46875 898.0625 995.441406 891.871094 C 997.410156 885.675781 999.101562 879.199219 1000.789062 872.441406 C 1002.480469 865.6875 1003.886719 858.929688 1005.011719 852.171875 C 1006.140625 845.414062 1007.265625 839.21875 1008.390625 833.871094 C 1012.050781 812.472656 1015.710938 792.765625 1018.808594 774.746094 C 1021.90625 756.726562 1025.285156 739.269531 1028.382812 722.09375 C 1031.476562 704.921875 1034.574219 687.746094 1037.953125 670.007812 C 1041.050781 652.550781 1044.429688 633.40625 1048.089844 612.855469 L 1106.933594 612.855469 C 1110.59375 633.40625 1113.972656 652.269531 1117.070312 670.007812 C 1120.167969 687.464844 1123.265625 704.921875 1126.359375 722.09375 C 1129.457031 739.269531 1132.554688 756.726562 1135.933594 774.746094 C 1139.03125 792.765625 1142.691406 812.472656 1146.632812 833.871094 C 1147.476562 839.21875 1148.601562 845.414062 1150.011719 852.171875 C 1151.417969 858.929688 1152.828125 865.6875 1154.234375 872.441406 C 1155.640625 879.199219 1157.332031 885.675781 1159.300781 891.871094 C 1161.273438 898.0625 1163.242188 903.132812 1165.496094 907.355469 L 1096.796875 907.355469 C 1098.769531 902.570312 1100.175781 897.21875 1100.738281 891.871094 C 1101.304688 886.519531 1101.585938 881.171875 1101.304688 875.539062 C 1101.019531 869.910156 1100.738281 864.277344 1099.894531 858.648438 C 1099.050781 853.015625 1098.488281 847.667969 1097.925781 842.597656 L 1057.382812 842.597656 C 1056.816406 847.667969 1056.253906 853.015625 1055.410156 858.648438 C 1054.566406 864.277344 1054.285156 869.910156 1054.003906 875.539062 C 1053.722656 881.171875 1054.003906 886.519531 1054.847656 891.871094 C 1055.410156 897.21875 1056.816406 902.289062 1058.789062 907.355469 Z M 1092.292969 802.054688 L 1077.089844 677.328125 L 1061.886719 802.054688 Z M 1092.292969 802.054688 " fill-opacity="1" fill-rule="nonzero"/><path fill="#efebe0" d="M 1295.289062 612.855469 L 1295.289062 660.15625 C 1292.195312 658.183594 1289.378906 656.496094 1286.5625 655.085938 C 1283.746094 653.679688 1280.648438 652.550781 1276.988281 651.707031 C 1273.609375 650.863281 1269.386719 650.300781 1264.601562 649.738281 C 1259.816406 649.457031 1254.183594 649.171875 1247.425781 649.171875 L 1247.425781 835.277344 C 1247.425781 836.121094 1247.425781 838.09375 1247.425781 841.472656 C 1247.425781 844.851562 1247.707031 848.792969 1247.988281 853.578125 C 1248.273438 858.367188 1248.554688 863.433594 1249.117188 869.0625 C 1249.679688 874.695312 1250.242188 880.042969 1251.085938 885.113281 C 1251.933594 890.179688 1252.777344 894.683594 1254.183594 898.628906 C 1255.3125 902.570312 1257 905.382812 1258.6875 907.074219 L 1189.144531 907.074219 C 1190.835938 905.382812 1192.242188 902.570312 1193.652344 898.628906 C 1194.777344 894.683594 1195.902344 890.179688 1196.746094 885.113281 C 1197.59375 880.042969 1198.15625 874.695312 1198.71875 869.0625 C 1199.28125 863.433594 1199.5625 858.367188 1199.84375 853.578125 C 1200.125 848.792969 1200.125 844.851562 1200.40625 841.472656 C 1200.40625 838.09375 1200.40625 836.121094 1200.40625 835.277344 L 1200.40625 648.890625 C 1193.652344 648.890625 1188.019531 649.171875 1183.234375 649.457031 C 1178.449219 649.738281 1174.503906 650.582031 1170.84375 651.425781 C 1167.183594 652.269531 1164.089844 653.398438 1161.273438 654.804688 C 1158.457031 656.210938 1155.640625 657.902344 1152.542969 659.871094 L 1152.542969 612.855469 Z M 1200.125 835.558594 C 1200.40625 836.40625 1200.40625 837.25 1200.691406 837.53125 C 1200.691406 837.8125 1200.691406 837.53125 1200.410156 836.96875 L 1200.125 835.277344 Z M 1200.125 835.558594 " fill-opacity="1" fill-rule="nonzero"/><path fill="#efebe0" d="M 1316.6875 689.4375 C 1316.6875 686.902344 1316.6875 683.523438 1316.96875 679.300781 C 1316.96875 675.078125 1316.96875 670.289062 1316.96875 664.941406 C 1316.96875 659.871094 1316.6875 654.523438 1316.40625 648.890625 C 1316.125 643.261719 1315.84375 638.195312 1315.28125 633.40625 C 1314.71875 628.621094 1313.871094 624.398438 1313.027344 620.738281 C 1312.183594 617.078125 1310.777344 614.542969 1309.367188 612.855469 L 1435.785156 612.855469 L 1435.785156 662.6875 C 1430.152344 660.15625 1425.085938 658.183594 1420.863281 656.777344 C 1416.636719 655.648438 1412.132812 654.523438 1407.910156 653.960938 C 1403.6875 653.398438 1399.183594 653.117188 1394.394531 653.117188 C 1389.609375 653.117188 1383.980469 653.117188 1377.222656 653.117188 L 1363.988281 653.117188 L 1363.988281 716.746094 L 1388.203125 716.746094 C 1392.425781 716.746094 1396.085938 716.746094 1399.464844 716.183594 C 1402.84375 715.902344 1405.941406 715.339844 1408.753906 714.773438 C 1411.570312 714.210938 1414.386719 713.367188 1416.921875 712.242188 C 1419.453125 711.113281 1422.269531 709.988281 1425.085938 708.300781 L 1425.085938 765.734375 C 1422.269531 764.328125 1419.453125 762.921875 1416.921875 761.792969 C 1414.386719 760.667969 1411.570312 759.824219 1408.753906 758.976562 C 1405.941406 758.132812 1402.84375 757.570312 1399.464844 757.289062 C 1396.085938 757.007812 1392.425781 756.726562 1388.203125 756.726562 L 1363.988281 756.726562 L 1363.988281 865.6875 L 1377.222656 865.6875 C 1383.980469 865.6875 1389.609375 865.6875 1394.394531 865.6875 C 1399.183594 865.6875 1403.6875 865.40625 1407.910156 864.839844 C 1412.132812 864.277344 1416.355469 863.433594 1420.863281 862.027344 C 1425.085938 860.617188 1430.152344 858.929688 1435.785156 856.394531 L 1435.785156 906.230469 L 1309.367188 906.230469 C 1310.777344 904.820312 1312.183594 902.007812 1313.027344 898.347656 C 1313.871094 894.6875 1314.71875 890.460938 1315.28125 885.675781 C 1315.84375 880.890625 1316.125 875.820312 1316.40625 870.191406 C 1316.6875 864.558594 1316.6875 859.210938 1316.96875 854.140625 C 1316.96875 849.074219 1316.96875 844.289062 1316.96875 839.785156 C 1316.96875 835.558594 1316.6875 832.179688 1316.6875 829.648438 Z M 1316.6875 689.4375 " fill-opacity="1" fill-rule="nonzero"/><path fill="#efebe0" d="M 296.070312 653.679688 C 240.605469 653.679688 195.554688 698.726562 195.554688 754.191406 C 195.554688 789.949219 214.136719 821.484375 242.574219 839.21875 C 244.265625 840.347656 245.953125 841.191406 247.644531 842.316406 C 248.488281 842.597656 249.050781 843.160156 249.894531 843.445312 C 267.070312 853.296875 278.894531 871.878906 278.894531 892.996094 C 278.894531 893.277344 278.894531 893.558594 278.894531 894.121094 C 278.894531 894.121094 279.175781 894.121094 279.175781 894.121094 C 280.300781 880.046875 283.960938 866.53125 289.875 854.707031 C 291.847656 850.765625 293.816406 847.105469 296.351562 843.445312 C 300.011719 837.8125 304.234375 832.464844 308.738281 827.675781 C 304.796875 828.238281 300.574219 828.804688 296.351562 828.804688 C 255.246094 828.804688 222.023438 795.582031 222.023438 754.472656 C 222.023438 713.367188 255.246094 680.144531 296.351562 680.144531 C 337.457031 680.144531 370.679688 713.367188 370.679688 754.472656 C 370.679688 771.085938 365.332031 786.289062 356.320312 798.675781 C 351.816406 804.871094 346.464844 810.21875 340.273438 814.726562 C 338.019531 816.132812 335.484375 817.824219 333.234375 819.230469 C 320 828.519531 309.019531 840.910156 300.855469 855.269531 C 299.167969 858.367188 297.476562 861.460938 296.070312 864.839844 C 291.28125 875.539062 288.1875 887.082031 287.339844 899.472656 C 287.058594 902.570312 286.777344 905.949219 286.777344 909.042969 C 286.777344 910.453125 286.777344 912.140625 286.777344 913.550781 C 289.875 913.269531 292.972656 913.269531 296.070312 913.269531 C 301.417969 913.269531 306.769531 913.550781 312.117188 914.113281 C 313.242188 883.140625 328.730469 855.832031 352.097656 838.65625 L 351.535156 838.9375 C 366.175781 829.085938 378.28125 815.851562 386.164062 799.804688 C 387.011719 798.113281 387.855469 796.144531 388.699219 794.453125 C 393.765625 782.347656 396.863281 768.832031 396.863281 755.035156 C 396.582031 698.726562 351.535156 653.679688 296.070312 653.679688 Z M 296.070312 653.679688 " fill-opacity="1" fill-rule="nonzero"/><path fill="#efebe0" d="M 249.613281 843.445312 C 248.769531 842.878906 248.207031 842.597656 247.363281 842.316406 " fill-opacity="1" fill-rule="nonzero"/><path fill="#110b79" d="M 337.457031 697.039062 C 329.855469 692.8125 322.816406 688.589844 316.339844 684.085938 C 323.660156 688.871094 331.261719 693.378906 339.148438 697.882812 C 338.582031 697.601562 338.019531 697.320312 337.457031 697.039062 Z M 337.457031 697.039062 " fill-opacity="1" fill-rule="nonzero"/><path fill="#ffffff" d="M 339.148438 697.882812 C 374.902344 717.308594 410.941406 726.035156 435.4375 723.222656 L 439.941406 732.230469 C 412.914062 730.261719 377.15625 719 340.835938 699.007812 C 340.273438 698.445312 339.710938 698.164062 339.148438 697.882812 Z M 339.148438 697.882812 " fill-opacity="1" fill-rule="nonzero"/><path fill="#ffffff" d="M 422.203125 696.191406 C 398.273438 692.53125 371.242188 683.242188 344.214844 668.601562 C 343.089844 668.039062 341.960938 667.476562 340.835938 666.910156 C 368.992188 681.832031 396.863281 690 419.105469 690.5625 Z M 422.203125 696.191406 " fill-opacity="1" fill-rule="nonzero"/><path fill="#efebe0" d="M 316.339844 684.085938 C 323.660156 688.871094 331.261719 693.378906 339.148438 697.882812 C 338.582031 697.601562 338.019531 697.320312 337.457031 697.039062 C 330.136719 692.8125 323.097656 688.589844 316.339844 684.085938 Z M 316.339844 684.085938 " fill-opacity="1" fill-rule="nonzero"/><path fill="#efebe0" d="M 251.867188 620.175781 C 262.285156 639.882812 285.371094 663.25 316.339844 683.804688 C 323.097656 688.308594 330.136719 692.8125 337.457031 696.753906 C 338.019531 697.039062 338.582031 697.320312 339.148438 697.601562 C 339.710938 697.882812 340.273438 698.164062 340.835938 698.726562 C 376.875 718.714844 412.914062 729.980469 439.941406 731.949219 L 459.648438 771.648438 C 419.671875 766.863281 367.863281 749.125 315.496094 720.40625 C 263.128906 691.6875 220.613281 657.339844 194.992188 626.085938 Z M 251.867188 620.175781 " fill-opacity="1" fill-rule="nonzero"/><path fill="#efebe0" d="M 316.339844 684.085938 C 285.371094 663.25 262.003906 640.164062 251.867188 620.457031 L 259.75 619.609375 C 265.664062 639.601562 286.496094 663.53125 316.339844 684.085938 Z M 316.339844 684.085938 " fill-opacity="1" fill-rule="nonzero"/><path fill="#efebe0" d="M 259.46875 619.609375 L 278.332031 617.640625 C 291.847656 634.25 312.398438 651.425781 337.738281 665.222656 C 338.863281 665.785156 339.710938 666.347656 340.835938 666.910156 C 341.960938 667.476562 343.089844 668.039062 344.214844 668.601562 C 371.242188 683.523438 398.273438 692.8125 422.203125 696.191406 L 435.71875 723.222656 C 410.941406 726.035156 375.183594 717.308594 339.429688 697.882812 C 331.542969 693.378906 323.941406 688.871094 316.621094 684.085938 C 286.496094 663.53125 265.664062 639.601562 259.46875 619.609375 Z M 259.46875 619.609375 " fill-opacity="1" fill-rule="nonzero"/><path fill="#efebe0" d="M 278.613281 617.640625 L 279.175781 617.640625 C 294.378906 635.097656 315.496094 652.550781 341.117188 666.910156 C 339.992188 666.347656 339.148438 665.785156 338.019531 665.222656 C 312.679688 651.144531 292.128906 634.25 278.613281 617.640625 Z M 278.613281 617.640625 " fill-opacity="1" fill-rule="nonzero"/><path fill="#efebe0" d="M 377.71875 607.222656 L 419.105469 690.5625 C 396.863281 689.71875 368.710938 681.832031 340.835938 666.910156 C 315.214844 652.550781 294.097656 635.097656 278.894531 617.640625 Z M 377.71875 607.222656 " fill-opacity="1" fill-rule="nonzero"/><path fill="#efebe0" d="M 260.875 742.648438 C 260.875 743.460938 260.820312 744.265625 260.714844 745.066406 C 260.605469 745.863281 260.445312 746.636719 260.234375 747.390625 C 260.019531 748.140625 259.761719 748.855469 259.453125 749.53125 C 259.144531 750.207031 258.792969 750.832031 258.402344 751.40625 C 258.007812 751.984375 257.582031 752.496094 257.121094 752.949219 C 256.660156 753.402344 256.175781 753.78125 255.660156 754.09375 C 255.148438 754.40625 254.621094 754.640625 254.078125 754.796875 C 253.53125 754.957031 252.984375 755.035156 252.429688 755.035156 C 251.875 755.035156 251.324219 754.957031 250.78125 754.796875 C 250.238281 754.640625 249.710938 754.40625 249.195312 754.09375 C 248.683594 753.78125 248.199219 753.402344 247.738281 752.949219 C 247.273438 752.496094 246.847656 751.984375 246.457031 751.410156 C 246.0625 750.832031 245.714844 750.207031 245.40625 749.53125 C 245.097656 748.855469 244.835938 748.140625 244.625 747.390625 C 244.414062 746.636719 244.253906 745.863281 244.144531 745.066406 C 244.035156 744.265625 243.984375 743.460938 243.984375 742.648438 C 243.984375 741.835938 244.035156 741.03125 244.144531 740.230469 C 244.253906 739.433594 244.414062 738.660156 244.625 737.90625 C 244.835938 737.15625 245.097656 736.441406 245.40625 735.765625 C 245.714844 735.089844 246.0625 734.464844 246.457031 733.890625 C 246.847656 733.3125 247.273438 732.800781 247.738281 732.347656 C 248.199219 731.894531 248.683594 731.515625 249.195312 731.203125 C 249.710938 730.890625 250.238281 730.65625 250.78125 730.5 C 251.324219 730.339844 251.875 730.261719 252.429688 730.261719 C 252.984375 730.261719 253.53125 730.339844 254.078125 730.5 C 254.621094 730.65625 255.148438 730.890625 255.660156 731.203125 C 256.175781 731.515625 256.660156 731.894531 257.121094 732.347656 C 257.582031 732.800781 258.007812 733.3125 258.402344 733.890625 C 258.792969 734.464844 259.144531 735.089844 259.453125 735.765625 C 259.761719 736.441406 260.019531 737.15625 260.234375 737.90625 C 260.445312 738.660156 260.605469 739.433594 260.714844 740.230469 C 260.820312 741.03125 260.875 741.835938 260.875 742.648438 Z M 260.875 742.648438 " fill-opacity="1" fill-rule="nonzero"/><path fill="#ffffff" d="M 257.777344 736.453125 C 257.777344 736.902344 257.691406 737.332031 257.519531 737.746094 C 257.351562 738.160156 257.105469 738.527344 256.789062 738.84375 C 256.472656 739.160156 256.105469 739.402344 255.691406 739.574219 C 255.277344 739.746094 254.847656 739.832031 254.398438 739.832031 C 253.953125 739.832031 253.519531 739.746094 253.105469 739.574219 C 252.691406 739.402344 252.328125 739.160156 252.011719 738.84375 C 251.695312 738.527344 251.449219 738.160156 251.277344 737.746094 C 251.105469 737.332031 251.019531 736.902344 251.023438 736.453125 C 251.019531 736.007812 251.105469 735.574219 251.277344 735.160156 C 251.449219 734.746094 251.695312 734.382812 252.011719 734.066406 C 252.328125 733.75 252.691406 733.503906 253.105469 733.332031 C 253.519531 733.160156 253.953125 733.074219 254.398438 733.074219 C 254.847656 733.074219 255.277344 733.160156 255.691406 733.332031 C 256.105469 733.503906 256.472656 733.75 256.789062 734.066406 C 257.105469 734.382812 257.351562 734.746094 257.519531 735.160156 C 257.691406 735.574219 257.777344 736.007812 257.777344 736.453125 Z M 257.777344 736.453125 " fill-opacity="1" fill-rule="nonzero"/><path fill="#efebe0" d="M 317.75 745.746094 C 317.75 746.558594 317.695312 747.363281 317.585938 748.164062 C 317.476562 748.960938 317.316406 749.734375 317.105469 750.484375 C 316.894531 751.238281 316.632812 751.953125 316.324219 752.628906 C 316.015625 753.304688 315.667969 753.929688 315.273438 754.503906 C 314.882812 755.082031 314.457031 755.59375 313.996094 756.046875 C 313.535156 756.496094 313.046875 756.878906 312.535156 757.191406 C 312.023438 757.5 311.496094 757.738281 310.949219 757.894531 C 310.40625 758.054688 309.855469 758.132812 309.300781 758.132812 C 308.746094 758.132812 308.199219 758.054688 307.65625 757.894531 C 307.109375 757.738281 306.582031 757.5 306.070312 757.191406 C 305.558594 756.878906 305.070312 756.496094 304.609375 756.046875 C 304.148438 755.59375 303.722656 755.082031 303.328125 754.503906 C 302.9375 753.929688 302.585938 753.304688 302.28125 752.628906 C 301.972656 751.953125 301.710938 751.238281 301.5 750.484375 C 301.285156 749.734375 301.125 748.960938 301.019531 748.164062 C 300.910156 747.363281 300.855469 746.558594 300.855469 745.746094 C 300.855469 744.933594 300.910156 744.125 301.019531 743.328125 C 301.125 742.53125 301.285156 741.757812 301.5 741.003906 C 301.710938 740.253906 301.972656 739.539062 302.28125 738.863281 C 302.585938 738.1875 302.9375 737.5625 303.328125 736.984375 C 303.722656 736.410156 304.148438 735.898438 304.609375 735.445312 C 305.070312 734.992188 305.558594 734.613281 306.070312 734.300781 C 306.582031 733.988281 307.109375 733.753906 307.65625 733.59375 C 308.199219 733.4375 308.746094 733.355469 309.300781 733.355469 C 309.855469 733.355469 310.40625 733.4375 310.949219 733.59375 C 311.492188 733.753906 312.023438 733.988281 312.535156 734.300781 C 313.046875 734.613281 313.535156 734.992188 313.996094 735.445312 C 314.457031 735.898438 314.882812 736.410156 315.273438 736.984375 C 315.667969 737.5625 316.015625 738.1875 316.324219 738.863281 C 316.632812 739.539062 316.894531 740.253906 317.105469 741.003906 C 317.316406 741.757812 317.476562 742.53125 317.585938 743.328125 C 317.695312 744.125 317.75 744.933594 317.75 745.746094 Z M 317.75 745.746094 " fill-opacity="1" fill-rule="nonzero"/><path fill="#ffffff" d="M 314.652344 739.550781 C 314.652344 740 314.566406 740.429688 314.394531 740.84375 C 314.222656 741.257812 313.980469 741.625 313.664062 741.941406 C 313.34375 742.257812 312.980469 742.5 312.566406 742.671875 C 312.152344 742.84375 311.722656 742.929688 311.273438 742.929688 C 310.824219 742.929688 310.394531 742.84375 309.980469 742.671875 C 309.566406 742.5 309.199219 742.257812 308.882812 741.941406 C 308.566406 741.625 308.324219 741.257812 308.152344 740.84375 C 307.980469 740.429688 307.894531 740 307.894531 739.550781 C 307.894531 739.101562 307.980469 738.671875 308.152344 738.257812 C 308.324219 737.84375 308.566406 737.480469 308.882812 737.164062 C 309.199219 736.84375 309.566406 736.601562 309.980469 736.429688 C 310.394531 736.257812 310.824219 736.171875 311.273438 736.171875 C 311.722656 736.171875 312.152344 736.257812 312.566406 736.429688 C 312.980469 736.601562 313.34375 736.84375 313.664062 737.164062 C 313.980469 737.480469 314.222656 737.84375 314.394531 738.257812 C 314.566406 738.671875 314.652344 739.101562 314.652344 739.550781 Z M 314.652344 739.550781 " fill-opacity="1" fill-rule="nonzero"/><path stroke-linecap="butt" transform="matrix(2.8155, 0, 0, 2.815499, -771.849572, -994.233102)" fill="none" stroke-linejoin="miter" d="M 372.400683 620.099331 C 372.400683 620.099331 368.700463 622.90051 372.400683 625.400622 " stroke="#efebe0" stroke-width="0.857" stroke-opacity="1" stroke-miterlimit="10"/></svg>