<svg xmlns="http://www.w3.org/2000/svg" viewBox="0 0 64 64" aria-hidden="true">
  <!-- Locomate favicon. Terracotta tile, parchment mascot bust.
       Mascot path data is the design team's official mark, rescaled
       and recentred to fit a 64×64 viewBox. Source:
       /Bộ Nhận Diện/Logo/LOGO LOCOMATE.svg (upper-mascot block). -->
  <rect width="64" height="64" rx="12" fill="#D94A26"/>
  <g transform="translate(-66.7 -10.4) scale(0.183)" fill="#FAF6EC">
    <path d="M518.2,163c-80.2,0-145.2,65-145.2,145.2c0,51.7,27,97,67.7,122.8c2.4,1.5,4.8,3,7.3,4.3c1.1,0.6,2.2,1.2,3.3,1.8c25,14.1,41.8,40.9,41.8,71.7c0,0.5,0,1,0,1.4c0.1,0,0.1,0,0.2,0c0.1,0,0.2,0,0.4,0c1.5-20.3,6.9-39.6,15.4-57.1c2.7-5.6,5.8-11,9.2-16.2c5.3-8.1,11.3-15.8,17.9-22.8c-5.8,1-11.8,1.5-17.9,1.5c-59.3,0-107.4-48.1-107.4-107.4c0-59.3,48.1-107.4,107.4-107.4c59.3,0,107.4,48.1,107.4,107.4c0,23.8-7.7,45.8-20.8,63.6c-6.5,8.8-14.2,16.5-23,23c-3.4,2.1-6.8,4.3-10.1,6.6c-19.1,13.6-35.1,31.3-46.6,51.8c-2.5,4.5-4.8,9.1-6.9,13.8c-6.8,15.5-11.2,32.2-12.7,49.8c-0.4,4.6-0.6,9.2-0.6,13.9c0,2.2,0.1,4.3,0.1,6.5c4.4-0.2,8.8-0.4,13.2-0.4c7.8,0,15.5,0.4,23.1,1.1c1.5-44.7,23.9-84.1,57.6-108.8l-0.7,0.2c21.2-14,38.5-33.5,50-56.4c1.3-2.5,2.5-5.1,3.6-7.7c7.5-17.5,11.6-36.8,11.6-57C663.4,228,598.4,163,518.2,163z"/>
    <path d="M454.5,114.9c14.9,28.6,48.3,62,93.1,91.9c9.6,6.6,19.8,12.9,30.6,18.8c0.7,0.4,1.5,0.8,2.2,1.2c0.9,0.5,1.7,1,2.6,1.4c52.2,28.7,103.9,45.3,142.9,48l28.5,57.2c-57.7-6.9-132.3-32.4-207.9-74.1c-75.6-41.6-137.1-91-173.8-136L454.5,114.9z"/>
    <path d="M547.6,206.8c-44.9-29.9-78.3-63.3-93.1-91.9l11.2-1.2C474.5,142.7,504.5,177.3,547.6,206.8z"/>
    <path d="M465.7,113.8L493,111c19.5,24.2,49.3,48.7,85.6,68.7c1.4,0.8,2.9,1.6,4.3,2.3c1.5,0.9,3.1,1.8,4.7,2.6c38.9,21.4,78.1,34.8,112.5,40l19.3,38.8c-35.6,4.1-87.4-8.6-139.1-36.5c-11.5-6.4-22.5-13.1-32.8-20C504.5,177.3,474.5,142.7,465.7,113.8z"/>
    <path d="M636.3,96.2l59.8,120.1c-32.2-1.1-72.7-12.8-113.1-34.3c-36.8-20.9-67.4-45.8-89.3-71.1L636.3,96.2z"/>
    <ellipse cx="455.5" cy="291.5" rx="12.4" ry="17.8"/>
    <ellipse cx="537.4" cy="295.9" rx="12.4" ry="17.8"/>
  </g>
  <g fill="#D94A26">
    <circle cx="32" cy="29" r="1.4"/>
    <circle cx="38.5" cy="29.4" r="1.4"/>
  </g>
</svg>
